<svg xmlns="http://www.w3.org/2000/svg" xmlns:xlink="http://www.w3.org/1999/xlink" id="exportSvg" width="768" height="525"><defs/><rect width="768" height="525" transform="translate(0, 0)" fill="#FFFFFF" style="fill: rgb(255, 255, 255);"/><g><g id="__svelte-dw-svg" clip-path="url(#rect-mask-__svelte-dw-DbgGTXtBPAYQ3cruQsar3)"><clipPath id="rect-mask-__svelte-dw-DbgGTXtBPAYQ3cruQsar3"><rect x="0" y="0" width="768" height="517.875"/></clipPath><g id="header-svg"><text transform="translate(0, 0)"><tspan fill="rgb(51,51,51)" x="0" y="22" style="font-family: Arial; font-weight: 700; font-size: 22px;">Titel Organspende Französisch</tspan></text><text transform="translate(0, 31)"><tspan fill="rgb(51,51,51)" x="0" y="14" style="font-family: Arial; font-weight: 400; font-size: 14px;">Undertitel Organspende Französisch</tspan></text></g><g id="chart-svg"><text transform="translate(0, 64)" id="#1d81a2"><tspan fill="rgb(51,51,51)" x="17" y="14.875" style="font-family: Arial; font-weight: 400; font-size: 14px;">Loi</tspan><tspan fill="rgb(51,51,51)" style="font-family: Arial; font-weight: 400; font-size: 14px;">​ acceptée</tspan></text><circle r="7" cx="7" cy="73.375" fill="rgb(29,129,162)"/><text transform="translate(106.40625, 64)" id="#c71e1d"><tspan fill="rgb(51,51,51)" x="17" y="14.875" style="font-family: Arial; font-weight: 400; font-size: 14px;">loi</tspan><tspan fill="rgb(51,51,51)" style="font-family: Arial; font-weight: 400; font-size: 14px;">​ refusée</tspan></text><circle r="7" cx="113.40625" cy="73.375" fill="rgb(199,30,29)"/><g id="group-svg" clip-path="url(#rect-mask-group-_s01xkCfneXsKioxPrQL5)" transform="translate(0.00000, 92.87500)"><clipPath id="rect-mask-group-_s01xkCfneXsKioxPrQL5"><rect x="0" y="0" width="768" height="343"/></clipPath><g id="group-svg" transform="translate(35.25, 10)"><g id="grid-svg"><g id="x-grid-lines-svg grid-x-svg datawrapper-1X64P-1l9st31-svg"><line x1="0" x2="0" y1="310" y2="0" transform="translate(33.57909292035396, 0)" style="fill: none; stroke-width: 1; stroke-linejoin: miter; stroke-linecap: butt; stroke: rgb(232, 232, 232);"/><line x1="0" x2="0" y1="310" y2="0" transform="translate(140.17938790560467, 0)" style="fill: none; stroke-width: 1; stroke-linejoin: miter; stroke-linecap: butt; stroke: rgb(232, 232, 232);"/><line x1="0" x2="0" y1="310" y2="0" transform="translate(246.7796828908555, 0)" style="fill: none; stroke-width: 1; stroke-linejoin: miter; stroke-linecap: butt; stroke: rgb(232, 232, 232);"/><line x1="0" x2="0" y1="310" y2="0" transform="translate(353.37997787610624, 0)" style="fill: none; stroke-width: 1; stroke-linejoin: miter; stroke-linecap: butt; stroke: rgb(232, 232, 232);"/><line x1="0" x2="0" y1="310" y2="0" transform="translate(459.9802728613569, 0)" style="fill: none; stroke-width: 1; stroke-linejoin: miter; stroke-linecap: butt; stroke: rgb(232, 232, 232);"/><line x1="0" x2="0" y1="310" y2="0" transform="translate(566.5805678466078, 0)" style="fill: none; stroke-width: 1; stroke-linejoin: miter; stroke-linecap: butt; stroke: rgb(232, 232, 232);"/><line x1="0" x2="0" y1="310" y2="0" transform="translate(673.1808628318585, 0)" style="fill: none; stroke-width: 1; stroke-linejoin: miter; stroke-linecap: butt; stroke: rgb(232, 232, 232);"/></g><g id="y-grid-lines-svg grid-y-svg datawrapper-1X64P-1l9st31-svg"><line x1="0" x2="722.75" y1="0" y2="0" transform="translate(0, 227.41161616161617)" style="fill: none; stroke-width: 1; stroke-linejoin: miter; stroke-linecap: butt; stroke: rgb(232, 232, 232);"/><line x1="0" x2="722.75" y1="0" y2="0" transform="translate(0, 129.55808080808077)" style="fill: none; stroke-width: 1; stroke-linejoin: miter; stroke-linecap: butt; stroke: rgb(232, 232, 232);"/><line x1="0" x2="722.75" y1="0" y2="0" transform="translate(0, 31.70454545454544)" style="fill: none; stroke-width: 1; stroke-linejoin: miter; stroke-linecap: butt; stroke: rgb(232, 232, 232);"/></g></g><g id="lines-svg"><path d="M0,227.41161616161617L0.9999999999999823,227.41161616161617,1.9999999999999647,227.41161616161617,2.9999999999999476,227.41161616161617,4.000000000000048,227.41161616161617,5.00000000000003,227.41161616161617,6.000000000000012,227.41161616161617,6.999999999999996,227.41161616161617,7.999999999999978,227.41161616161617,8.999999999999961,227.41161616161617,9.999999999999943,227.41161616161617,11.000000000000043,227.41161616161617,12.000000000000025,227.41161616161617,13.000000000000009,227.41161616161617,13.999999999999991,227.41161616161617,14.999999999999973,227.41161616161617,15.999999999999956,227.41161616161617,17.000000000000057,227.41161616161617,18.00000000000004,227.41161616161617,19.00000000000002,227.41161616161617,20.000000000000004,227.41161616161617,20.999999999999986,227.41161616161617,21.999999999999968,227.41161616161617,22.999999999999947,227.41161616161617,24.00000000000005,227.41161616161617,25.000000000000036,227.41161616161617,26.000000000000018,227.41161616161617,27,227.41161616161617,27.999999999999982,227.41161616161617,28.999999999999964,227.41161616161617,29.999999999999947,227.41161616161617,31.000000000000043,227.41161616161617,32.00000000000003,227.41161616161617,33.00000000000001,227.41161616161617,33.99999999999999,227.41161616161617,34.99999999999997,227.41161616161617,35.99999999999996,227.41161616161617,37.00000000000006,227.41161616161617,38.00000000000004,227.41161616161617,39.00000000000002,227.41161616161617,40.00000000000001,227.41161616161617,40.99999999999999,227.41161616161617,41.99999999999997,227.41161616161617,42.99999999999996,227.41161616161617,44.00000000000005,227.41161616161617,45.000000000000036,227.41161616161617,46.000000000000014,227.41161616161617,47.00000000000001,227.41161616161617,47.99999999999998,227.41161616161617,48.99999999999997,227.41161616161617,49.99999999999995,227.41161616161617,51.00000000000004,227.41161616161617,52.000000000000036,227.41161616161617,53.00000000000001,227.41161616161617,54,227.41161616161617,54.99999999999997,227.41161616161617,55.999999999999964,227.41161616161617,56.99999999999994,227.41161616161617,58.00000000000005,227.41161616161617,59.00000000000003,227.41161616161617,60.000000000000014,227.41161616161617,60.99999999999999,227.41161616161617,61.99999999999998,227.41161616161617,62.99999999999996,227.41161616161617,64.00000000000006,227.41161616161617,65.00000000000004,227.41161616161617,66.00000000000001,227.41161616161617,67,227.41161616161617,67.99999999999999,227.41161616161617,68.99999999999997,227.41161616161617,69.99999999999994,227.41161616161617,70.99999999999993,227.41161616161617,72.00000000000003,227.41161616161617,73.00000000000001,227.41161616161617,74,227.41161616161617,74.99999999999999,227.41161616161617,75.99999999999996,227.41161616161617,77.00000000000006,227.41161616161617,78.00000000000004,227.41161616161617,79.00000000000003,227.41161616161617,80.00000000000001,227.41161616161617,80.99999999999999,227.41161616161617,81.99999999999999,227.41161616161617,82.99999999999996,227.41161616161617,83.99999999999994,227.41161616161617,85.00000000000004,227.41161616161617,86.00000000000003,227.41161616161617,87,227.41161616161617,88,227.41161616161617,88.99999999999997,227.41161616161617,89.99999999999996,227.41161616161617,91.00000000000004,227.41161616161617,92.00000000000003,227.41161616161617,93.00000000000003,227.41161616161617,94.00000000000001,227.41161616161617,94.99999999999997,227.41161616161617,95.99999999999996,227.41161616161617,96.99999999999996,227.41161616161617,98.00000000000006,227.41161616161617,99.00000000000003,227.41161616161617,100.00000000000001,227.41161616161617,101,227.41161616161617,101.99999999999997,227.41161616161617,102.99999999999996,227.41161616161617,104.00000000000007,227.41161616161617,105.00000000000006,227.41161616161617,106.00000000000001,227.41161616161617,107.00000000000001,227.41161616161617,108,227.41161616161617,108.99999999999999,227.41161616161617,109.99999999999994,227.41161616161617,110.99999999999994,227.41161616161617,112.00000000000004,227.41161616161617,113.00000000000001,227.41161616161617,114,227.41161616161617,114.99999999999999,227.41161616161617,115.99999999999997,227.41161616161617,116.99999999999994,227.41161616161617,118.00000000000006,227.41161616161617,119.00000000000004,227.41161616161617,120.00000000000003,227.41161616161617,121,227.41161616161617,121.99999999999999,227.41161616161617,122.99999999999997,227.41161616161617,123.99999999999996,227.41161616161617,125.00000000000004,227.41161616161617,126.00000000000003,227.41161616161617,127.00000000000001,227.41161616161617,127.99999999999999,227.41161616161617,128.99999999999997,227.41161616161617,129.99999999999997,227.41161616161617,131.00000000000006,227.41161616161617,132.00000000000003,227.41161616161617,133.00000000000003,227.41161616161617,134,227.41161616161617,135,227.41161616161617,135.99999999999997,227.41161616161617,136.99999999999994,227.41161616161617,137.99999999999994,227.41161616161617,139.00000000000003,227.41161616161617,140.00000000000003,227.41161616161617,141,227.41161616161617,142,227.41161616161617,142.99999999999997,227.41161616161617,144.00000000000006,227.41161616161617,145.00000000000006,227.41161616161617,146.00000000000003,227.41161616161617,147,227.41161616161617,148,227.41161616161617,148.99999999999997,227.41161616161617,149.99999999999997,227.41161616161617,150.99999999999994,227.41161616161617,152.00000000000006,227.41161616161617,153.00000000000003,227.41161616161617,154,227.41161616161617,155,227.41161616161617,155.99999999999997,227.41161616161617,157.00000000000009,227.41161616161617,158.00000000000006,227.41161616161617,159.00000000000003,227.41161616161617,160.00000000000003,227.41161616161617,161.00000000000003,227.41161616161617,161.99999999999997,227.41161616161617,162.99999999999997,227.41161616161617,163.99999999999997,227.41161616161617,164.99999999999994,227.41161616161617,166.00000000000003,227.41161616161617,167.00000000000003,227.41161616161617,168,227.41161616161617,168.99999999999997,227.41161616161617,169.99999999999997,227.41161616161617,170.99999999999994,227.41161616161617,172.00000000000006,227.41161616161617,173.00000000000003,227.41161616161617,174,227.41161616161617,175,227.41161616161617,176,227.41161616161617,176.99999999999994,227.41161616161617,177.99999999999994,227.41161616161617,178.99999999999994,227.41161616161617,180.00000000000003,227.41161616161617,181.00000000000003,227.41161616161617,181.99999999999997,227.41161616161617,182.99999999999997,227.41161616161617,183.99999999999994,227.41161616161617,185.00000000000006,227.41161616161617,186.00000000000006,227.41161616161617,187.00000000000003,227.41161616161617,188.00000000000003,227.41161616161617,189,227.41161616161617,189.99999999999994,227.41161616161617,190.99999999999994,227.41161616161617,192.00000000000006,227.41161616161617,193.00000000000003,227.41161616161617,194.00000000000003,227.41161616161617,195,227.41161616161617,196,227.41161616161617,196.99999999999994,227.41161616161617,198.00000000000006,227.41161616161617,199.00000000000003,227.41161616161617,200.00000000000003,227.41161616161617,201.00000000000003,227.41161616161617,202,227.41161616161617,203,227.41161616161617,203.99999999999994,227.41161616161617,204.99999999999991,227.41161616161617,205.99999999999991,227.41161616161617,207.00000000000003,227.41161616161617,208,227.41161616161617,209,227.41161616161617,209.99999999999997,227.41161616161617,211.00000000000009,227.41161616161617,212.00000000000003,227.41161616161617,213.00000000000003,227.41161616161617,214.00000000000003,227.41161616161617,215,227.41161616161617,216,227.41161616161617,216.99999999999997,227.41161616161617,217.99999999999997,227.41161616161617,218.99999999999991,227.41161616161617,219.9999999999999,227.41161616161617,221,227.41161616161617,222,227.41161616161617,222.99999999999997,227.41161616161617,224.00000000000009,227.41161616161617,225.00000000000009,227.41161616161617,226.00000000000003,227.41161616161617,227,227.41161616161617,228,227.41161616161617,229,227.41161616161617,229.99999999999997,227.41161616161617,230.99999999999997,227.41161616161617,231.99999999999994,227.41161616161617,233.00000000000006,227.41161616161617,234,227.41161616161617,235,227.41161616161617,235.99999999999997,227.41161616161617,236.99999999999997,227.41161616161617,237.99999999999994,227.41161616161617,239.00000000000006,227.41161616161617,240.00000000000006,227.41161616161617,241,227.41161616161617,242,227.41161616161617,242.99999999999997,227.41161616161617,243.99999999999997,227.41161616161617,244.99999999999994,227.41161616161617,246.00000000000006,227.41161616161617,247.00000000000006,227.41161616161617,248.00000000000003,227.41161616161617,248.99999999999997,227.41161616161617,249.99999999999997,227.41161616161617,250.99999999999994,227.41161616161617,251.99999999999994,227.41161616161617,253.00000000000006,227.41161616161617,254.00000000000003,227.41161616161617,255.00000000000003,227.41161616161617,255.99999999999997,227.41161616161617,256.99999999999994,227.41161616161617,257.99999999999994,227.41161616161617,259.00000000000006,227.41161616161617,260.00000000000006,227.41161616161617,261.00000000000006,227.41161616161617,262,227.41161616161617,263,227.41161616161617,263.99999999999994,227.41161616161617,264.99999999999994,227.41161616161617,266.00000000000006,227.41161616161617,267.00000000000006,227.41161616161617,268,227.41161616161617,269,227.41161616161617,270,227.41161616161617,270.99999999999994,227.41161616161617,271.99999999999994,227.41161616161617,272.99999999999994,227.41161616161617,273.9999999999999,227.41161616161617,275,227.41161616161617,276,227.41161616161617,277,227.41161616161617,278.00000000000006,227.41161616161617,279.00000000000006,227.41161616161617,280.00000000000006,227.41161616161617,281,227.41161616161617,282,227.41161616161617,283,227.41161616161617,284,227.41161616161617,284.99999999999994,227.41161616161617,285.99999999999994,227.41161616161617,286.9999999999999,227.41161616161617,288,227.41161616161617,289,227.41161616161617,290,227.41161616161617,291.0000000000001,227.41161616161617,292.00000000000006,227.41161616161617,293.00000000000006,227.41161616161617,294,227.41161616161617,295,227.41161616161617,296,227.41161616161617,297,227.41161616161617,297.99999999999994,227.41161616161617,298.99999999999994,227.41161616161617,299.99999999999994,227.41161616161617,301,227.41161616161617,302,227.41161616161617,303,227.41161616161617,304.0000000000001,227.41161616161617,305.00000000000006,227.41161616161617,306.00000000000006,227.41161616161617,307.00000000000006,227.41161616161617,308,227.41161616161617,309,227.41161616161617,310,227.41161616161617,310.99999999999994,227.41161616161617,311.99999999999994,227.41161616161617,312.99999999999994,227.41161616161617,314.00000000000006,227.41161616161617,315,227.41161616161617,316,227.41161616161617,317.0000000000001,227.41161616161617,318.00000000000006,227.41161616161617,319.00000000000006,227.41161616161617,320.00000000000006,227.41161616161617,321.00000000000006,227.41161616161617,322.00000000000006,227.41161616161617,323,227.41161616161617,323.99999999999994,227.41161616161617,324.99999999999994,227.41161616161617,325.99999999999994,227.41161616161617,326.99999999999994,227.41161616161617,327.99999999999994,227.41161616161617,329,227.41161616161617,329.99999999999994,227.41161616161617,330.99999999999994,227.41161616161617,332.00000000000006,227.41161616161617,333.00000000000006,227.41161616161617,334.00000000000006,227.41161616161617,335.00000000000006,227.41161616161617,336,227.41161616161617,337,227.41161616161617,337.99999999999994,227.41161616161617,338.99999999999994,227.41161616161617,339.99999999999994,227.41161616161617,340.9999999999999,227.41161616161617,341.9999999999999,227.41161616161617,343,227.41161616161617,344,227.41161616161617,344.99999999999994,227.41161616161617,346.00000000000006,227.41161616161617,347.00000000000006,227.41161616161617,348,227.41161616161617,349,227.41161616161617,350,227.41161616161617,351,227.41161616161617,352,227.41161616161617,352.99999999999994,227.41161616161617,353.9999999999999,227.41161616161617,355,227.41161616161617,356,227.41161616161617,357,227.41161616161617,358,227.41161616161617,359.0000000000001,227.41161616161617,360.00000000000006,227.41161616161617,361,227.41161616161617,362.00000000000006,227.41161616161617,363.00000000000006,227.41161616161617,363.99999999999994,227.41161616161617,364.99999999999994,227.41161616161617,365.99999999999994,227.41161616161617,366.9999999999999,227.41161616161617,367.9999999999999,227.41161616161617,368.9999999999999,227.41161616161617,370.0000000000001,227.41161616161617,371.0000000000001,227.41161616161617,372.0000000000001,227.41161616161617,373.00000000000006,227.41161616161617,374.00000000000006,227.41161616161617,375.00000000000006,227.41161616161617,376.00000000000006,227.41161616161617,377,227.41161616161617,378,227.41161616161617,378.99999999999994,227.41161616161617,379.9999999999999,227.41161616161617,380.9999999999999,227.41161616161617,381.9999999999999,227.41161616161617,383.00000000000006,227.41161616161617,384.0000000000001,227.41161616161617,385.0000000000001,227.41161616161617,386.00000000000006,227.41161616161617,387.00000000000006,227.41161616161617,388.00000000000006,227.41161616161617,389.00000000000006,227.41161616161617,390,227.41161616161617,391,227.41161616161617,392,227.41161616161617,393,227.41161616161617,393.9999999999999,227.41161616161617,394.9999999999999,227.41161616161617,396.00000000000006,227.41161616161617,397,227.41161616161617,398,227.41161616161617,399.00000000000006,227.41161616161617,400.00000000000006,227.41161616161617,401.00000000000006,227.41161616161617,402.00000000000006,227.41161616161617,403,227.41161616161617,404,227.41161616161617,405,227.41161616161617,406,227.41161616161617,407,227.41161616161617,408.00000000000006,227.41161616161617,409,227.41161616161617,410,227.41161616161617,411,227.41161616161617,412,227.41161616161617,413,227.41161616161617,414.00000000000006,227.41161616161617,415.00000000000006,227.41161616161617,416,227.41161616161617,417,227.41161616161617,418,227.41161616161617,419,227.41161616161617,419.99999999999994,227.41161616161617,421.00000000000006,227.41161616161617,422,227.41161616161617,423,227.41161616161617,424,227.41161616161617,425,227.41161616161617,426,227.41161616161617,426.99999999999994,227.41161616161617,428.00000000000006,227.41161616161617,429,227.41161616161617,430,227.41161616161617,431,227.41161616161617,432,227.41161616161617,432.99999999999994,227.41161616161617,434.00000000000006,227.41161616161617,435,227.41161616161617,436,227.41161616161617,437,227.41161616161617,438,227.41161616161617,439,227.41161616161617,439.99999999999994,227.41161616161617,441.00000000000006,227.41161616161617,442,227.41161616161617,443,227.41161616161617,444,227.41161616161617,445,227.41161616161617,445.99999999999994,227.41161616161617,447.00000000000006,227.41161616161617,448,227.41161616161617,449,227.41161616161617,450,227.41161616161617,451,227.41161616161617,451.99999999999994,227.41161616161617,453.00000000000006,227.41161616161617,454,227.41161616161617,455,227.41161616161617,456,227.41161616161617,457,227.41161616161617,458,227.41161616161617,458.99999999999994,227.41161616161617,459.99999999999994,227.41161616161617,460.99999999999994,227.41161616161617,462.00000000000017,227.41161616161617,462.9999999999999,227.41161616161617,464.00000000000017,227.41161616161617,464.9999999999999,227.41161616161617,466.0000000000001,227.41161616161617,467,227.41161616161617,468,227.41161616161617,469,227.41161616161617,470,227.41161616161617,471,227.41161616161617,471.99999999999994,227.41161616161617,472.99999999999994,227.41161616161617,473.99999999999994,227.41161616161617,474.99999999999994,227.41161616161617,475.9999999999999,227.41161616161617,477.0000000000001,227.41161616161617,477.9999999999999,227.41161616161617,479.0000000000001,227.41161616161617,480.0000000000001,227.41161616161617,481.0000000000001,227.41161616161617,482,227.41161616161617,483,227.41161616161617,484,227.41161616161617,484.99999999999994,227.41161616161617,485.99999999999994,227.41161616161617,486.99999999999994,227.41161616161617,487.99999999999994,227.41161616161617,488.9999999999999,227.41161616161617,489.9999999999999,227.41161616161617,490.9999999999999,227.41161616161617,492.0000000000001,227.41161616161617,493.0000000000001,227.41161616161617,494.0000000000001,227.41161616161617,495.00000000000006,227.41161616161617,496.00000000000006,227.41161616161617,496.99999999999994,227.41161616161617,497.99999999999994,227.41161616161617,498.99999999999994,227.41161616161617,499.99999999999994,227.41161616161617,500.99999999999994,227.41161616161617,501.9999999999999,227.41161616161617,502.9999999999999,227.41161616161617,503.9999999999999,227.41161616161617,505.0000000000001,227.41161616161617,506.0000000000001,227.41161616161617,507.0000000000001,227.41161616161617,508.00000000000006,227.41161616161617,509.00000000000006,227.41161616161617,510.00000000000006,227.41161616161617,511.00000000000006,227.41161616161617,511.99999999999994,227.41161616161617,512.9999999999999,227.41161616161617,513.9999999999999,227.41161616161617,514.9999999999999,227.41161616161617,515.9999999999999,227.41161616161617,516.9999999999999,227.41161616161617,518.0000000000001,227.41161616161617,519.0000000000001,227.41161616161617,520.0000000000001,227.41161616161617,521.0000000000001,227.41161616161617,522.0000000000001,227.41161616161617,523,227.41161616161617,524,227.41161616161617,525,227.41161616161617,526,227.41161616161617,526.9999999999999,227.41161616161617,527.9999999999999,227.41161616161617,528.9999999999999,227.41161616161617,529.9999999999999,227.41161616161617,531.0000000000001,227.41161616161617,532.0000000000001,227.41161616161617,533.0000000000001,227.41161616161617,533.9999999999999,227.41161616161617,535.0000000000001,227.41161616161617,535.9999999999998,227.41161616161617,537,227.41161616161617,538,227.41161616161617,539,227.41161616161617,540,227.41161616161617,541,227.41161616161617,541.9999999999999,227.41161616161617,542.9999999999999,227.41161616161617,544.0000000000001,227.41161616161617,544.9999999999999,227.41161616161617,546.0000000000001,227.41161616161617,546.9999999999998,227.41161616161617,548,227.41161616161617,548.9999999999998,227.41161616161617,550,227.41161616161617,551,227.41161616161617,552,227.41161616161617,553,227.41161616161617,554,227.41161616161617,555,227.41161616161617,556,227.41161616161617,557.0000000000001,227.41161616161617,557.9999999999999,227.41161616161617,559.0000000000001,227.41161616161617,559.9999999999998,227.41161616161617,561,227.41161616161617,561.9999999999998,227.41161616161617,563,227.41161616161617,564,227.41161616161617,565,227.41161616161617,566,227.41161616161617,567,227.41161616161617,568,227.41161616161617,569,227.41161616161617,570.0000000000002,227.41161616161617,570.9999999999999,227.41161616161617,572.0000000000001,227.41161616161617,572.9999999999998,227.41161616161617,574,227.41161616161617,575,227.41161616161617,576,227.41161616161617,577,227.41161616161617,578,227.41161616161617,579,227.41161616161617,580,227.41161616161617,581,227.41161616161617,582,227.41161616161617,583.0000000000002,227.41161616161617,583.9999999999999,227.41161616161617,585.0000000000001,227.41161616161617,585.9999999999999,227.41161616161617,587,227.41161616161617,588,227.41161616161617,589,227.41161616161617,590,227.41161616161617,591,227.41161616161617,592,227.41161616161617,593,227.41161616161617,594,227.41161616161617,595,227.41161616161617,596.0000000000002,227.41161616161617,596.9999999999999,227.41161616161617,598.0000000000001,227.41161616161617,598.9999999999999,227.41161616161617,600.0000000000001,227.41161616161617,601,227.41161616161617,602,227.41161616161617,603,227.41161616161617,604,227.41161616161617,605,227.41161616161617,606,227.41161616161617,607,227.41161616161617,608,227.41161616161617,609.0000000000002,227.41161616161617,609.9999999999999,227.41161616161617,611.0000000000001,227.41161616161617,611.9999999999999,227.41161616161617,613.0000000000001,227.41161616161617,614.0000000000001,227.41161616161617,615.0000000000001,227.41161616161617,616,227.41161616161617,617,227.41161616161617,618,227.41161616161617,619,227.41161616161617,620.0000000000002,227.41161616161617,621,227.41161616161617,622.0000000000002,227.41161616161617,622.9999999999999,227.41161616161617,624.0000000000001,227.41161616161617,624.9999999999999,227.41161616161617,626.0000000000001,227.41161616161617,627.0000000000001,227.41161616161617,628.0000000000001,227.41161616161617,629.0000000000001,227.41161616161617,630,227.41161616161617,631,227.41161616161617,632,227.41161616161617,633,227.41161616161617,634,227.41161616161617,635.0000000000002,227.41161616161617,635.9999999999999,227.41161616161617,637.0000000000001,227.41161616161617,637.9999999999999,227.41161616161617,639.0000000000001,227.41161616161617,639.9999999999999,227.41161616161617,641.0000000000001,227.41161616161617,642.0000000000001,227.41161616161617,643.0000000000001,227.41161616161617,644.0000000000001,227.41161616161617,645,227.41161616161617,646,227.41161616161617,646.9999999999999,227.41161616161617,647.9999999999999,227.41161616161617,648.9999999999999,227.41161616161617,650.0000000000001,227.41161616161617,650.9999999999999,227.41161616161617,652.0000000000001,227.41161616161617,652.9999999999999,227.41161616161617,654.0000000000001,227.41161616161617,654.9999999999999,227.41161616161617,656.0000000000001,227.41161616161617,657.0000000000001,227.41161616161617,658,227.41161616161617,659,227.41161616161617,659.9999999999999,227.41161616161617,660.9999999999999,227.41161616161617,661.9999999999999,227.41161616161617,662.9999999999999,227.41161616161617,663.9999999999999,227.41161616161617,665.0000000000001,227.41161616161617,665.9999999999999,227.41161616161617,667.0000000000001,227.41161616161617,667.9999999999999,227.41161616161617,669.0000000000001,227.41161616161617,669.9999999999998,227.41161616161617,671,227.41161616161617,672,227.41161616161617,673,227.41161616161617,674,227.41161616161617,674.9999999999999,227.41161616161617,675.9999999999999,227.41161616161617,676.9999999999999,227.41161616161617,678.0000000000001,227.41161616161617,678.9999999999999,227.41161616161617,680.0000000000001,227.41161616161617,680.9999999999999,227.41161616161617,682.0000000000001,227.41161616161617,682.9999999999998,227.41161616161617,684,227.41161616161617,685,227.41161616161617,686,227.41161616161617,687,227.41161616161617,688,227.41161616161617,689,227.41161616161617,689.9999999999999,227.41161616161617,691.0000000000001,227.41161616161617,691.9999999999999,227.41161616161617,693.0000000000001,227.41161616161617,693.9999999999999,227.41161616161617,695.0000000000001,227.41161616161617,695.9999999999998,227.41161616161617,697,227.41161616161617,698,227.41161616161617,699,227.41161616161617,700,227.41161616161617,701,227.41161616161617,702,227.41161616161617,703,227.41161616161617,704.0000000000001,227.41161616161617,704.9999999999999,227.41161616161617,706.0000000000001,227.41161616161617,706.9999999999999,227.41161616161617,708.0000000000001,227.41161616161617,708.9999999999998,227.41161616161617,710,227.41161616161617,711,227.41161616161617,712,227.41161616161617,713,227.41161616161617,714,227.41161616161617,715,227.41161616161617,716,227.41161616161617,717.0000000000002,227.41161616161617,717.9999999999999,227.41161616161617,719.0000000000001,227.41161616161617,719.9999999999999,227.41161616161617,721.0000000000001,227.41161616161617,721.9999999999998,227.41161616161617" stroke="rgb(128,128,128)" style="mix-blend-mode: normal; fill: none; stroke-width: 1; stroke-linejoin: round; stroke-linecap: round; stroke-dasharray: 4, 4; stroke: rgb(128, 128, 128);"/></g><g id="polygons-svg"/><g id="dots-svg"><g id="dot-svg" transform="translate(305.4098451327433, 104.11616161616158)"><path d="M6.31892333573487,0A6.31892333573487,6.31892333573487,0,1,1,-6.31892333573487,0A6.31892333573487,6.31892333573487,0,1,1,6.31892333573487,0" style="mix-blend-mode: normal; fill: rgb(29, 129, 162);"/></g><g id="dot-svg" transform="translate(294.7498156342183, 224.47601010101013)"><path d="M6.31892333573487,0A6.31892333573487,6.31892333573487,0,1,1,-6.31892333573487,0A6.31892333573487,6.31892333573487,0,1,1,6.31892333573487,0" style="mix-blend-mode: normal; fill: rgb(29, 129, 162);"/></g><g id="dot-svg" transform="translate(156.1694321533923, 80.6313131313131)"><path d="M6.31892333573487,0A6.31892333573487,6.31892333573487,0,1,1,-6.31892333573487,0A6.31892333573487,6.31892333573487,0,1,1,6.31892333573487,0" style="mix-blend-mode: normal; fill: rgb(29, 129, 162);"/></g><g id="dot-svg" transform="translate(166.8294616519174, 25.83333333333337)"><path d="M6.31892333573487,0A6.31892333573487,6.31892333573487,0,1,1,-6.31892333573487,0A6.31892333573487,6.31892333573487,0,1,1,6.31892333573487,0" style="mix-blend-mode: normal; fill: rgb(29, 129, 162);"/></g><g id="dot-svg" transform="translate(454.65025811209443, 105.09469696969694)"><path d="M6.31892333573487,0A6.31892333573487,6.31892333573487,0,1,1,-6.31892333573487,0A6.31892333573487,6.31892333573487,0,1,1,6.31892333573487,0" style="mix-blend-mode: normal; fill: rgb(29, 129, 162);"/></g><g id="dot-svg" transform="translate(577.2405973451329, 113.90151515151513)"><path d="M6.31892333573487,0A6.31892333573487,6.31892333573487,0,1,1,-6.31892333573487,0A6.31892333573487,6.31892333573487,0,1,1,6.31892333573487,0" style="mix-blend-mode: normal; fill: rgb(29, 129, 162);"/></g><g id="dot-svg" transform="translate(60.229166666666664, 101.18055555555554)"><path d="M6.31892333573487,0A6.31892333573487,6.31892333573487,0,1,1,-6.31892333573487,0A6.31892333573487,6.31892333573487,0,1,1,6.31892333573487,0" style="mix-blend-mode: normal; fill: rgb(29, 129, 162);"/></g><g id="dot-svg" transform="translate(193.4795353982301, 186.3131313131313)"><path d="M6.31892333573487,0A6.31892333573487,6.31892333573487,0,1,1,-6.31892333573487,0A6.31892333573487,6.31892333573487,0,1,1,6.31892333573487,0" style="mix-blend-mode: normal; fill: rgb(29, 129, 162);"/></g><g id="dot-svg" transform="translate(358.7099926253688, 120.75126262626262)"><path d="M6.31892333573487,0A6.31892333573487,6.31892333573487,0,1,1,-6.31892333573487,0A6.31892333573487,6.31892333573487,0,1,1,6.31892333573487,0" style="mix-blend-mode: normal; fill: rgb(29, 129, 162);"/></g><g id="dot-svg" transform="translate(662.5208333333333, 181.4204545454545)"><path d="M6.31892333573487,0A6.31892333573487,6.31892333573487,0,1,1,-6.31892333573487,0A6.31892333573487,6.31892333573487,0,1,1,6.31892333573487,0" style="mix-blend-mode: normal; fill: rgb(29, 129, 162);"/></g><g id="dot-svg" transform="translate(438.6602138643068, 107.0517676767677)"><path d="M6.31892333573487,0A6.31892333573487,6.31892333573487,0,1,1,-6.31892333573487,0A6.31892333573487,6.31892333573487,0,1,1,6.31892333573487,0" style="mix-blend-mode: normal; fill: rgb(29, 129, 162);"/></g><g id="dot-svg" transform="translate(534.6004793510325, 87.48106060606062)"><path d="M6.31892333573487,0A6.31892333573487,6.31892333573487,0,1,1,-6.31892333573487,0A6.31892333573487,6.31892333573487,0,1,1,6.31892333573487,0" style="mix-blend-mode: normal; fill: rgb(29, 129, 162);"/></g><g id="dot-svg" transform="translate(353.37997787610624, 138.36489898989896)"><path d="M6.31892333573487,0A6.31892333573487,6.31892333573487,0,1,1,-6.31892333573487,0A6.31892333573487,6.31892333573487,0,1,1,6.31892333573487,0" style="mix-blend-mode: normal; fill: rgb(29, 129, 162);"/></g><g id="dot-svg" transform="translate(385.3600663716815, 216.64772727272725)"><path d="M6.31892333573487,0A6.31892333573487,6.31892333573487,0,1,1,-6.31892333573487,0A6.31892333573487,6.31892333573487,0,1,1,6.31892333573487,0" style="mix-blend-mode: normal; fill: rgb(29, 129, 162);"/></g><g id="dot-svg" transform="translate(294.7498156342183, 130.53661616161617)"><path d="M6.31892333573487,0A6.31892333573487,6.31892333573487,0,1,1,-6.31892333573487,0A6.31892333573487,6.31892333573487,0,1,1,6.31892333573487,0" style="mix-blend-mode: normal; fill: rgb(29, 129, 162);"/></g><g id="dot-svg" transform="translate(241.44966814159298, 96.28787878787878)"><path d="M6.31892333573487,0A6.31892333573487,6.31892333573487,0,1,1,-6.31892333573487,0A6.31892333573487,6.31892333573487,0,1,1,6.31892333573487,0" style="mix-blend-mode: normal; fill: rgb(29, 129, 162);"/></g><g id="dot-svg" transform="translate(300.07983038348084, 181.4204545454545)"><path d="M6.31892333573487,0A6.31892333573487,6.31892333573487,0,1,1,-6.31892333573487,0A6.31892333573487,6.31892333573487,0,1,1,6.31892333573487,0" style="mix-blend-mode: normal; fill: rgb(29, 129, 162);"/></g><g id="dot-svg" transform="translate(65.5591814159292, 77.69570707070707)"><path d="M6.31892333573487,0A6.31892333573487,6.31892333573487,0,1,1,-6.31892333573487,0A6.31892333573487,6.31892333573487,0,1,1,6.31892333573487,0" style="mix-blend-mode: normal; fill: rgb(29, 129, 162);"/></g><g id="dot-svg" transform="translate(193.4795353982301, 181.4204545454545)"><path d="M6.31892333573487,0A6.31892333573487,6.31892333573487,0,1,1,-6.31892333573487,0A6.31892333573487,6.31892333573487,0,1,1,6.31892333573487,0" style="mix-blend-mode: normal; fill: rgb(29, 129, 162);"/></g><g id="dot-svg" transform="translate(220.1296091445428, 165.7638888888889)"><path d="M6.31892333573487,0A6.31892333573487,6.31892333573487,0,1,1,-6.31892333573487,0A6.31892333573487,6.31892333573487,0,1,1,6.31892333573487,0" style="mix-blend-mode: normal; fill: rgb(29, 129, 162);"/></g><g id="dot-svg" transform="translate(459.9802728613569, 94.33080808080805)"><path d="M6.31892333573487,0A6.31892333573487,6.31892333573487,0,1,1,-6.31892333573487,0A6.31892333573487,6.31892333573487,0,1,1,6.31892333573487,0" style="mix-blend-mode: normal; fill: rgb(29, 129, 162);"/></g><g id="dot-svg" transform="translate(481.30033185840716, 144.2361111111111)"><path d="M6.31892333573487,0A6.31892333573487,6.31892333573487,0,1,1,-6.31892333573487,0A6.31892333573487,6.31892333573487,0,1,1,6.31892333573487,0" style="mix-blend-mode: normal; fill: rgb(29, 129, 162);"/></g><g id="dot-svg" transform="translate(348.0499631268437, 94.33080808080805)"><path d="M6.31892333573487,0A6.31892333573487,6.31892333573487,0,1,1,-6.31892333573487,0A6.31892333573487,6.31892333573487,0,1,1,6.31892333573487,0" style="mix-blend-mode: normal; fill: rgb(29, 129, 162);"/></g><g id="dot-svg" transform="translate(443.9902286135694, 68.88888888888883)"><path d="M6.31892333573487,0A6.31892333573487,6.31892333573487,0,1,1,-6.31892333573487,0A6.31892333573487,6.31892333573487,0,1,1,6.31892333573487,0" style="mix-blend-mode: normal; fill: rgb(29, 129, 162);"/></g><g id="dot-svg" transform="translate(348.0499631268437, 284.16666666666663)"><path d="M6.31892333573487,0A6.31892333573487,6.31892333573487,0,1,1,-6.31892333573487,0A6.31892333573487,6.31892333573487,0,1,1,6.31892333573487,0" style="mix-blend-mode: normal; fill: rgb(199, 30, 29);"/></g><g id="dot-svg" transform="translate(294.7498156342183, 241.1111111111111)"><path d="M6.31892333573487,0A6.31892333573487,6.31892333573487,0,1,1,-6.31892333573487,0A6.31892333573487,6.31892333573487,0,1,1,6.31892333573487,0" style="mix-blend-mode: normal; fill: rgb(199, 30, 29);"/></g></g></g></g><g id="front-svg" clip-path="url(#rect-mask-front-0K6fxHMuy9d-FgLKvvDZ3)" transform="translate(0.00000, 92.87500)"><clipPath id="rect-mask-front-0K6fxHMuy9d-FgLKvvDZ3"><rect x="0" y="0" width="768" height="343"/></clipPath><g id="group-svg" transform="translate(35.25, 10)"><g id="grid-svg"><g id="x-tick-labels-svg grid-x-svg number-axis-svg datawrapper-1X64P-14jwf37-svg" transform="translate(0, 315)"><text transform="translate(33.57909292035396, 14) translate(-3.90625, 0.00000) translate(3.90625, 0)" style="text-anchor: middle;"><tspan fill="rgb(123, 123, 123)" style="font-family: Arial; font-weight: 400; font-size: 14px;" x="0" dominant-baseline="auto" y="0">1</tspan></text><text transform="translate(140.17938790560467, 14) translate(-3.90625, 0.00000) translate(3.90625, 0)" style="text-anchor: middle;"><tspan fill="rgb(123, 123, 123)" style="font-family: Arial; font-weight: 400; font-size: 14px;" x="0" dominant-baseline="auto" y="0">1</tspan></text><text transform="translate(246.7796828908555, 14) translate(-4.00781, 0.00000) translate(4.0078125, 0)" style="text-anchor: middle;"><tspan fill="rgb(123, 123, 123)" style="font-family: Arial; font-weight: 400; font-size: 14px;" x="0" dominant-baseline="auto" y="0">2</tspan></text><text transform="translate(353.37997787610624, 14) translate(-4.00781, 0.00000) translate(4.0078125, 0)" style="text-anchor: middle;"><tspan fill="rgb(123, 123, 123)" style="font-family: Arial; font-weight: 400; font-size: 14px;" x="0" dominant-baseline="auto" y="0">2</tspan></text><text transform="translate(459.9802728613569, 14) translate(-4.00781, 0.00000) translate(4.0078125, 0)" style="text-anchor: middle;"><tspan fill="rgb(123, 123, 123)" style="font-family: Arial; font-weight: 400; font-size: 14px;" x="0" dominant-baseline="auto" y="0">2</tspan></text><text transform="translate(566.5805678466078, 14) translate(-4.00781, 0.00000) translate(4.0078125, 0)" style="text-anchor: middle;"><tspan fill="rgb(123, 123, 123)" style="font-family: Arial; font-weight: 400; font-size: 14px;" x="0" dominant-baseline="auto" y="0">2</tspan></text><text transform="translate(673.1808628318585, 14) translate(-10.12500, 0.00000) translate(10.125, 0)" style="text-anchor: middle;"><tspan fill="rgb(123, 123, 123)" style="font-family: Arial; font-weight: 400; font-size: 14px;" x="0" dominant-baseline="auto" y="0">2%</tspan></text></g><g id="x-base-lines-svg grid-x-svg datawrapper-1X64P-n2qvu0-svg"><line x1="0" x2="0" y1="310" y2="0" transform="translate(0, 0)" style="fill: none; stroke-width: 1; stroke-linejoin: miter; stroke-linecap: square; stroke: rgb(51, 51, 51);"/></g><g id="y-tick-labels-svg grid-y-svg number-axis-svg datawrapper-1X64P-1pv0dev-svg" transform="translate(-5, 0)"><text transform="translate(0, 232.41161616161617) translate(-15.79688, 0.00000) translate(15.796875, 0)" style="text-anchor: end;"><tspan fill="rgb(123, 123, 123)" style="font-family: Arial; font-weight: 400; font-size: 14px;" x="0" dominant-baseline="auto" y="0">50</tspan></text><text transform="translate(0, 134.55808080808077) translate(-15.79688, 0.00000) translate(15.796875, 0)" style="text-anchor: end;"><tspan fill="rgb(123, 123, 123)" style="font-family: Arial; font-weight: 400; font-size: 14px;" x="0" dominant-baseline="auto" y="0">60</tspan></text><text transform="translate(0, 36.70454545454544) translate(-28.03125, 0.00000) translate(28.03125, 0)" style="text-anchor: end;"><tspan fill="rgb(123, 123, 123)" style="font-family: Arial; font-weight: 400; font-size: 14px;" x="0" dominant-baseline="auto" y="0">70%</tspan></text></g><g id="y-base-lines-svg grid-y-svg datawrapper-1X64P-n2qvu0-svg"><line x1="722.75" x2="0" y1="0" y2="0" transform="translate(0, 310)" style="fill: none; stroke-width: 1; stroke-linejoin: miter; stroke-linecap: square; stroke: rgb(51, 51, 51);"/></g></g><path d="M0,125.27204240643118L0.9999999999999823,125.30637126412896L1.9999999999999647,125.34070012182681L2.9999999999999476,125.37502897952459L4.000000000000048,125.40935783722244L5.00000000000003,125.44368669492027L6.000000000000012,125.47801555261805L6.999999999999996,125.5123444103159L7.999999999999978,125.54667326801368L8.999999999999961,125.58100212571154L9.999999999999943,125.61533098340936L11.000000000000043,125.6496598411072L12.000000000000025,125.683988698805L13.000000000000009,125.71831755650285L13.999999999999991,125.75264641420063L14.999999999999973,125.7869752718984L15.999999999999956,125.82130412959629L17.000000000000057,125.85563298729409L18.00000000000004,125.88996184499192L19.00000000000002,125.92429070268972L20.000000000000004,125.95861956038758L20.999999999999986,125.99294841808538L21.999999999999968,126.02727727578323L22.999999999999947,126.061606133481L24.00000000000005,126.09593499117886L25.000000000000036,126.13026384887664L26.000000000000018,126.16459270657452L27,126.19892156427233L27.999999999999982,126.2332504219701L28.999999999999964,126.26757927966796L29.999999999999947,126.30190813736573L31.000000000000043,126.33623699506362L32.00000000000003,126.37056585276142L33.00000000000001,126.40489471045925L33.99999999999999,126.43922356815705L34.99999999999997,126.47355242585488L35.99999999999996,126.50788128355268L37.00000000000006,126.54221014125048L38.00000000000004,126.57653899894834L39.00000000000002,126.61086785664614L40.00000000000001,126.64519671434397L40.99999999999999,126.67952557204177L41.99999999999997,126.71385442973965L42.99999999999996,126.74818328743743L44.00000000000005,126.78251214513529L45.000000000000036,126.81684100283306L46.000000000000014,126.85116986053086L47.00000000000001,126.88549871822875L47.99999999999998,126.91982757592652L48.99999999999997,126.95415643362438L49.99999999999995,126.98848529132215L51.00000000000004,127.02281414902001L52.000000000000036,127.05714300671781L53.00000000000001,127.09147186441567L54,127.12580072211347L54.99999999999997,127.16012957981124L55.999999999999964,127.1944584375091L56.99999999999994,127.22878729520687L58.00000000000005,127.26311615290476L59.00000000000003,127.29744501060253L60.000000000000014,127.33177386830039L60.99999999999999,127.36610272599819L61.99999999999998,127.40043158369602L62.99999999999996,127.43476044139385L64.00000000000006,127.4690892990917L65.00000000000004,127.50341815678948L66.00000000000001,127.53774701448734L67,127.57207587218511L67.99999999999999,127.60640472988294L68.99999999999997,127.6407335875808L69.99999999999994,127.67506244527857L70.99999999999993,127.70939130297643L72.00000000000003,127.7437201606742L73.00000000000001,127.77804901837209L74,127.81237787606986L74.99999999999999,127.84670673376772L75.99999999999996,127.88103559146552L77.00000000000006,127.91536444916329L78.00000000000004,127.94969330686118L79.00000000000003,127.98402216455895L80.00000000000001,128.0183510222568L80.99999999999999,128.05267987995458L81.99999999999999,128.08700873765244L82.99999999999996,128.1213375953502L83.99999999999994,128.1556664530481L85.00000000000004,128.1899953107459L86.00000000000003,128.22432416844367L87,128.25865302614153L88,128.2929818838393L88.99999999999997,128.3273107415372L89.99999999999996,128.361639599235L91.00000000000004,128.39596845693282L92.00000000000003,128.43029731463062L93.00000000000003,128.46462617232848L94.00000000000001,128.49895503002628L94.99999999999997,128.53328388772408L95.99999999999996,128.5676127454219L96.99999999999996,128.6019416031197L98.00000000000006,128.63627046081754L99.00000000000003,128.67059931851537L100.00000000000001,128.70492817621323L101,128.739257033911L101.99999999999997,128.77358589160886L102.99999999999996,128.80791474930663L104.00000000000007,128.8422436070045L105.00000000000006,128.87657246470232L106.00000000000001,128.9109013224001L107.00000000000001,128.94523018009795L108,128.97955903779572L108.99999999999999,129.01388789549358L109.99999999999994,129.0482167531914L110.99999999999994,129.08254561088924L112.00000000000004,129.11687446858704L113.00000000000001,129.15120332628487L114,129.18553218398267L114.99999999999999,129.21986104168056L115.99999999999997,129.25418989937833L116.99999999999994,129.28851875707613L118.00000000000006,129.32284761477396L119.00000000000004,129.35717647247176L120.00000000000003,129.39150533016965L121,129.42583418786742L121.99999999999999,129.46016304556528L122.99999999999997,129.49449190326305L123.99999999999996,129.5288207609609L125.00000000000004,129.56314961865868L126.00000000000003,129.5974784763565L127.00000000000001,129.63180733405437L127.99999999999999,129.66613619175214L128.99999999999997,129.70046504945L129.99999999999997,129.73479390714778L131.00000000000006,129.76912276484566L132.00000000000003,129.80345162254343L133.00000000000003,129.8377804802413L134,129.8721093379391L135,129.90643819563687L135.99999999999997,129.94076705333475L136.99999999999994,129.97509591103253L137.99999999999994,130.00942476873038L139.00000000000003,130.04375362642816L140.00000000000003,130.078082484126L141,130.11241134182384L142,130.1467401995217L142.99999999999997,130.18106905721947L144.00000000000006,130.21539791491733L145.00000000000006,130.2497267726151L146.00000000000003,130.28405563031288L147,130.31838448801076L148,130.35271334570857L148.99999999999997,130.38704220340642L149.99999999999997,130.4213710611042L150.99999999999994,130.45569991880205L152.00000000000006,130.49002877649986L153.00000000000003,130.5243576341977L154,130.5586864918955L155,130.59301534959334L155.99999999999997,130.62734420729115L157.00000000000009,130.66167306498895L158.00000000000006,130.6960019226868L159.00000000000003,130.73033078038458L160.00000000000003,130.76465963808243L161.00000000000003,130.7989884957802L161.99999999999997,130.8333173534781L162.99999999999997,130.8676462111759L163.99999999999997,130.90197506887375L164.99999999999994,130.93630392657153L166.00000000000003,130.9706327842693L167.00000000000003,131.00496164196718L168,131.039290499665L168.99999999999997,131.07361935736282L169.99999999999997,131.10794821506062L170.99999999999994,131.14227707275847L172.00000000000006,131.17660593045625L173.00000000000003,131.21093478815413L174,131.2452636458519L175,131.2795925035497L176,131.31392136124754L176.99999999999994,131.34825021894534L177.99999999999994,131.38257907664322L178.99999999999994,131.416907934341L180.00000000000003,131.45123679203886L181.00000000000003,131.48556564973663L181.99999999999997,131.5198945074345L182.99999999999997,131.55422336513232L183.99999999999994,131.5885522228301L185.00000000000006,131.62288108052795L186.00000000000006,131.65720993822572L187.00000000000003,131.69153879592358L188.00000000000003,131.72586765362138L189,131.76019651131924L189.99999999999994,131.79452536901704L190.99999999999994,131.82885422671487L192.00000000000006,131.86318308441267L193.00000000000003,131.89751194211053L194.00000000000003,131.93184079980833L195,131.96616965750619L196,132.00049851520396L196.99999999999994,132.03482737290176L198.00000000000006,132.0691562305996L199.00000000000003,132.10348508829742L200.00000000000003,132.13781394599528L201.00000000000003,132.17214280369305L202,132.2064716613909L203,132.24080051908868L203.99999999999994,132.27512937678657L204.99999999999991,132.30945823448437L205.99999999999991,132.34378709218214L207.00000000000003,132.37811594988L208,132.41244480757777L209,132.44677366527566L209.99999999999997,132.48110252297343L211.00000000000009,132.5154313806713L212.00000000000003,132.5497602383691L213.00000000000003,132.58408909606692L214.00000000000003,132.61841795376475L215,132.65274681146252L216,132.68707566916038L216.99999999999997,132.72140452685815L217.99999999999997,132.755733384556L218.99999999999991,132.7900622422538L219.9999999999999,132.8243910999517L221,132.85871995764947L222,132.89304881534733L222.99999999999997,132.9273776730451L224.00000000000009,132.96170653074296L225.00000000000009,132.99603538844076L226.00000000000003,133.03036424613856L227,133.06469310383642L228,133.0990219615342L229,133.13335081923205L229.99999999999997,133.16767967692985L230.99999999999997,133.2020085346277L231.99999999999994,133.23633739232548L233.00000000000006,133.27066625002334L234,133.30499510772114L235,133.33932396541903L235.99999999999997,133.3736528231168L236.99999999999997,133.40798168081457L237.99999999999994,133.44231053851243L239.00000000000006,133.4766393962102L240.00000000000006,133.51096825390806L241,133.5452971116059L242,133.57962596930375L242.99999999999997,133.61395482700152L243.99999999999997,133.64828368469938L244.99999999999994,133.68261254239715L246.00000000000006,133.71694140009498L247.00000000000006,133.7512702577928L248.00000000000003,133.7855991154906L248.99999999999997,133.81992797318847L249.99999999999997,133.85425683088624L250.99999999999994,133.88858568858413L251.99999999999994,133.9229145462819L253.00000000000006,133.95724340397976L254.00000000000003,133.99157226167753L255.00000000000003,134.02590111937533L255.99999999999997,134.06022997707322L256.99999999999994,134.094558834771L257.99999999999994,134.12888769246885L259.00000000000006,134.16321655016662L260.00000000000006,134.19754540786448L261.00000000000006,134.23187426556225L262,134.26620312326014L263,134.30053198095794L263.99999999999994,134.33486083865571L264.99999999999994,134.36918969635357L266.00000000000006,134.40351855405135L267.00000000000006,134.43784741174923L268,134.47217626944703L269,134.50650512714486L270,134.54083398484266L270.99999999999994,134.57516284254052L271.99999999999994,134.60949170023832L272.99999999999994,134.6438205579361L273.9999999999999,134.67814941563395L275,134.71247827333175L276,134.74680713102958L277,134.7811359887274L278.00000000000006,134.81546484642527L279.00000000000006,134.84979370412304L280.00000000000006,134.8841225618209L281,134.91845141951868L282,134.95278027721656L283,134.98710913491436L284,135.0214379926122L284.99999999999994,135.05576685031L285.99999999999994,135.09009570800777L286.9999999999999,135.12442456570562L288,135.15875342340343L289,135.19308228110128L290,135.22741113879908L291.0000000000001,135.2617399964969L292.00000000000006,135.29606885419471L293.00000000000006,135.3303977118926L294,135.36472656959037L295,135.39905542728815L296,135.433384284986L297,135.4677131426838L297.99999999999994,135.5020420003817L298.99999999999994,135.53637085807947L299.99999999999994,135.57069971577732L301,135.6050285734751L302,135.63935743117295L303,135.67368628887075L304.0000000000001,135.7080151465686L305.00000000000006,135.7423440042664L306.00000000000006,135.7766728619642L307.00000000000006,135.81100171966204L308,135.84533057735982L309,135.8796594350577L310,135.91398829275548L310.99999999999994,135.94831715045333L311.99999999999994,135.98264600815114L312.99999999999994,136.0169748658489L314.00000000000006,136.0513037235468L315,136.08563258124457L316,136.11996143894243L317.0000000000001,136.1542902966402L318.00000000000006,136.18861915433806L319.00000000000006,136.22294801203589L320.00000000000006,136.25727686973374L321.00000000000006,136.29160572743152L322.00000000000006,136.32593458512937L323,136.36026344282715L323.99999999999994,136.39459230052503L324.99999999999994,136.4289211582228L325.99999999999994,136.4632500159206L326.99999999999994,136.49757887361847L327.99999999999994,136.53190773131624L329,136.5662365890141L329.99999999999994,136.6005654467119L330.99999999999994,136.63489430440976L332.00000000000006,136.66922316210753L333.00000000000006,136.7035520198054L334.00000000000006,136.7378808775032L335.00000000000006,136.772209735201L336,136.80653859289885L337,136.84086745059662L337.99999999999994,136.87519630829448L338.99999999999994,136.90952516599225L339.99999999999994,136.94385402369014L340.9999999999999,136.97818288138794L341.9999999999999,137.01251173908577L343,137.04684059678357L344,137.08116945448134L344.99999999999994,137.11549831217923L346.00000000000006,137.14982716987703L347.00000000000006,137.18415602757486L348,137.21848488527266L349,137.2528137429705L350,137.2871426006683L351,137.32147145836618L352,137.35580031606395L352.99999999999994,137.39012917376175L353.9999999999999,137.42445803145958L355,137.45878688915738L356,137.49311574685527L357,137.52744460455304L358,137.5617734622509L359.0000000000001,137.59610231994867L360.00000000000006,137.63043117764653L361,137.66476003534436L362.00000000000006,137.6990888930422L363.00000000000006,137.73341775074L363.99999999999994,137.76774660843782L364.99999999999994,137.80207546613562L365.99999999999994,137.83640432383342L366.9999999999999,137.87073318153128L367.9999999999999,137.90506203922908L368.9999999999999,137.9393908969269L370.0000000000001,137.9737197546247L371.0000000000001,138.0080486123226L372.0000000000001,138.04237747002037L373.00000000000006,138.07670632771823L374.00000000000006,138.111035185416L375.00000000000006,138.1453640431138L376.00000000000006,138.17969290081163L377,138.21402175850946L378,138.24835061620732L378.99999999999994,138.2826794739051L379.9999999999999,138.31700833160295L380.9999999999999,138.35133718930072L381.9999999999999,138.3856660469986L383.00000000000006,138.4199949046964L384.0000000000001,138.45432376239424L385.0000000000001,138.48865262009204L386.00000000000006,138.5229814777898L387.00000000000006,138.5573103354877L388.00000000000006,138.59163919318547L389.00000000000006,138.62596805088333L390,138.6602969085811L391,138.69462576627896L392,138.7289546239768L393,138.76328348167456L393.9999999999999,138.79761233937242L394.9999999999999,138.8319411970702L396.00000000000006,138.86627005476805L397,138.90059891246582L398,138.9349277701637L399.00000000000006,138.9692566278615L400.00000000000006,139.00358548555937L401.00000000000006,139.03791434325714L402.00000000000006,139.072243200955L403,139.1065720586528L404,139.14090091635066L405,139.17522977404843L406,139.20955863174623L407,139.2438874894441L408.00000000000006,139.2782163471419L409,139.31254520483975L410,139.34687406253752L411,139.38120292023538L412,139.41553177793315L413,139.44986063563104L414.00000000000006,139.48418949332884L415.00000000000006,139.51851835102661L416,139.55284720872447L417,139.58717606642224L418,139.62150492412013L419,139.65583378181793L419.99999999999994,139.69016263951576L421.00000000000006,139.72449149721356L422,139.75882035491142L423,139.7931492126092L424,139.82747807030702L425,139.86180692800485L426,139.89613578570265L426.99999999999994,139.93046464340048L428.00000000000006,139.96479350109828L429,139.99912235879617L430,140.03345121649394L431,140.0677800741918L432,140.10210893188957L432.99999999999994,140.13643778958738L434.00000000000006,140.17076664728526L435,140.20509550498303L436,140.2394243626809L437,140.27375322037867L438,140.30808207807652L439,140.34241093577432L439.99999999999994,140.37673979347218L441.00000000000006,140.41106865116998L442,140.4453975088678L443,140.47972636656561L444,140.5140552242634L445,140.54838408196127L445.99999999999994,140.58271293965905L447.00000000000006,140.6170417973569L448,140.6513706550547L449,140.68569951275254L450,140.72002837045036L451,140.75435722814822L451.99999999999994,140.788686085846L453.00000000000006,140.82301494354385L454,140.85734380124163L455,140.89167265893946L456,140.9260015166373L457,140.9603303743351L458,140.99465923203294L458.99999999999994,141.02898808973072L459.99999999999994,141.0633169474286L460.99999999999994,141.09764580512638L462.00000000000017,141.13197466282423L462.9999999999999,141.16630352052204L464.00000000000017,141.2006323782198L464.9999999999999,141.23496123591767L466.0000000000001,141.26929009361547L467,141.30361895131333L468,141.3379478090111L469,141.37227666670896L470,141.40660552440676L471,141.44093438210464L471.99999999999994,141.47526323980242L472.99999999999994,141.5095920975002L473.99999999999994,141.54392095519805L474.99999999999994,141.57824981289582L475.9999999999999,141.6125786705937L477.0000000000001,141.6469075282915L477.9999999999999,141.68123638598937L479.0000000000001,141.71556524368714L480.0000000000001,141.749894101385L481.0000000000001,141.7842229590828L482,141.81855181678065L483,141.85288067447843L484,141.88720953217623L484.99999999999994,141.9215383898741L485.99999999999994,141.95586724757186L486.99999999999994,141.99019610526975L487.99999999999994,142.02452496296752L488.9999999999999,142.05885382066538L489.9999999999999,142.09318267836315L490.9999999999999,142.127511536061L492.0000000000001,142.16184039375884L493.0000000000001,142.1961692514567L494.0000000000001,142.23049810915447L495.00000000000006,142.26482696685224L496.00000000000006,142.2991558245501L496.99999999999994,142.33348468224793L497.99999999999994,142.36781353994576L498.99999999999994,142.40214239764356L499.99999999999994,142.43647125534142L500.99999999999994,142.4708001130392L501.9999999999999,142.50512897073708L502.9999999999999,142.53945782843485L503.9999999999999,142.57378668613265L505.0000000000001,142.60811554383048L506.0000000000001,142.64244440152828L507.0000000000001,142.67677325922617L508.00000000000006,142.71110211692394L509.00000000000006,142.7454309746218L510.00000000000006,142.77975983231957L511.00000000000006,142.81408869001743L511.99999999999994,142.8484175477152L512.9999999999999,142.88274640541303L513.9999999999999,142.9170752631109L514.9999999999999,142.95140412080866L515.9999999999999,142.98573297850652L516.9999999999999,143.0200618362043L518.0000000000001,143.05439069390218L519.0000000000001,143.08871955159998L520.0000000000001,143.1230484092978L521.0000000000001,143.1573772669956L522.0000000000001,143.19170612469347L523,143.22603498239127L524,143.26036384008904L525,143.2946926977869L526,143.3290215554847L526.9999999999999,143.36335041318253L527.9999999999999,143.39767927088036L528.9999999999999,143.43200812857822L529.9999999999999,143.466336986276L531.0000000000001,143.50066584397385L532.0000000000001,143.53499470167162L533.0000000000001,143.56932355936948L533.9999999999999,143.6036524170673L535.0000000000001,143.63798127476508L535.9999999999998,143.67231013246294L537,143.7066389901607L538,143.74096784785857L539,143.77529670555637L540,143.80962556325423L541,143.84395442095203L541.9999999999999,143.87828327864986L542.9999999999999,143.91261213634766L544.0000000000001,143.94694099404546L544.9999999999999,143.98126985174332L546.0000000000001,144.0155987094411L546.9999999999998,144.04992756713895L548,144.08425642483675L548.9999999999998,144.11858528253464L550,144.1529141402324L551,144.18724299793027L552,144.22157185562804L553,144.25590071332581L554,144.29022957102367L555,144.3245584287215L556,144.35888728641936L557.0000000000001,144.39321614411713L557.9999999999999,144.427545001815L559.0000000000001,144.46187385951276L559.9999999999998,144.49620271721065L561,144.53053157490842L561.9999999999998,144.56486043260622L563,144.59918929030408L564,144.6335181480019L565,144.66784700569974L566,144.7021758633975L567,144.73650472109537L568,144.77083357879314L569,144.805162436491L570.0000000000002,144.83949129418883L570.9999999999999,144.8738201518866L572.0000000000001,144.90814900958446L572.9999999999998,144.94247786728224L574,144.9768067249801L575,145.01113558267787L576,145.04546444037575L577,145.07979329807355L578,145.1141221557714L579,145.14845101346918L580,145.18277987116704L581,145.21710872886484L582,145.2514375865627L583.0000000000002,145.28576644426047L583.9999999999999,145.32009530195828L585.0000000000001,145.3544241596561L585.9999999999999,145.38875301735393L587,145.4230818750518L588,145.45741073274957L589,145.49173959044742L590,145.5260684481452L591,145.56039730584308L592,145.59472616354088L593,145.62905502123866L594,145.66338387893651L595,145.6977127366343L596.0000000000002,145.73204159433217L596.9999999999999,145.76637045202997L598.0000000000001,145.8006993097278L598.9999999999999,145.8350281674256L600.0000000000001,145.86935702512343L601,145.90368588282124L602,145.93801474051904L603,145.9723435982169L604,146.00667245591475L605,146.04100131361253L606,146.07533017131033L607,146.1096590290082L608,146.143987886706L609.0000000000002,146.17831674440384L609.9999999999999,146.21264560210162L611.0000000000001,146.24697445979947L611.9999999999999,146.2813033174973L613.0000000000001,146.31563217519513L614.0000000000001,146.34996103289294L615.0000000000001,146.3842898905907L616,146.41861874828857L617,146.45294760598637L618,146.48727646368422L619,146.52160532138203L620.0000000000002,146.55593417907986L621,146.59026303677766L622.0000000000002,146.6245918944755L622.9999999999999,146.65892075217332L624.0000000000001,146.6932496098711L624.9999999999999,146.72757846756895L626.0000000000001,146.76190732526675L627.0000000000001,146.79623618296458L628.0000000000001,146.8305650406624L629.0000000000001,146.86489389836026L630,146.89922275605804L631,146.9335516137559L632,146.96788047145367L633,147.0022093291515L634,147.03653818684933L635.0000000000002,147.07086704454719L635.9999999999999,147.105195902245L637.0000000000001,147.13952475994276L637.9999999999999,147.17385361764065L639.0000000000001,147.20818247533842L639.9999999999999,147.24251133303628L641.0000000000001,147.27684019073405L642.0000000000001,147.31116904843185L643.0000000000001,147.34549790612974L644.0000000000001,147.3798267638275L645,147.41415562152537L646,147.44848447922314L646.9999999999999,147.482813336921L647.9999999999999,147.51714219461877L648.9999999999999,147.55147105231666L650.0000000000001,147.58579991001446L650.9999999999999,147.62012876771223L652.0000000000001,147.6544576254101L652.9999999999999,147.68878648310786L654.0000000000001,147.72311534080575L654.9999999999999,147.75744419850355L656.0000000000001,147.79177305620138L657.0000000000001,147.82610191389918L658,147.86043077159704L659,147.89475962929484L659.9999999999999,147.9290884869927L660.9999999999999,147.96341734469047L661.9999999999999,147.99774620238833L662.9999999999999,148.0320750600861L663.9999999999999,148.06640391778393L665.0000000000001,148.1007327754818L665.9999999999999,148.13506163317956L667.0000000000001,148.16939049087742L667.9999999999999,148.2037193485752L669.0000000000001,148.23804820627305L669.9999999999998,148.27237706397088L671,148.3067059216687L672,148.3410347793665L673,148.37536363706428L674,148.40969249476214L674.9999999999999,148.44402135245997L675.9999999999999,148.4783502101578L676.9999999999999,148.5126790678556L678.0000000000001,148.54700792555343L678.9999999999999,148.58133678325123L680.0000000000001,148.61566564094912L680.9999999999999,148.6499944986469L682.0000000000001,148.6843233563447L682.9999999999998,148.71865221404252L684,148.75298107174032L685,148.7873099294382L686,148.82163878713598L687,148.85596764483384L688,148.8902965025316L689,148.92462536022947L689.9999999999999,148.95895421792724L691.0000000000001,148.99328307562513L691.9999999999999,149.02761193332293L693.0000000000001,149.06194079102076L693.9999999999999,149.09626964871856L695.0000000000001,149.13059850641633L695.9999999999998,149.16492736411422L697,149.199256221812L698,149.23358507950985L699,149.26791393720765L700,149.30224279490548L701,149.3365716526033L702,149.37090051030117L703,149.40522936799894L704.0000000000001,149.43955822569671L704.9999999999999,149.47388708339457L706.0000000000001,149.5082159410924L706.9999999999999,149.54254479879026L708.0000000000001,149.57687365648803L708.9999999999998,149.6112025141859L710,149.64553137188366L711,149.67986022958155L712,149.71418908727932L713,149.74851794497712L714,149.78284680267498L715,149.81717566037275L716,149.8515045180706L717.0000000000002,149.8858333757684L717.9999999999999,149.92016223346627L719.0000000000001,149.95449109116404L719.9999999999999,149.9888199488619L721.0000000000001,150.0231488065597L721.9999999999998,150.0574776642575" stroke="rgb(51,51,51)" style="mix-blend-mode: normal; fill: none; stroke-width: 1; stroke-linejoin: miter; stroke-linecap: butt; stroke: rgb(51, 51, 51);"/><g id="labels-svg"><g id="label-svg" transform="translate(305, 94.68107666426513)"><g id="AG-svg"><text transform="translate(-10.67969, 0.00000) translate(10.6796875, 0)" style="text-anchor: middle;"><tspan x="0" y="-2.8000000000000007" style="font-family: Arial; font-weight: 400; font-size: 14px; stroke: rgb(255, 255, 255); stroke-width: 5; stroke-linejoin: round; stroke-linecap: round;">AG</tspan></text><text transform="translate(-10.67969, 0.00000) translate(10.6796875, 0)" style="text-anchor: middle;"><tspan fill="rgb(123, 123, 123)" style="font-family: Arial; font-weight: 400; font-size: 14px;" x="0" y="-2.8000000000000007">AG</tspan></text></g></g><g id="label-svg" transform="translate(285.6810766642651, 224)"><g id="AR-svg"><text transform="translate(-20.45313, 0.00000) translate(20.453125, 0)" style="text-anchor: end;"><tspan x="0" y="5.6" style="font-family: Arial; font-weight: 400; font-size: 14px; stroke: rgb(255, 255, 255); stroke-width: 5; stroke-linejoin: round; stroke-linecap: round;">AR</tspan></text><text transform="translate(-20.45313, 0.00000) translate(20.453125, 0)" style="text-anchor: end;"><tspan fill="rgb(123, 123, 123)" style="font-family: Arial; font-weight: 400; font-size: 14px;" x="0" y="5.6">AR</tspan></text></g></g><g id="label-svg" transform="translate(357.3189233357349, 284)"><g id="AI-svg"><text transform="translate(0, 0)"><tspan x="0" y="5.6" style="font-family: Arial; font-weight: 400; font-size: 14px; stroke: rgb(255, 255, 255); stroke-width: 5; stroke-linejoin: round; stroke-linecap: round;">AI</tspan></text><text transform="translate(0, 0)"><tspan fill="rgb(123, 123, 123)" style="font-family: Arial; font-weight: 400; font-size: 14px;" x="0" y="5.6">AI</tspan></text></g></g><g id="label-svg" transform="translate(156, 90.31892333573487)"><g id="BL-svg"><text transform="translate(-8.67188, 0.00000) translate(8.671875, 0)" style="text-anchor: middle;"><tspan x="0" y="14" style="font-family: Arial; font-weight: 400; font-size: 14px; stroke: rgb(255, 255, 255); stroke-width: 5; stroke-linejoin: round; stroke-linecap: round;">BL</tspan></text><text transform="translate(-8.67188, 0.00000) translate(8.671875, 0)" style="text-anchor: middle;"><tspan fill="rgb(123, 123, 123)" style="font-family: Arial; font-weight: 400; font-size: 14px;" x="0" y="14">BL</tspan></text></g></g><g id="label-svg" transform="translate(176.31892333573487, 26)"><g id="BS-svg"><text transform="translate(0, 0)"><tspan x="0" y="5.6" style="font-family: Arial; font-weight: 400; font-size: 14px; stroke: rgb(255, 255, 255); stroke-width: 5; stroke-linejoin: round; stroke-linecap: round;">BS</tspan></text><text transform="translate(0, 0)"><tspan fill="rgb(123, 123, 123)" style="font-family: Arial; font-weight: 400; font-size: 14px;" x="0" y="5.6">BS</tspan></text></g></g><g id="label-svg" transform="translate(455, 114.31892333573487)"><g id="BE-svg"><text transform="translate(-9.34375, 0.00000) translate(9.34375, 0)" style="text-anchor: middle;"><tspan x="0" y="14" style="font-family: Arial; font-weight: 400; font-size: 14px; stroke: rgb(255, 255, 255); stroke-width: 5; stroke-linejoin: round; stroke-linecap: round;">BE</tspan></text><text transform="translate(-9.34375, 0.00000) translate(9.34375, 0)" style="text-anchor: middle;"><tspan fill="rgb(123, 123, 123)" style="font-family: Arial; font-weight: 400; font-size: 14px;" x="0" y="14">BE</tspan></text></g></g><g id="label-svg" transform="translate(586.3189233357349, 114)"><g id="FR-svg"><text transform="translate(0, 0)"><tspan x="0" y="5.6" style="font-family: Arial; font-weight: 400; font-size: 14px; stroke: rgb(255, 255, 255); stroke-width: 5; stroke-linejoin: round; stroke-linecap: round;">FR</tspan></text><text transform="translate(0, 0)"><tspan fill="rgb(123, 123, 123)" style="font-family: Arial; font-weight: 400; font-size: 14px;" x="0" y="5.6">FR</tspan></text></g></g><g id="label-svg" transform="translate(60, 110.31892333573487)"><g id="GE-svg"><text transform="translate(-10.12500, 0.00000) translate(10.125, 0)" style="text-anchor: middle;"><tspan x="0" y="14" style="font-family: Arial; font-weight: 400; font-size: 14px; stroke: rgb(255, 255, 255); stroke-width: 5; stroke-linejoin: round; stroke-linecap: round;">GE</tspan></text><text transform="translate(-10.12500, 0.00000) translate(10.125, 0)" style="text-anchor: middle;"><tspan fill="rgb(123, 123, 123)" style="font-family: Arial; font-weight: 400; font-size: 14px;" x="0" y="14">GE</tspan></text></g></g><g id="label-svg" transform="translate(193, 195.31892333573487)"><g id="GL-svg"><text transform="translate(-9.45313, 0.00000) translate(9.453125, 0)" style="text-anchor: middle;"><tspan x="0" y="14" style="font-family: Arial; font-weight: 400; font-size: 14px; stroke: rgb(255, 255, 255); stroke-width: 5; stroke-linejoin: round; stroke-linecap: round;">GL</tspan></text><text transform="translate(-9.45313, 0.00000) translate(9.453125, 0)" style="text-anchor: middle;"><tspan fill="rgb(123, 123, 123)" style="font-family: Arial; font-weight: 400; font-size: 14px;" x="0" y="14">GL</tspan></text></g></g><g id="label-svg" transform="translate(368.3189233357349, 121)"><g id="GR-svg"><text transform="translate(0, 0)"><tspan x="0" y="5.6" style="font-family: Arial; font-weight: 400; font-size: 14px; stroke: rgb(255, 255, 255); stroke-width: 5; stroke-linejoin: round; stroke-linecap: round;">GR</tspan></text><text transform="translate(0, 0)"><tspan fill="rgb(123, 123, 123)" style="font-family: Arial; font-weight: 400; font-size: 14px;" x="0" y="5.6">GR</tspan></text></g></g><g id="label-svg" transform="translate(663, 190.31892333573487)"><g id="JU-svg"><text transform="translate(-8.56250, 0.00000) translate(8.5625, 0)" style="text-anchor: middle;"><tspan x="0" y="14" style="font-family: Arial; font-weight: 400; font-size: 14px; stroke: rgb(255, 255, 255); stroke-width: 5; stroke-linejoin: round; stroke-linecap: round;">JU</tspan></text><text transform="translate(-8.56250, 0.00000) translate(8.5625, 0)" style="text-anchor: middle;"><tspan fill="rgb(123, 123, 123)" style="font-family: Arial; font-weight: 400; font-size: 14px;" x="0" y="14">JU</tspan></text></g></g><g id="label-svg" transform="translate(429.6810766642651, 107)"><g id="LU-svg"><text transform="translate(-17.90625, 0.00000) translate(17.90625, 0)" style="text-anchor: end;"><tspan x="0" y="5.6" style="font-family: Arial; font-weight: 400; font-size: 14px; stroke: rgb(255, 255, 255); stroke-width: 5; stroke-linejoin: round; stroke-linecap: round;">LU</tspan></text><text transform="translate(-17.90625, 0.00000) translate(17.90625, 0)" style="text-anchor: end;"><tspan fill="rgb(123, 123, 123)" style="font-family: Arial; font-weight: 400; font-size: 14px;" x="0" y="5.6">LU</tspan></text></g></g><g id="label-svg" transform="translate(535, 77.68107666426513)"><g id="NE-svg"><text transform="translate(-9.73438, 0.00000) translate(9.734375, 0)" style="text-anchor: middle;"><tspan x="0" y="-2.8000000000000007" style="font-family: Arial; font-weight: 400; font-size: 14px; stroke: rgb(255, 255, 255); stroke-width: 5; stroke-linejoin: round; stroke-linecap: round;">NE</tspan></text><text transform="translate(-9.73438, 0.00000) translate(9.734375, 0)" style="text-anchor: middle;"><tspan fill="rgb(123, 123, 123)" style="font-family: Arial; font-weight: 400; font-size: 14px;" x="0" y="-2.8000000000000007">NE</tspan></text></g></g><g id="label-svg" transform="translate(353, 147.31892333573487)"><g id="NW-svg"><text transform="translate(-12.06250, 0.00000) translate(12.0625, 0)" style="text-anchor: middle;"><tspan x="0" y="14" style="font-family: Arial; font-weight: 400; font-size: 14px; stroke: rgb(255, 255, 255); stroke-width: 5; stroke-linejoin: round; stroke-linecap: round;">NW</tspan></text><text transform="translate(-12.06250, 0.00000) translate(12.0625, 0)" style="text-anchor: middle;"><tspan fill="rgb(123, 123, 123)" style="font-family: Arial; font-weight: 400; font-size: 14px;" x="0" y="14">NW</tspan></text></g></g><g id="label-svg" transform="translate(394.3189233357349, 217)"><g id="OW-svg"><text transform="translate(0, 0)"><tspan x="0" y="5.6" style="font-family: Arial; font-weight: 400; font-size: 14px; stroke: rgb(255, 255, 255); stroke-width: 5; stroke-linejoin: round; stroke-linecap: round;">OW</tspan></text><text transform="translate(0, 0)"><tspan fill="rgb(123, 123, 123)" style="font-family: Arial; font-weight: 400; font-size: 14px;" x="0" y="5.6">OW</tspan></text></g></g><g id="label-svg" transform="translate(285.6810766642651, 131)"><g id="SH-svg"><text transform="translate(-19.45313, 0.00000) translate(19.453125, 0)" style="text-anchor: end;"><tspan x="0" y="5.6" style="font-family: Arial; font-weight: 400; font-size: 14px; stroke: rgb(255, 255, 255); stroke-width: 5; stroke-linejoin: round; stroke-linecap: round;">SH</tspan></text><text transform="translate(-19.45313, 0.00000) translate(19.453125, 0)" style="text-anchor: end;"><tspan fill="rgb(123, 123, 123)" style="font-family: Arial; font-weight: 400; font-size: 14px;" x="0" y="5.6">SH</tspan></text></g></g><g id="label-svg" transform="translate(285.6810766642651, 241)"><g id="SZ-svg"><text transform="translate(-18.34375, 0.00000) translate(18.34375, 0)" style="text-anchor: end;"><tspan x="0" y="5.6" style="font-family: Arial; font-weight: 400; font-size: 14px; stroke: rgb(255, 255, 255); stroke-width: 5; stroke-linejoin: round; stroke-linecap: round;">SZ</tspan></text><text transform="translate(-18.34375, 0.00000) translate(18.34375, 0)" style="text-anchor: end;"><tspan fill="rgb(123, 123, 123)" style="font-family: Arial; font-weight: 400; font-size: 14px;" x="0" y="5.6">SZ</tspan></text></g></g><g id="label-svg" transform="translate(241, 86.68107666426513)"><g id="SO-svg"><text transform="translate(-10.17969, 0.00000) translate(10.1796875, 0)" style="text-anchor: middle;"><tspan x="0" y="-2.8000000000000007" style="font-family: Arial; font-weight: 400; font-size: 14px; stroke: rgb(255, 255, 255); stroke-width: 5; stroke-linejoin: round; stroke-linecap: round;">SO</tspan></text><text transform="translate(-10.17969, 0.00000) translate(10.1796875, 0)" style="text-anchor: middle;"><tspan fill="rgb(123, 123, 123)" style="font-family: Arial; font-weight: 400; font-size: 14px;" x="0" y="-2.8000000000000007">SO</tspan></text></g></g><g id="label-svg" transform="translate(309.3189233357349, 181)"><g id="SG-svg"><text transform="translate(0, 0)"><tspan x="0" y="5.6" style="font-family: Arial; font-weight: 400; font-size: 14px; stroke: rgb(255, 255, 255); stroke-width: 5; stroke-linejoin: round; stroke-linecap: round;">SG</tspan></text><text transform="translate(0, 0)"><tspan fill="rgb(123, 123, 123)" style="font-family: Arial; font-weight: 400; font-size: 14px;" x="0" y="5.6">SG</tspan></text></g></g><g id="label-svg" transform="translate(66, 68.68107666426513)"><g id="TI-svg"><text transform="translate(-6.23438, 0.00000) translate(6.234375, 0)" style="text-anchor: middle;"><tspan x="0" y="-2.8000000000000007" style="font-family: Arial; font-weight: 400; font-size: 14px; stroke: rgb(255, 255, 255); stroke-width: 5; stroke-linejoin: round; stroke-linecap: round;">TI</tspan></text><text transform="translate(-6.23438, 0.00000) translate(6.234375, 0)" style="text-anchor: middle;"><tspan fill="rgb(123, 123, 123)" style="font-family: Arial; font-weight: 400; font-size: 14px;" x="0" y="-2.8000000000000007">TI</tspan></text></g></g><g id="label-svg" transform="translate(183.68107666426513, 181)"><g id="TG-svg"><text transform="translate(-19.57813, 0.00000) translate(19.578125, 0)" style="text-anchor: end;"><tspan x="0" y="5.6" style="font-family: Arial; font-weight: 400; font-size: 14px; stroke: rgb(255, 255, 255); stroke-width: 5; stroke-linejoin: round; stroke-linecap: round;">TG</tspan></text><text transform="translate(-19.57813, 0.00000) translate(19.578125, 0)" style="text-anchor: end;"><tspan fill="rgb(123, 123, 123)" style="font-family: Arial; font-weight: 400; font-size: 14px;" x="0" y="5.6">TG</tspan></text></g></g><g id="label-svg" transform="translate(229.31892333573487, 166)"><g id="UR-svg"><text transform="translate(0, 0)"><tspan x="0" y="5.6" style="font-family: Arial; font-weight: 400; font-size: 14px; stroke: rgb(255, 255, 255); stroke-width: 5; stroke-linejoin: round; stroke-linecap: round;">UR</tspan></text><text transform="translate(0, 0)"><tspan fill="rgb(123, 123, 123)" style="font-family: Arial; font-weight: 400; font-size: 14px;" x="0" y="5.6">UR</tspan></text></g></g><g id="label-svg" transform="translate(469.3189233357349, 94)"><g id="VD-svg"><text transform="translate(0, 0)"><tspan x="0" y="5.6" style="font-family: Arial; font-weight: 400; font-size: 14px; stroke: rgb(255, 255, 255); stroke-width: 5; stroke-linejoin: round; stroke-linecap: round;">VD</tspan></text><text transform="translate(0, 0)"><tspan fill="rgb(123, 123, 123)" style="font-family: Arial; font-weight: 400; font-size: 14px;" x="0" y="5.6">VD</tspan></text></g></g><g id="label-svg" transform="translate(481, 153.31892333573487)"><g id="VS-svg"><text transform="translate(-9.34375, 0.00000) translate(9.34375, 0)" style="text-anchor: middle;"><tspan x="0" y="14" style="font-family: Arial; font-weight: 400; font-size: 14px; stroke: rgb(255, 255, 255); stroke-width: 5; stroke-linejoin: round; stroke-linecap: round;">VS</tspan></text><text transform="translate(-9.34375, 0.00000) translate(9.34375, 0)" style="text-anchor: middle;"><tspan fill="rgb(123, 123, 123)" style="font-family: Arial; font-weight: 400; font-size: 14px;" x="0" y="14">VS</tspan></text></g></g><g id="label-svg" transform="translate(348, 84.68107666426513)"><g id="ZG-svg"><text transform="translate(-9.78906, 0.00000) translate(9.7890625, 0)" style="text-anchor: middle;"><tspan x="0" y="-2.8000000000000007" style="font-family: Arial; font-weight: 400; font-size: 14px; stroke: rgb(255, 255, 255); stroke-width: 5; stroke-linejoin: round; stroke-linecap: round;">ZG</tspan></text><text transform="translate(-9.78906, 0.00000) translate(9.7890625, 0)" style="text-anchor: middle;"><tspan fill="rgb(123, 123, 123)" style="font-family: Arial; font-weight: 400; font-size: 14px;" x="0" y="-2.8000000000000007">ZG</tspan></text></g></g><g id="label-svg" transform="translate(444, 59.681076664265134)"><g id="ZH-svg"><text transform="translate(-9.34375, 0.00000) translate(9.34375, 0)" style="text-anchor: middle;"><tspan x="0" y="-2.8000000000000007" style="font-family: Arial; font-weight: 400; font-size: 14px; stroke: rgb(255, 255, 255); stroke-width: 5; stroke-linejoin: round; stroke-linecap: round;">ZH</tspan></text><text transform="translate(-9.34375, 0.00000) translate(9.34375, 0)" style="text-anchor: middle;"><tspan fill="rgb(123, 123, 123)" style="font-family: Arial; font-weight: 400; font-size: 14px;" x="0" y="-2.8000000000000007">ZH</tspan></text></g></g></g></g></g><g id="Proportion-svg d'inscriptions-svg dans-svg le-svg registre-svg des-svg donneurs-svg d'organes-svg"><text transform="translate(758, 327.875)" style="text-anchor: end;"><tspan x="0" y="14" style="font-family: Arial; font-weight: 700; font-size: 14px; stroke: rgb(255, 255, 255); stroke-width: 2; stroke-linejoin: round; stroke-linecap: round;">Proportion</tspan><tspan x="0" y="30" style="font-family: Arial; font-weight: 700; font-size: 14px; stroke: rgb(255, 255, 255); stroke-width: 2; stroke-linejoin: round; stroke-linecap: round;">d'inscriptions</tspan><tspan x="0" y="46" style="font-family: Arial; font-weight: 700; font-size: 14px; stroke: rgb(255, 255, 255); stroke-width: 2; stroke-linejoin: round; stroke-linecap: round;">dans le registre</tspan><tspan x="0" y="62" style="font-family: Arial; font-weight: 700; font-size: 14px; stroke: rgb(255, 255, 255); stroke-width: 2; stroke-linejoin: round; stroke-linecap: round;">des donneurs</tspan><tspan x="0" y="78" style="font-family: Arial; font-weight: 700; font-size: 14px; stroke: rgb(255, 255, 255); stroke-width: 2; stroke-linejoin: round; stroke-linecap: round;">d'organes</tspan></text><text transform="translate(758, 327.875)" style="text-anchor: end;"><tspan fill="rgb(123,123,123)" x="0" y="14" style="font-family: Arial; font-weight: 700; font-size: 14px;">Proportion</tspan><tspan fill="rgb(123,123,123)" x="0" y="30" style="font-family: Arial; font-weight: 700; font-size: 14px;">d'inscriptions</tspan><tspan fill="rgb(123,123,123)" x="0" y="46" style="font-family: Arial; font-weight: 700; font-size: 14px;">dans le registre</tspan><tspan fill="rgb(123,123,123)" x="0" y="62" style="font-family: Arial; font-weight: 700; font-size: 14px;">des donneurs</tspan><tspan fill="rgb(123,123,123)" x="0" y="78" style="font-family: Arial; font-weight: 700; font-size: 14px;">d'organes</tspan></text></g><g id="Pourcentage-svg de-svg oui-svg à-svg la-svg loi-svg sur-svg la-svg transplantation-svg"><text transform="translate(40.25, 102.875)"><tspan x="0" y="14" style="font-family: Arial; font-weight: 700; font-size: 14px; stroke: rgb(255, 255, 255); stroke-width: 2; stroke-linejoin: round; stroke-linecap: round;">Pourcentage de ​</tspan><tspan x="0" y="30" style="font-family: Arial; font-weight: 700; font-size: 14px; stroke: rgb(255, 255, 255); stroke-width: 2; stroke-linejoin: round; stroke-linecap: round;">oui à la loi sur la ​</tspan><tspan x="0" y="46" style="font-family: Arial; font-weight: 700; font-size: 14px; stroke: rgb(255, 255, 255); stroke-width: 2; stroke-linejoin: round; stroke-linecap: round;">transplantation</tspan></text><text transform="translate(40.25, 102.875)"><tspan fill="rgb(123,123,123)" x="0" y="14" style="font-family: Arial; font-weight: 700; font-size: 14px;">Pourcentage de ​</tspan><tspan fill="rgb(123,123,123)" x="0" y="30" style="font-family: Arial; font-weight: 700; font-size: 14px;">oui à la loi sur la ​</tspan><tspan fill="rgb(123,123,123)" x="0" y="46" style="font-family: Arial; font-weight: 700; font-size: 14px;">transplantation</tspan></text></g></g><g id="above-footer-svg"><text transform="translate(0, 458.875)"><tspan fill="rgb(51,51,51)" x="0" y="12" style="font-family: Arial; font-weight: 400; font-size: 12px;">Plus un canton se situe ​</tspan><tspan fill="rgb(51,51,51)" style="font-family: Arial; font-weight: 700; font-size: 12px;">à droite</tspan><tspan fill="rgb(51,51,51)" style="font-family: Arial; font-weight: 400; font-size: 12px;">​ sur l’axe horizontal, plus le nombre de personnes vaccinées est élevé.</tspan><tspan fill="rgb(51,51,51)" x="0" y="26" style="font-family: Arial; font-weight: 400; font-size: 12px;">Plus un canton se situe ​</tspan><tspan fill="rgb(51,51,51)" style="font-family: Arial; font-weight: 700; font-size: 12px;">en haut</tspan><tspan fill="rgb(51,51,51)" style="font-family: Arial; font-weight: 400; font-size: 12px;">​ sur l’axe vertical, plus le pourcentage de oui à la Loi Covid-19 est élevé.</tspan><tspan fill="rgb(51,51,51)" x="0" y="40" style="font-family: Arial; font-weight: 400; font-size: 12px;">Le coefficient de détermination R² s’établit à ​</tspan><tspan fill="rgb(51,51,51)" style="font-family: Arial; font-weight: 700; font-size: 12px;">0.91</tspan><tspan fill="rgb(51,51,51)" style="font-family: Arial; font-weight: 400; font-size: 12px;">, et peut atteindre la valeur maximale de 1.</tspan></text></g><g id="footer-svg"><text transform="translate(0, 505.875)"><tspan fill="rgb(136,136,136)" x="0" y="11" style="font-family: Arial; font-weight: 400; font-size: 11px;">Graphique:</tspan><tspan fill="rgb(136,136,136)" style="font-family: Arial; font-weight: 400; font-size: 11px;">​ ​</tspan><tspan fill="rgb(136,136,136)" style="font-family: Arial; font-weight: 400; font-size: 11px;">Keystone-ATS</tspan><tspan fill="rgb(136,136,136)" style="font-family: Arial; font-weight: 400; font-size: 11px;">​ ​</tspan><tspan fill="rgb(136,136,136)" style="font-family: Arial; font-weight: 400; font-size: 11px;">•</tspan><tspan fill="rgb(136,136,136)" style="font-family: Arial; font-weight: 400; font-size: 11px;">​ ​</tspan><tspan fill="rgb(136,136,136)" style="font-family: Arial; font-weight: 400; font-size: 11px;">Source</tspan><tspan fill="rgb(136,136,136)" style="font-family: Arial; font-weight: 400; font-size: 11px;">:</tspan><tspan fill="rgb(136,136,136)" style="font-family: Arial; font-weight: 400; font-size: 11px;">​ ​</tspan><tspan fill="rgb(136,136,136)" style="font-family: Arial; font-weight: 400; font-size: 11px;">Office fédéral de la statistique / Office fédéral de la sante publique</tspan></text></g></g></g></svg>