<svg xmlns="http://www.w3.org/2000/svg" xmlns:xlink="http://www.w3.org/1999/xlink" id="exportSvg" width="768" height="525"><defs/><rect width="768" height="525" transform="translate(0, 0)" fill="#FFFFFF" style="fill: rgb(255, 255, 255);"/><g><g id="__svelte-dw-svg" clip-path="url(#rect-mask-__svelte-dw-dW4s7OFYmu3W7bQVZE3nT)"><clipPath id="rect-mask-__svelte-dw-dW4s7OFYmu3W7bQVZE3nT"><rect x="0" y="0" width="768" height="517.875"/></clipPath><g id="header-svg"><text transform="translate(0, 0)"><tspan fill="rgb(51,51,51)" x="0" y="22" style="font-family: Arial; font-weight: 700; font-size: 22px;">Plus il y a d'inscriptions volontaires au registre des donneurs d'organes,</tspan><tspan fill="rgb(51,51,51)" x="0" y="48" style="font-family: Arial; font-weight: 700; font-size: 22px;">plus l'approbation de la loi sur la transplantation est forte</tspan></text><text transform="translate(0, 57)"><tspan fill="rgb(51,51,51)" x="0" y="14" style="font-family: Arial; font-weight: 400; font-size: 14px;">La ligne de tendance noire montre le lien positif significatif entre le nombre d'inscriptions au registre national des donneurs</tspan><tspan fill="rgb(51,51,51)" x="0" y="31" style="font-family: Arial; font-weight: 400; font-size: 14px;">d'organes et la proportion de "oui" à la loi sur la transplantation le 15 mai 2022.</tspan></text></g><g id="chart-svg"><text transform="translate(0, 107)" id="#1d81a2"><tspan fill="rgb(51,51,51)" x="17" y="14.875" style="font-family: Arial; font-weight: 400; font-size: 14px;">Loi</tspan><tspan fill="rgb(51,51,51)" style="font-family: Arial; font-weight: 400; font-size: 14px;">​ acceptée</tspan></text><circle r="7" cx="7" cy="116.375" fill="rgb(29,129,162)"/><text transform="translate(106.40625, 107)" id="#c71e1d"><tspan fill="rgb(51,51,51)" x="17" y="14.875" style="font-family: Arial; font-weight: 400; font-size: 14px;">loi</tspan><tspan fill="rgb(51,51,51)" style="font-family: Arial; font-weight: 400; font-size: 14px;">​ refusée</tspan></text><circle r="7" cx="113.40625" cy="116.375" fill="rgb(199,30,29)"/><g id="group-svg" clip-path="url(#rect-mask-group-JAkaZ-Lut3LguXKMsk3WH)" transform="translate(0.00000, 135.87500)"><clipPath id="rect-mask-group-JAkaZ-Lut3LguXKMsk3WH"><rect x="0" y="0" width="768" height="288"/></clipPath><g id="group-svg" transform="translate(35.25, 10)"><g id="grid-svg"><g id="x-grid-lines-svg grid-x-svg datawrapper-1X64P-1l9st31-svg"><line x1="0" x2="0" y1="255" y2="0" transform="translate(33.57909292035396, 0)" style="fill: none; stroke-width: 1; stroke-linejoin: miter; stroke-linecap: butt; stroke: rgb(232, 232, 232);"/><line x1="0" x2="0" y1="255" y2="0" transform="translate(140.17938790560467, 0)" style="fill: none; stroke-width: 1; stroke-linejoin: miter; stroke-linecap: butt; stroke: rgb(232, 232, 232);"/><line x1="0" x2="0" y1="255" y2="0" transform="translate(246.7796828908555, 0)" style="fill: none; stroke-width: 1; stroke-linejoin: miter; stroke-linecap: butt; stroke: rgb(232, 232, 232);"/><line x1="0" x2="0" y1="255" y2="0" transform="translate(353.37997787610624, 0)" style="fill: none; stroke-width: 1; stroke-linejoin: miter; stroke-linecap: butt; stroke: rgb(232, 232, 232);"/><line x1="0" x2="0" y1="255" y2="0" transform="translate(459.9802728613569, 0)" style="fill: none; stroke-width: 1; stroke-linejoin: miter; stroke-linecap: butt; stroke: rgb(232, 232, 232);"/><line x1="0" x2="0" y1="255" y2="0" transform="translate(566.5805678466078, 0)" style="fill: none; stroke-width: 1; stroke-linejoin: miter; stroke-linecap: butt; stroke: rgb(232, 232, 232);"/><line x1="0" x2="0" y1="255" y2="0" transform="translate(673.1808628318585, 0)" style="fill: none; stroke-width: 1; stroke-linejoin: miter; stroke-linecap: butt; stroke: rgb(232, 232, 232);"/></g><g id="y-grid-lines-svg grid-y-svg datawrapper-1X64P-1l9st31-svg"><line x1="0" x2="722.75" y1="0" y2="0" transform="translate(0, 187.06439393939394)" style="fill: none; stroke-width: 1; stroke-linejoin: miter; stroke-linecap: butt; stroke: rgb(232, 232, 232);"/><line x1="0" x2="722.75" y1="0" y2="0" transform="translate(0, 106.57196969696966)" style="fill: none; stroke-width: 1; stroke-linejoin: miter; stroke-linecap: butt; stroke: rgb(232, 232, 232);"/><line x1="0" x2="722.75" y1="0" y2="0" transform="translate(0, 26.07954545454544)" style="fill: none; stroke-width: 1; stroke-linejoin: miter; stroke-linecap: butt; stroke: rgb(232, 232, 232);"/></g></g><g id="lines-svg"><path d="M0,187.06439393939394L0.9999999999999823,187.06439393939394,1.9999999999999647,187.06439393939394,2.9999999999999476,187.06439393939394,4.000000000000048,187.06439393939394,5.00000000000003,187.06439393939394,6.000000000000012,187.06439393939394,6.999999999999996,187.06439393939394,7.999999999999978,187.06439393939394,8.999999999999961,187.06439393939394,9.999999999999943,187.06439393939394,11.000000000000043,187.06439393939394,12.000000000000025,187.06439393939394,13.000000000000009,187.06439393939394,13.999999999999991,187.06439393939394,14.999999999999973,187.06439393939394,15.999999999999956,187.06439393939394,17.000000000000057,187.06439393939394,18.00000000000004,187.06439393939394,19.00000000000002,187.06439393939394,20.000000000000004,187.06439393939394,20.999999999999986,187.06439393939394,21.999999999999968,187.06439393939394,22.999999999999947,187.06439393939394,24.00000000000005,187.06439393939394,25.000000000000036,187.06439393939394,26.000000000000018,187.06439393939394,27,187.06439393939394,27.999999999999982,187.06439393939394,28.999999999999964,187.06439393939394,29.999999999999947,187.06439393939394,31.000000000000043,187.06439393939394,32.00000000000003,187.06439393939394,33.00000000000001,187.06439393939394,33.99999999999999,187.06439393939394,34.99999999999997,187.06439393939394,35.99999999999996,187.06439393939394,37.00000000000006,187.06439393939394,38.00000000000004,187.06439393939394,39.00000000000002,187.06439393939394,40.00000000000001,187.06439393939394,40.99999999999999,187.06439393939394,41.99999999999997,187.06439393939394,42.99999999999996,187.06439393939394,44.00000000000005,187.06439393939394,45.000000000000036,187.06439393939394,46.000000000000014,187.06439393939394,47.00000000000001,187.06439393939394,47.99999999999998,187.06439393939394,48.99999999999997,187.06439393939394,49.99999999999995,187.06439393939394,51.00000000000004,187.06439393939394,52.000000000000036,187.06439393939394,53.00000000000001,187.06439393939394,54,187.06439393939394,54.99999999999997,187.06439393939394,55.999999999999964,187.06439393939394,56.99999999999994,187.06439393939394,58.00000000000005,187.06439393939394,59.00000000000003,187.06439393939394,60.000000000000014,187.06439393939394,60.99999999999999,187.06439393939394,61.99999999999998,187.06439393939394,62.99999999999996,187.06439393939394,64.00000000000006,187.06439393939394,65.00000000000004,187.06439393939394,66.00000000000001,187.06439393939394,67,187.06439393939394,67.99999999999999,187.06439393939394,68.99999999999997,187.06439393939394,69.99999999999994,187.06439393939394,70.99999999999993,187.06439393939394,72.00000000000003,187.06439393939394,73.00000000000001,187.06439393939394,74,187.06439393939394,74.99999999999999,187.06439393939394,75.99999999999996,187.06439393939394,77.00000000000006,187.06439393939394,78.00000000000004,187.06439393939394,79.00000000000003,187.06439393939394,80.00000000000001,187.06439393939394,80.99999999999999,187.06439393939394,81.99999999999999,187.06439393939394,82.99999999999996,187.06439393939394,83.99999999999994,187.06439393939394,85.00000000000004,187.06439393939394,86.00000000000003,187.06439393939394,87,187.06439393939394,88,187.06439393939394,88.99999999999997,187.06439393939394,89.99999999999996,187.06439393939394,91.00000000000004,187.06439393939394,92.00000000000003,187.06439393939394,93.00000000000003,187.06439393939394,94.00000000000001,187.06439393939394,94.99999999999997,187.06439393939394,95.99999999999996,187.06439393939394,96.99999999999996,187.06439393939394,98.00000000000006,187.06439393939394,99.00000000000003,187.06439393939394,100.00000000000001,187.06439393939394,101,187.06439393939394,101.99999999999997,187.06439393939394,102.99999999999996,187.06439393939394,104.00000000000007,187.06439393939394,105.00000000000006,187.06439393939394,106.00000000000001,187.06439393939394,107.00000000000001,187.06439393939394,108,187.06439393939394,108.99999999999999,187.06439393939394,109.99999999999994,187.06439393939394,110.99999999999994,187.06439393939394,112.00000000000004,187.06439393939394,113.00000000000001,187.06439393939394,114,187.06439393939394,114.99999999999999,187.06439393939394,115.99999999999997,187.06439393939394,116.99999999999994,187.06439393939394,118.00000000000006,187.06439393939394,119.00000000000004,187.06439393939394,120.00000000000003,187.06439393939394,121,187.06439393939394,121.99999999999999,187.06439393939394,122.99999999999997,187.06439393939394,123.99999999999996,187.06439393939394,125.00000000000004,187.06439393939394,126.00000000000003,187.06439393939394,127.00000000000001,187.06439393939394,127.99999999999999,187.06439393939394,128.99999999999997,187.06439393939394,129.99999999999997,187.06439393939394,131.00000000000006,187.06439393939394,132.00000000000003,187.06439393939394,133.00000000000003,187.06439393939394,134,187.06439393939394,135,187.06439393939394,135.99999999999997,187.06439393939394,136.99999999999994,187.06439393939394,137.99999999999994,187.06439393939394,139.00000000000003,187.06439393939394,140.00000000000003,187.06439393939394,141,187.06439393939394,142,187.06439393939394,142.99999999999997,187.06439393939394,144.00000000000006,187.06439393939394,145.00000000000006,187.06439393939394,146.00000000000003,187.06439393939394,147,187.06439393939394,148,187.06439393939394,148.99999999999997,187.06439393939394,149.99999999999997,187.06439393939394,150.99999999999994,187.06439393939394,152.00000000000006,187.06439393939394,153.00000000000003,187.06439393939394,154,187.06439393939394,155,187.06439393939394,155.99999999999997,187.06439393939394,157.00000000000009,187.06439393939394,158.00000000000006,187.06439393939394,159.00000000000003,187.06439393939394,160.00000000000003,187.06439393939394,161.00000000000003,187.06439393939394,161.99999999999997,187.06439393939394,162.99999999999997,187.06439393939394,163.99999999999997,187.06439393939394,164.99999999999994,187.06439393939394,166.00000000000003,187.06439393939394,167.00000000000003,187.06439393939394,168,187.06439393939394,168.99999999999997,187.06439393939394,169.99999999999997,187.06439393939394,170.99999999999994,187.06439393939394,172.00000000000006,187.06439393939394,173.00000000000003,187.06439393939394,174,187.06439393939394,175,187.06439393939394,176,187.06439393939394,176.99999999999994,187.06439393939394,177.99999999999994,187.06439393939394,178.99999999999994,187.06439393939394,180.00000000000003,187.06439393939394,181.00000000000003,187.06439393939394,181.99999999999997,187.06439393939394,182.99999999999997,187.06439393939394,183.99999999999994,187.06439393939394,185.00000000000006,187.06439393939394,186.00000000000006,187.06439393939394,187.00000000000003,187.06439393939394,188.00000000000003,187.06439393939394,189,187.06439393939394,189.99999999999994,187.06439393939394,190.99999999999994,187.06439393939394,192.00000000000006,187.06439393939394,193.00000000000003,187.06439393939394,194.00000000000003,187.06439393939394,195,187.06439393939394,196,187.06439393939394,196.99999999999994,187.06439393939394,198.00000000000006,187.06439393939394,199.00000000000003,187.06439393939394,200.00000000000003,187.06439393939394,201.00000000000003,187.06439393939394,202,187.06439393939394,203,187.06439393939394,203.99999999999994,187.06439393939394,204.99999999999991,187.06439393939394,205.99999999999991,187.06439393939394,207.00000000000003,187.06439393939394,208,187.06439393939394,209,187.06439393939394,209.99999999999997,187.06439393939394,211.00000000000009,187.06439393939394,212.00000000000003,187.06439393939394,213.00000000000003,187.06439393939394,214.00000000000003,187.06439393939394,215,187.06439393939394,216,187.06439393939394,216.99999999999997,187.06439393939394,217.99999999999997,187.06439393939394,218.99999999999991,187.06439393939394,219.9999999999999,187.06439393939394,221,187.06439393939394,222,187.06439393939394,222.99999999999997,187.06439393939394,224.00000000000009,187.06439393939394,225.00000000000009,187.06439393939394,226.00000000000003,187.06439393939394,227,187.06439393939394,228,187.06439393939394,229,187.06439393939394,229.99999999999997,187.06439393939394,230.99999999999997,187.06439393939394,231.99999999999994,187.06439393939394,233.00000000000006,187.06439393939394,234,187.06439393939394,235,187.06439393939394,235.99999999999997,187.06439393939394,236.99999999999997,187.06439393939394,237.99999999999994,187.06439393939394,239.00000000000006,187.06439393939394,240.00000000000006,187.06439393939394,241,187.06439393939394,242,187.06439393939394,242.99999999999997,187.06439393939394,243.99999999999997,187.06439393939394,244.99999999999994,187.06439393939394,246.00000000000006,187.06439393939394,247.00000000000006,187.06439393939394,248.00000000000003,187.06439393939394,248.99999999999997,187.06439393939394,249.99999999999997,187.06439393939394,250.99999999999994,187.06439393939394,251.99999999999994,187.06439393939394,253.00000000000006,187.06439393939394,254.00000000000003,187.06439393939394,255.00000000000003,187.06439393939394,255.99999999999997,187.06439393939394,256.99999999999994,187.06439393939394,257.99999999999994,187.06439393939394,259.00000000000006,187.06439393939394,260.00000000000006,187.06439393939394,261.00000000000006,187.06439393939394,262,187.06439393939394,263,187.06439393939394,263.99999999999994,187.06439393939394,264.99999999999994,187.06439393939394,266.00000000000006,187.06439393939394,267.00000000000006,187.06439393939394,268,187.06439393939394,269,187.06439393939394,270,187.06439393939394,270.99999999999994,187.06439393939394,271.99999999999994,187.06439393939394,272.99999999999994,187.06439393939394,273.9999999999999,187.06439393939394,275,187.06439393939394,276,187.06439393939394,277,187.06439393939394,278.00000000000006,187.06439393939394,279.00000000000006,187.06439393939394,280.00000000000006,187.06439393939394,281,187.06439393939394,282,187.06439393939394,283,187.06439393939394,284,187.06439393939394,284.99999999999994,187.06439393939394,285.99999999999994,187.06439393939394,286.9999999999999,187.06439393939394,288,187.06439393939394,289,187.06439393939394,290,187.06439393939394,291.0000000000001,187.06439393939394,292.00000000000006,187.06439393939394,293.00000000000006,187.06439393939394,294,187.06439393939394,295,187.06439393939394,296,187.06439393939394,297,187.06439393939394,297.99999999999994,187.06439393939394,298.99999999999994,187.06439393939394,299.99999999999994,187.06439393939394,301,187.06439393939394,302,187.06439393939394,303,187.06439393939394,304.0000000000001,187.06439393939394,305.00000000000006,187.06439393939394,306.00000000000006,187.06439393939394,307.00000000000006,187.06439393939394,308,187.06439393939394,309,187.06439393939394,310,187.06439393939394,310.99999999999994,187.06439393939394,311.99999999999994,187.06439393939394,312.99999999999994,187.06439393939394,314.00000000000006,187.06439393939394,315,187.06439393939394,316,187.06439393939394,317.0000000000001,187.06439393939394,318.00000000000006,187.06439393939394,319.00000000000006,187.06439393939394,320.00000000000006,187.06439393939394,321.00000000000006,187.06439393939394,322.00000000000006,187.06439393939394,323,187.06439393939394,323.99999999999994,187.06439393939394,324.99999999999994,187.06439393939394,325.99999999999994,187.06439393939394,326.99999999999994,187.06439393939394,327.99999999999994,187.06439393939394,329,187.06439393939394,329.99999999999994,187.06439393939394,330.99999999999994,187.06439393939394,332.00000000000006,187.06439393939394,333.00000000000006,187.06439393939394,334.00000000000006,187.06439393939394,335.00000000000006,187.06439393939394,336,187.06439393939394,337,187.06439393939394,337.99999999999994,187.06439393939394,338.99999999999994,187.06439393939394,339.99999999999994,187.06439393939394,340.9999999999999,187.06439393939394,341.9999999999999,187.06439393939394,343,187.06439393939394,344,187.06439393939394,344.99999999999994,187.06439393939394,346.00000000000006,187.06439393939394,347.00000000000006,187.06439393939394,348,187.06439393939394,349,187.06439393939394,350,187.06439393939394,351,187.06439393939394,352,187.06439393939394,352.99999999999994,187.06439393939394,353.9999999999999,187.06439393939394,355,187.06439393939394,356,187.06439393939394,357,187.06439393939394,358,187.06439393939394,359.0000000000001,187.06439393939394,360.00000000000006,187.06439393939394,361,187.06439393939394,362.00000000000006,187.06439393939394,363.00000000000006,187.06439393939394,363.99999999999994,187.06439393939394,364.99999999999994,187.06439393939394,365.99999999999994,187.06439393939394,366.9999999999999,187.06439393939394,367.9999999999999,187.06439393939394,368.9999999999999,187.06439393939394,370.0000000000001,187.06439393939394,371.0000000000001,187.06439393939394,372.0000000000001,187.06439393939394,373.00000000000006,187.06439393939394,374.00000000000006,187.06439393939394,375.00000000000006,187.06439393939394,376.00000000000006,187.06439393939394,377,187.06439393939394,378,187.06439393939394,378.99999999999994,187.06439393939394,379.9999999999999,187.06439393939394,380.9999999999999,187.06439393939394,381.9999999999999,187.06439393939394,383.00000000000006,187.06439393939394,384.0000000000001,187.06439393939394,385.0000000000001,187.06439393939394,386.00000000000006,187.06439393939394,387.00000000000006,187.06439393939394,388.00000000000006,187.06439393939394,389.00000000000006,187.06439393939394,390,187.06439393939394,391,187.06439393939394,392,187.06439393939394,393,187.06439393939394,393.9999999999999,187.06439393939394,394.9999999999999,187.06439393939394,396.00000000000006,187.06439393939394,397,187.06439393939394,398,187.06439393939394,399.00000000000006,187.06439393939394,400.00000000000006,187.06439393939394,401.00000000000006,187.06439393939394,402.00000000000006,187.06439393939394,403,187.06439393939394,404,187.06439393939394,405,187.06439393939394,406,187.06439393939394,407,187.06439393939394,408.00000000000006,187.06439393939394,409,187.06439393939394,410,187.06439393939394,411,187.06439393939394,412,187.06439393939394,413,187.06439393939394,414.00000000000006,187.06439393939394,415.00000000000006,187.06439393939394,416,187.06439393939394,417,187.06439393939394,418,187.06439393939394,419,187.06439393939394,419.99999999999994,187.06439393939394,421.00000000000006,187.06439393939394,422,187.06439393939394,423,187.06439393939394,424,187.06439393939394,425,187.06439393939394,426,187.06439393939394,426.99999999999994,187.06439393939394,428.00000000000006,187.06439393939394,429,187.06439393939394,430,187.06439393939394,431,187.06439393939394,432,187.06439393939394,432.99999999999994,187.06439393939394,434.00000000000006,187.06439393939394,435,187.06439393939394,436,187.06439393939394,437,187.06439393939394,438,187.06439393939394,439,187.06439393939394,439.99999999999994,187.06439393939394,441.00000000000006,187.06439393939394,442,187.06439393939394,443,187.06439393939394,444,187.06439393939394,445,187.06439393939394,445.99999999999994,187.06439393939394,447.00000000000006,187.06439393939394,448,187.06439393939394,449,187.06439393939394,450,187.06439393939394,451,187.06439393939394,451.99999999999994,187.06439393939394,453.00000000000006,187.06439393939394,454,187.06439393939394,455,187.06439393939394,456,187.06439393939394,457,187.06439393939394,458,187.06439393939394,458.99999999999994,187.06439393939394,459.99999999999994,187.06439393939394,460.99999999999994,187.06439393939394,462.00000000000017,187.06439393939394,462.9999999999999,187.06439393939394,464.00000000000017,187.06439393939394,464.9999999999999,187.06439393939394,466.0000000000001,187.06439393939394,467,187.06439393939394,468,187.06439393939394,469,187.06439393939394,470,187.06439393939394,471,187.06439393939394,471.99999999999994,187.06439393939394,472.99999999999994,187.06439393939394,473.99999999999994,187.06439393939394,474.99999999999994,187.06439393939394,475.9999999999999,187.06439393939394,477.0000000000001,187.06439393939394,477.9999999999999,187.06439393939394,479.0000000000001,187.06439393939394,480.0000000000001,187.06439393939394,481.0000000000001,187.06439393939394,482,187.06439393939394,483,187.06439393939394,484,187.06439393939394,484.99999999999994,187.06439393939394,485.99999999999994,187.06439393939394,486.99999999999994,187.06439393939394,487.99999999999994,187.06439393939394,488.9999999999999,187.06439393939394,489.9999999999999,187.06439393939394,490.9999999999999,187.06439393939394,492.0000000000001,187.06439393939394,493.0000000000001,187.06439393939394,494.0000000000001,187.06439393939394,495.00000000000006,187.06439393939394,496.00000000000006,187.06439393939394,496.99999999999994,187.06439393939394,497.99999999999994,187.06439393939394,498.99999999999994,187.06439393939394,499.99999999999994,187.06439393939394,500.99999999999994,187.06439393939394,501.9999999999999,187.06439393939394,502.9999999999999,187.06439393939394,503.9999999999999,187.06439393939394,505.0000000000001,187.06439393939394,506.0000000000001,187.06439393939394,507.0000000000001,187.06439393939394,508.00000000000006,187.06439393939394,509.00000000000006,187.06439393939394,510.00000000000006,187.06439393939394,511.00000000000006,187.06439393939394,511.99999999999994,187.06439393939394,512.9999999999999,187.06439393939394,513.9999999999999,187.06439393939394,514.9999999999999,187.06439393939394,515.9999999999999,187.06439393939394,516.9999999999999,187.06439393939394,518.0000000000001,187.06439393939394,519.0000000000001,187.06439393939394,520.0000000000001,187.06439393939394,521.0000000000001,187.06439393939394,522.0000000000001,187.06439393939394,523,187.06439393939394,524,187.06439393939394,525,187.06439393939394,526,187.06439393939394,526.9999999999999,187.06439393939394,527.9999999999999,187.06439393939394,528.9999999999999,187.06439393939394,529.9999999999999,187.06439393939394,531.0000000000001,187.06439393939394,532.0000000000001,187.06439393939394,533.0000000000001,187.06439393939394,533.9999999999999,187.06439393939394,535.0000000000001,187.06439393939394,535.9999999999998,187.06439393939394,537,187.06439393939394,538,187.06439393939394,539,187.06439393939394,540,187.06439393939394,541,187.06439393939394,541.9999999999999,187.06439393939394,542.9999999999999,187.06439393939394,544.0000000000001,187.06439393939394,544.9999999999999,187.06439393939394,546.0000000000001,187.06439393939394,546.9999999999998,187.06439393939394,548,187.06439393939394,548.9999999999998,187.06439393939394,550,187.06439393939394,551,187.06439393939394,552,187.06439393939394,553,187.06439393939394,554,187.06439393939394,555,187.06439393939394,556,187.06439393939394,557.0000000000001,187.06439393939394,557.9999999999999,187.06439393939394,559.0000000000001,187.06439393939394,559.9999999999998,187.06439393939394,561,187.06439393939394,561.9999999999998,187.06439393939394,563,187.06439393939394,564,187.06439393939394,565,187.06439393939394,566,187.06439393939394,567,187.06439393939394,568,187.06439393939394,569,187.06439393939394,570.0000000000002,187.06439393939394,570.9999999999999,187.06439393939394,572.0000000000001,187.06439393939394,572.9999999999998,187.06439393939394,574,187.06439393939394,575,187.06439393939394,576,187.06439393939394,577,187.06439393939394,578,187.06439393939394,579,187.06439393939394,580,187.06439393939394,581,187.06439393939394,582,187.06439393939394,583.0000000000002,187.06439393939394,583.9999999999999,187.06439393939394,585.0000000000001,187.06439393939394,585.9999999999999,187.06439393939394,587,187.06439393939394,588,187.06439393939394,589,187.06439393939394,590,187.06439393939394,591,187.06439393939394,592,187.06439393939394,593,187.06439393939394,594,187.06439393939394,595,187.06439393939394,596.0000000000002,187.06439393939394,596.9999999999999,187.06439393939394,598.0000000000001,187.06439393939394,598.9999999999999,187.06439393939394,600.0000000000001,187.06439393939394,601,187.06439393939394,602,187.06439393939394,603,187.06439393939394,604,187.06439393939394,605,187.06439393939394,606,187.06439393939394,607,187.06439393939394,608,187.06439393939394,609.0000000000002,187.06439393939394,609.9999999999999,187.06439393939394,611.0000000000001,187.06439393939394,611.9999999999999,187.06439393939394,613.0000000000001,187.06439393939394,614.0000000000001,187.06439393939394,615.0000000000001,187.06439393939394,616,187.06439393939394,617,187.06439393939394,618,187.06439393939394,619,187.06439393939394,620.0000000000002,187.06439393939394,621,187.06439393939394,622.0000000000002,187.06439393939394,622.9999999999999,187.06439393939394,624.0000000000001,187.06439393939394,624.9999999999999,187.06439393939394,626.0000000000001,187.06439393939394,627.0000000000001,187.06439393939394,628.0000000000001,187.06439393939394,629.0000000000001,187.06439393939394,630,187.06439393939394,631,187.06439393939394,632,187.06439393939394,633,187.06439393939394,634,187.06439393939394,635.0000000000002,187.06439393939394,635.9999999999999,187.06439393939394,637.0000000000001,187.06439393939394,637.9999999999999,187.06439393939394,639.0000000000001,187.06439393939394,639.9999999999999,187.06439393939394,641.0000000000001,187.06439393939394,642.0000000000001,187.06439393939394,643.0000000000001,187.06439393939394,644.0000000000001,187.06439393939394,645,187.06439393939394,646,187.06439393939394,646.9999999999999,187.06439393939394,647.9999999999999,187.06439393939394,648.9999999999999,187.06439393939394,650.0000000000001,187.06439393939394,650.9999999999999,187.06439393939394,652.0000000000001,187.06439393939394,652.9999999999999,187.06439393939394,654.0000000000001,187.06439393939394,654.9999999999999,187.06439393939394,656.0000000000001,187.06439393939394,657.0000000000001,187.06439393939394,658,187.06439393939394,659,187.06439393939394,659.9999999999999,187.06439393939394,660.9999999999999,187.06439393939394,661.9999999999999,187.06439393939394,662.9999999999999,187.06439393939394,663.9999999999999,187.06439393939394,665.0000000000001,187.06439393939394,665.9999999999999,187.06439393939394,667.0000000000001,187.06439393939394,667.9999999999999,187.06439393939394,669.0000000000001,187.06439393939394,669.9999999999998,187.06439393939394,671,187.06439393939394,672,187.06439393939394,673,187.06439393939394,674,187.06439393939394,674.9999999999999,187.06439393939394,675.9999999999999,187.06439393939394,676.9999999999999,187.06439393939394,678.0000000000001,187.06439393939394,678.9999999999999,187.06439393939394,680.0000000000001,187.06439393939394,680.9999999999999,187.06439393939394,682.0000000000001,187.06439393939394,682.9999999999998,187.06439393939394,684,187.06439393939394,685,187.06439393939394,686,187.06439393939394,687,187.06439393939394,688,187.06439393939394,689,187.06439393939394,689.9999999999999,187.06439393939394,691.0000000000001,187.06439393939394,691.9999999999999,187.06439393939394,693.0000000000001,187.06439393939394,693.9999999999999,187.06439393939394,695.0000000000001,187.06439393939394,695.9999999999998,187.06439393939394,697,187.06439393939394,698,187.06439393939394,699,187.06439393939394,700,187.06439393939394,701,187.06439393939394,702,187.06439393939394,703,187.06439393939394,704.0000000000001,187.06439393939394,704.9999999999999,187.06439393939394,706.0000000000001,187.06439393939394,706.9999999999999,187.06439393939394,708.0000000000001,187.06439393939394,708.9999999999998,187.06439393939394,710,187.06439393939394,711,187.06439393939394,712,187.06439393939394,713,187.06439393939394,714,187.06439393939394,715,187.06439393939394,716,187.06439393939394,717.0000000000002,187.06439393939394,717.9999999999999,187.06439393939394,719.0000000000001,187.06439393939394,719.9999999999999,187.06439393939394,721.0000000000001,187.06439393939394,721.9999999999998,187.06439393939394" stroke="rgb(128,128,128)" style="mix-blend-mode: normal; fill: none; stroke-width: 1; stroke-linejoin: round; stroke-linecap: round; stroke-dasharray: 4, 4; stroke: rgb(128, 128, 128);"/></g><g id="polygons-svg"/><g id="dots-svg"><g id="dot-svg" transform="translate(305.4098451327433, 85.64393939393938)"><path d="M6.31892333573487,0A6.31892333573487,6.31892333573487,0,1,1,-6.31892333573487,0A6.31892333573487,6.31892333573487,0,1,1,6.31892333573487,0" style="mix-blend-mode: normal; fill: rgb(29, 129, 162);"/></g><g id="dot-svg" transform="translate(294.7498156342183, 184.64962121212125)"><path d="M6.31892333573487,0A6.31892333573487,6.31892333573487,0,1,1,-6.31892333573487,0A6.31892333573487,6.31892333573487,0,1,1,6.31892333573487,0" style="mix-blend-mode: normal; fill: rgb(29, 129, 162);"/></g><g id="dot-svg" transform="translate(156.1694321533923, 66.32575757575756)"><path d="M6.31892333573487,0A6.31892333573487,6.31892333573487,0,1,1,-6.31892333573487,0A6.31892333573487,6.31892333573487,0,1,1,6.31892333573487,0" style="mix-blend-mode: normal; fill: rgb(29, 129, 162);"/></g><g id="dot-svg" transform="translate(166.8294616519174, 21.25)"><path d="M6.31892333573487,0A6.31892333573487,6.31892333573487,0,1,1,-6.31892333573487,0A6.31892333573487,6.31892333573487,0,1,1,6.31892333573487,0" style="mix-blend-mode: normal; fill: rgb(29, 129, 162);"/></g><g id="dot-svg" transform="translate(454.65025811209443, 86.4488636363636)"><path d="M6.31892333573487,0A6.31892333573487,6.31892333573487,0,1,1,-6.31892333573487,0A6.31892333573487,6.31892333573487,0,1,1,6.31892333573487,0" style="mix-blend-mode: normal; fill: rgb(29, 129, 162);"/></g><g id="dot-svg" transform="translate(577.2405973451329, 93.69318181818178)"><path d="M6.31892333573487,0A6.31892333573487,6.31892333573487,0,1,1,-6.31892333573487,0A6.31892333573487,6.31892333573487,0,1,1,6.31892333573487,0" style="mix-blend-mode: normal; fill: rgb(29, 129, 162);"/></g><g id="dot-svg" transform="translate(60.229166666666664, 83.22916666666666)"><path d="M6.31892333573487,0A6.31892333573487,6.31892333573487,0,1,1,-6.31892333573487,0A6.31892333573487,6.31892333573487,0,1,1,6.31892333573487,0" style="mix-blend-mode: normal; fill: rgb(29, 129, 162);"/></g><g id="dot-svg" transform="translate(193.4795353982301, 153.25757575757572)"><path d="M6.31892333573487,0A6.31892333573487,6.31892333573487,0,1,1,-6.31892333573487,0A6.31892333573487,6.31892333573487,0,1,1,6.31892333573487,0" style="mix-blend-mode: normal; fill: rgb(29, 129, 162);"/></g><g id="dot-svg" transform="translate(358.7099926253688, 99.3276515151515)"><path d="M6.31892333573487,0A6.31892333573487,6.31892333573487,0,1,1,-6.31892333573487,0A6.31892333573487,6.31892333573487,0,1,1,6.31892333573487,0" style="mix-blend-mode: normal; fill: rgb(29, 129, 162);"/></g><g id="dot-svg" transform="translate(662.5208333333333, 149.2329545454545)"><path d="M6.31892333573487,0A6.31892333573487,6.31892333573487,0,1,1,-6.31892333573487,0A6.31892333573487,6.31892333573487,0,1,1,6.31892333573487,0" style="mix-blend-mode: normal; fill: rgb(29, 129, 162);"/></g><g id="dot-svg" transform="translate(438.6602138643068, 88.05871212121212)"><path d="M6.31892333573487,0A6.31892333573487,6.31892333573487,0,1,1,-6.31892333573487,0A6.31892333573487,6.31892333573487,0,1,1,6.31892333573487,0" style="mix-blend-mode: normal; fill: rgb(29, 129, 162);"/></g><g id="dot-svg" transform="translate(534.6004793510325, 71.96022727272728)"><path d="M6.31892333573487,0A6.31892333573487,6.31892333573487,0,1,1,-6.31892333573487,0A6.31892333573487,6.31892333573487,0,1,1,6.31892333573487,0" style="mix-blend-mode: normal; fill: rgb(29, 129, 162);"/></g><g id="dot-svg" transform="translate(353.37997787610624, 113.81628787878785)"><path d="M6.31892333573487,0A6.31892333573487,6.31892333573487,0,1,1,-6.31892333573487,0A6.31892333573487,6.31892333573487,0,1,1,6.31892333573487,0" style="mix-blend-mode: normal; fill: rgb(29, 129, 162);"/></g><g id="dot-svg" transform="translate(385.3600663716815, 178.21022727272725)"><path d="M6.31892333573487,0A6.31892333573487,6.31892333573487,0,1,1,-6.31892333573487,0A6.31892333573487,6.31892333573487,0,1,1,6.31892333573487,0" style="mix-blend-mode: normal; fill: rgb(29, 129, 162);"/></g><g id="dot-svg" transform="translate(294.7498156342183, 107.37689393939394)"><path d="M6.31892333573487,0A6.31892333573487,6.31892333573487,0,1,1,-6.31892333573487,0A6.31892333573487,6.31892333573487,0,1,1,6.31892333573487,0" style="mix-blend-mode: normal; fill: rgb(29, 129, 162);"/></g><g id="dot-svg" transform="translate(241.44966814159298, 79.20454545454544)"><path d="M6.31892333573487,0A6.31892333573487,6.31892333573487,0,1,1,-6.31892333573487,0A6.31892333573487,6.31892333573487,0,1,1,6.31892333573487,0" style="mix-blend-mode: normal; fill: rgb(29, 129, 162);"/></g><g id="dot-svg" transform="translate(300.07983038348084, 149.2329545454545)"><path d="M6.31892333573487,0A6.31892333573487,6.31892333573487,0,1,1,-6.31892333573487,0A6.31892333573487,6.31892333573487,0,1,1,6.31892333573487,0" style="mix-blend-mode: normal; fill: rgb(29, 129, 162);"/></g><g id="dot-svg" transform="translate(65.5591814159292, 63.910984848484844)"><path d="M6.31892333573487,0A6.31892333573487,6.31892333573487,0,1,1,-6.31892333573487,0A6.31892333573487,6.31892333573487,0,1,1,6.31892333573487,0" style="mix-blend-mode: normal; fill: rgb(29, 129, 162);"/></g><g id="dot-svg" transform="translate(193.4795353982301, 149.2329545454545)"><path d="M6.31892333573487,0A6.31892333573487,6.31892333573487,0,1,1,-6.31892333573487,0A6.31892333573487,6.31892333573487,0,1,1,6.31892333573487,0" style="mix-blend-mode: normal; fill: rgb(29, 129, 162);"/></g><g id="dot-svg" transform="translate(220.1296091445428, 136.35416666666669)"><path d="M6.31892333573487,0A6.31892333573487,6.31892333573487,0,1,1,-6.31892333573487,0A6.31892333573487,6.31892333573487,0,1,1,6.31892333573487,0" style="mix-blend-mode: normal; fill: rgb(29, 129, 162);"/></g><g id="dot-svg" transform="translate(459.9802728613569, 77.59469696969694)"><path d="M6.31892333573487,0A6.31892333573487,6.31892333573487,0,1,1,-6.31892333573487,0A6.31892333573487,6.31892333573487,0,1,1,6.31892333573487,0" style="mix-blend-mode: normal; fill: rgb(29, 129, 162);"/></g><g id="dot-svg" transform="translate(481.30033185840716, 118.64583333333331)"><path d="M6.31892333573487,0A6.31892333573487,6.31892333573487,0,1,1,-6.31892333573487,0A6.31892333573487,6.31892333573487,0,1,1,6.31892333573487,0" style="mix-blend-mode: normal; fill: rgb(29, 129, 162);"/></g><g id="dot-svg" transform="translate(348.0499631268437, 77.59469696969694)"><path d="M6.31892333573487,0A6.31892333573487,6.31892333573487,0,1,1,-6.31892333573487,0A6.31892333573487,6.31892333573487,0,1,1,6.31892333573487,0" style="mix-blend-mode: normal; fill: rgb(29, 129, 162);"/></g><g id="dot-svg" transform="translate(443.9902286135694, 56.6666666666666)"><path d="M6.31892333573487,0A6.31892333573487,6.31892333573487,0,1,1,-6.31892333573487,0A6.31892333573487,6.31892333573487,0,1,1,6.31892333573487,0" style="mix-blend-mode: normal; fill: rgb(29, 129, 162);"/></g><g id="dot-svg" transform="translate(348.0499631268437, 233.75)"><path d="M6.31892333573487,0A6.31892333573487,6.31892333573487,0,1,1,-6.31892333573487,0A6.31892333573487,6.31892333573487,0,1,1,6.31892333573487,0" style="mix-blend-mode: normal; fill: rgb(199, 30, 29);"/></g><g id="dot-svg" transform="translate(294.7498156342183, 198.33333333333331)"><path d="M6.31892333573487,0A6.31892333573487,6.31892333573487,0,1,1,-6.31892333573487,0A6.31892333573487,6.31892333573487,0,1,1,6.31892333573487,0" style="mix-blend-mode: normal; fill: rgb(199, 30, 29);"/></g></g></g></g><g id="front-svg" clip-path="url(#rect-mask-front-71pMGKqp8dr8acR9w5z8V)" transform="translate(0.00000, 135.87500)"><clipPath id="rect-mask-front-71pMGKqp8dr8acR9w5z8V"><rect x="0" y="0" width="768" height="288"/></clipPath><g id="group-svg" transform="translate(35.25, 10)"><g id="grid-svg"><g id="x-tick-labels-svg grid-x-svg number-axis-svg datawrapper-1X64P-14jwf37-svg" transform="translate(0, 260)"><text transform="translate(33.57909292035396, 14) translate(-13.73438, 0.00000) translate(13.734375, 0)" style="text-anchor: middle;"><tspan fill="rgb(123, 123, 123)" style="font-family: Arial; font-weight: 400; font-size: 14px;" x="0" dominant-baseline="auto" y="0">1,20</tspan></text><text transform="translate(140.17938790560467, 14) translate(-13.73438, 0.00000) translate(13.734375, 0)" style="text-anchor: middle;"><tspan fill="rgb(123, 123, 123)" style="font-family: Arial; font-weight: 400; font-size: 14px;" x="0" dominant-baseline="auto" y="0">1,40</tspan></text><text transform="translate(246.7796828908555, 14) translate(-13.73438, 0.00000) translate(13.734375, 0)" style="text-anchor: middle;"><tspan fill="rgb(123, 123, 123)" style="font-family: Arial; font-weight: 400; font-size: 14px;" x="0" dominant-baseline="auto" y="0">1,60</tspan></text><text transform="translate(353.37997787610624, 14) translate(-13.73438, 0.00000) translate(13.734375, 0)" style="text-anchor: middle;"><tspan fill="rgb(123, 123, 123)" style="font-family: Arial; font-weight: 400; font-size: 14px;" x="0" dominant-baseline="auto" y="0">1,80</tspan></text><text transform="translate(459.9802728613569, 14) translate(-13.73438, 0.00000) translate(13.734375, 0)" style="text-anchor: middle;"><tspan fill="rgb(123, 123, 123)" style="font-family: Arial; font-weight: 400; font-size: 14px;" x="0" dominant-baseline="auto" y="0">2,00</tspan></text><text transform="translate(566.5805678466078, 14) translate(-13.73438, 0.00000) translate(13.734375, 0)" style="text-anchor: middle;"><tspan fill="rgb(123, 123, 123)" style="font-family: Arial; font-weight: 400; font-size: 14px;" x="0" dominant-baseline="auto" y="0">2,20</tspan></text><text transform="translate(673.1808628318585, 14) translate(-19.85938, 0.00000) translate(19.859375, 0)" style="text-anchor: middle;"><tspan fill="rgb(123, 123, 123)" style="font-family: Arial; font-weight: 400; font-size: 14px;" x="0" dominant-baseline="auto" y="0">2,40%</tspan></text></g><g id="x-base-lines-svg grid-x-svg datawrapper-1X64P-n2qvu0-svg"><line x1="0" x2="0" y1="255" y2="0" transform="translate(0, 0)" style="fill: none; stroke-width: 1; stroke-linejoin: miter; stroke-linecap: square; stroke: rgb(51, 51, 51);"/></g><g id="y-tick-labels-svg grid-y-svg number-axis-svg datawrapper-1X64P-1pv0dev-svg" transform="translate(-5, 0)"><text transform="translate(0, 192.06439393939394) translate(-15.79688, 0.00000) translate(15.796875, 0)" style="text-anchor: end;"><tspan fill="rgb(123, 123, 123)" style="font-family: Arial; font-weight: 400; font-size: 14px;" x="0" dominant-baseline="auto" y="0">50</tspan></text><text transform="translate(0, 111.57196969696966) translate(-15.79688, 0.00000) translate(15.796875, 0)" style="text-anchor: end;"><tspan fill="rgb(123, 123, 123)" style="font-family: Arial; font-weight: 400; font-size: 14px;" x="0" dominant-baseline="auto" y="0">60</tspan></text><text transform="translate(0, 31.07954545454544) translate(-28.03125, 0.00000) translate(28.03125, 0)" style="text-anchor: end;"><tspan fill="rgb(123, 123, 123)" style="font-family: Arial; font-weight: 400; font-size: 14px;" x="0" dominant-baseline="auto" y="0">70%</tspan></text></g><g id="y-base-lines-svg grid-y-svg datawrapper-1X64P-n2qvu0-svg"><line x1="722.75" x2="0" y1="0" y2="0" transform="translate(0, 255)" style="fill: none; stroke-width: 1; stroke-linejoin: miter; stroke-linecap: square; stroke: rgb(51, 51, 51);"/></g></g><path d="M0,103.04635746335467L0.9999999999999823,103.07459571726739L1.9999999999999647,103.10283397118013L2.9999999999999476,103.13107222509282L4.000000000000048,103.15931047900557L5.00000000000003,103.18754873291829L6.000000000000012,103.21578698683098L6.999999999999996,103.24402524074372L7.999999999999978,103.27226349465641L8.999999999999961,103.30050174856916L9.999999999999943,103.32874000248188L11.000000000000043,103.35697825639463L12.000000000000025,103.38521651030732L13.000000000000009,103.41345476422009L13.999999999999991,103.44169301813278L14.999999999999973,103.46993127204547L15.999999999999956,103.49816952595825L17.000000000000057,103.52640777987094L18.00000000000004,103.55464603378368L19.00000000000002,103.58288428769637L20.000000000000004,103.61112254160912L20.999999999999986,103.63936079552184L21.999999999999968,103.66759904943459L22.999999999999947,103.69583730334728L24.00000000000005,103.72407555726002L25.000000000000036,103.75231381117274L26.000000000000018,103.78055206508552L27,103.8087903189982L27.999999999999982,103.8370285729109L28.999999999999964,103.86526682682364L29.999999999999947,103.89350508073633L31.000000000000043,103.92174333464911L32.00000000000003,103.9499815885618L33.00000000000001,103.97821984247454L33.99999999999999,104.00645809638723L34.99999999999997,104.03469635029998L35.99999999999996,104.06293460421267L37.00000000000006,104.09117285812539L38.00000000000004,104.11941111203816L39.00000000000002,104.14764936595085L40.00000000000001,104.1758876198636L40.99999999999999,104.20412587377629L41.99999999999997,104.23236412768907L42.99999999999996,104.26060238160176L44.00000000000005,104.2888406355145L45.000000000000036,104.3170788894272L46.000000000000014,104.34531714333988L47.00000000000001,104.37355539725266L47.99999999999998,104.40179365116535L48.99999999999997,104.4300319050781L49.99999999999995,104.45827015899081L51.00000000000004,104.48650841290356L52.000000000000036,104.51474666681628L53.00000000000001,104.54298492072903L54,104.57122317464172L54.99999999999997,104.5994614285544L55.999999999999964,104.62769968246715L56.99999999999994,104.65593793637984L58.00000000000005,104.68417619029262L59.00000000000003,104.71241444420531L60.000000000000014,104.74065269811805L60.99999999999999,104.76889095203074L61.99999999999998,104.79712920594352L62.99999999999996,104.82536745985624L64.00000000000006,104.85360571376899L65.00000000000004,104.88184396768168L66.00000000000001,104.91008222159442L67,104.93832047550711L67.99999999999999,104.96655872941983L68.99999999999997,104.99479698333258L69.99999999999994,105.02303523724527L70.99999999999993,105.05127349115801L72.00000000000003,105.0795117450707L73.00000000000001,105.10774999898348L74,105.1359882528962L74.99999999999999,105.16422650680894L75.99999999999996,105.19246476072163L77.00000000000006,105.22070301463432L78.00000000000004,105.2489412685471L79.00000000000003,105.27717952245979L80.00000000000001,105.30541777637254L80.99999999999999,105.33365603028523L81.99999999999999,105.36189428419797L82.99999999999996,105.39013253811066L83.99999999999994,105.41837079202344L85.00000000000004,105.44660904593613L86.00000000000003,105.47484729984882L87,105.5030855537616L88,105.53132380767428L88.99999999999997,105.55956206158706L89.99999999999996,105.58780031549975L91.00000000000004,105.6160385694125L92.00000000000003,105.64427682332519L93.00000000000003,105.67251507723793L94.00000000000001,105.70075333115065L94.99999999999997,105.72899158506334L95.99999999999996,105.75722983897609L96.99999999999996,105.78546809288878L98.00000000000006,105.81370634680152L99.00000000000003,105.84194460071427L100.00000000000001,105.87018285462702L101,105.89842110853971L101.99999999999997,105.92665936245245L102.99999999999996,105.95489761636514L104.00000000000007,105.98313587027789L105.00000000000006,106.01137412419061L106.00000000000001,106.0396123781033L107.00000000000001,106.06785063201605L108,106.09608888592874L108.99999999999999,106.12432713984148L109.99999999999994,106.1525653937542L110.99999999999994,106.18080364766698L112.00000000000004,106.20904190157967L113.00000000000001,106.23728015549241L114,106.2655184094051L114.99999999999999,106.29375666331788L115.99999999999997,106.32199491723057L116.99999999999994,106.35023317114326L118.00000000000006,106.378471425056L119.00000000000004,106.4067096789687L120.00000000000003,106.43494793288147L121,106.46318618679416L121.99999999999999,106.49142444070691L122.99999999999997,106.51966269461963L123.99999999999996,106.54790094853237L125.00000000000004,106.57613920244506L126.00000000000003,106.60437745635778L127.00000000000001,106.63261571027053L127.99999999999999,106.66085396418322L128.99999999999997,106.68909221809596L129.99999999999997,106.71733047200865L131.00000000000006,106.74556872592143L132.00000000000003,106.77380697983412L133.00000000000003,106.80204523374687L134,106.83028348765956L135,106.85852174157225L135.99999999999997,106.88675999548505L136.99999999999994,106.91499824939774L137.99999999999994,106.94323650331049L139.00000000000003,106.97147475722318L140.00000000000003,106.99971301113592L141,107.02795126504864L142,107.05618951896139L142.99999999999997,107.08442777287408L144.00000000000006,107.11266602678683L145.00000000000006,107.14090428069952L146.00000000000003,107.1691425346122L147,107.19738078852498L148,107.2256190424377L148.99999999999997,107.25385729635045L149.99999999999997,107.28209555026314L150.99999999999994,107.31033380417588L152.00000000000006,107.3385720580886L153.00000000000003,107.36681031200135L154,107.39504856591404L155,107.42328681982679L155.99999999999997,107.45152507373948L157.00000000000009,107.4797633276522L158.00000000000006,107.50800158156494L159.00000000000003,107.53623983547763L160.00000000000003,107.5644780893904L161.00000000000003,107.5927163433031L161.99999999999997,107.62095459721587L162.99999999999997,107.64919285112856L163.99999999999997,107.67743110504131L164.99999999999994,107.705669358954L166.00000000000003,107.73390761286669L167.00000000000003,107.76214586677946L168,107.79038412069215L168.99999999999997,107.8186223746049L169.99999999999997,107.84686062851759L170.99999999999994,107.87509888243034L172.00000000000006,107.90333713634305L173.00000000000003,107.93157539025583L174,107.95981364416852L175,107.98805189808121L176,108.01629015199396L176.99999999999994,108.04452840590665L177.99999999999994,108.07276665981942L178.99999999999994,108.10100491373211L180.00000000000003,108.12924316764486L181.00000000000003,108.15748142155755L181.99999999999997,108.1857196754703L182.99999999999997,108.21395792938301L183.99999999999994,108.24219618329573L185.00000000000006,108.27043443720848L186.00000000000006,108.29867269112117L187.00000000000003,108.32691094503392L188.00000000000003,108.35514919894663L189,108.38338745285938L189.99999999999994,108.41162570677207L190.99999999999994,108.43986396068482L192.00000000000006,108.46810221459751L193.00000000000003,108.49634046851025L194.00000000000003,108.52457872242297L195,108.55281697633572L196,108.58105523024841L196.99999999999994,108.60929348416113L198.00000000000006,108.63753173807387L199.00000000000003,108.6657699919866L200.00000000000003,108.69400824589934L201.00000000000003,108.72224649981203L202,108.75048475372478L203,108.77872300763747L203.99999999999994,108.80696126155024L204.99999999999991,108.83519951546293L205.99999999999991,108.86343776937562L207.00000000000003,108.89167602328837L208,108.91991427720106L209,108.94815253111386L209.99999999999997,108.97639078502655L211.00000000000009,109.0046290389393L212.00000000000003,109.03286729285199L213.00000000000003,109.06110554676474L214.00000000000003,109.08934380067745L215,109.11758205459014L216,109.14582030850289L216.99999999999997,109.17405856241558L217.99999999999997,109.20229681632833L218.99999999999991,109.23053507024102L219.9999999999999,109.2587733241538L221,109.28701157806651L222,109.31524983197926L222.99999999999997,109.34348808589195L224.00000000000009,109.3717263398047L225.00000000000009,109.39996459371741L226.00000000000003,109.4282028476301L227,109.45644110154285L228,109.48467935545554L229,109.51291760936829L229.99999999999997,109.541155863281L230.99999999999997,109.56939411719375L231.99999999999994,109.59763237110644L233.00000000000006,109.62587062501919L234,109.65410887893191L235,109.68234713284468L235.99999999999997,109.71058538675737L236.99999999999997,109.73882364067006L237.99999999999994,109.76706189458281L239.00000000000006,109.7953001484955L240.00000000000006,109.82353840240825L241,109.85177665632096L242,109.88001491023371L242.99999999999997,109.9082531641464L243.99999999999997,109.93649141805915L244.99999999999994,109.96472967197184L246.00000000000006,109.99296792588459L247.00000000000006,110.02120617979733L248.00000000000003,110.04944443371002L248.99999999999997,110.07768268762277L249.99999999999997,110.10592094153546L250.99999999999994,110.13415919544823L251.99999999999994,110.16239744936092L253.00000000000006,110.19063570327367L254.00000000000003,110.21887395718636L255.00000000000003,110.24711221109905L255.99999999999997,110.27535046501183L256.99999999999994,110.30358871892452L257.99999999999994,110.33182697283729L259.00000000000006,110.36006522674998L260.00000000000006,110.38830348066273L261.00000000000006,110.41654173457542L262,110.4447799884882L263,110.47301824240088L263.99999999999994,110.50125649631357L264.99999999999994,110.52949475022632L266.00000000000006,110.55773300413901L267.00000000000006,110.58597125805179L268,110.61420951196448L269,110.64244776587722L270,110.67068601978994L270.99999999999994,110.69892427370269L271.99999999999994,110.7271625276154L272.99999999999994,110.7554007815281L273.9999999999999,110.78363903544084L275,110.81187728935353L276,110.84011554326628L277,110.868353797179L278.00000000000006,110.89659205109174L279.00000000000006,110.92483030500443L280.00000000000006,110.95306855891718L281,110.98130681282987L282,111.00954506674265L283,111.03778332065536L284,111.06602157456811L284.99999999999994,111.0942598284808L285.99999999999994,111.12249808239349L286.9999999999999,111.15073633630624L288,111.17897459021896L289,111.2072128441317L290,111.2354510980444L291.0000000000001,111.26368935195714L292.00000000000006,111.29192760586983L293.00000000000006,111.3201658597826L294,111.3484041136953L295,111.37664236760801L296,111.40488062152076L297,111.43311887543345L297.99999999999994,111.46135712934623L298.99999999999994,111.48959538325892L299.99999999999994,111.51783363717166L301,111.54607189108435L302,111.5743101449971L303,111.60254839890982L304.0000000000001,111.63078665282256L305.00000000000006,111.65902490673525L306.00000000000006,111.68726316064794L307.00000000000006,111.71550141456072L308,111.74373966847341L309,111.77197792238618L310,111.80021617629887L310.99999999999994,111.82845443021162L311.99999999999994,111.85669268412431L312.99999999999994,111.884930938037L314.00000000000006,111.91316919194978L315,111.94140744586247L316,111.96964569977521L317.0000000000001,111.9978839536879L318.00000000000006,112.02612220760065L319.00000000000006,112.0543604615134L320.00000000000006,112.08259871542614L321.00000000000006,112.11083696933883L322.00000000000006,112.13907522325158L323,112.16731347716427L323.99999999999994,112.19555173107705L324.99999999999994,112.22378998498974L325.99999999999994,112.25202823890243L326.99999999999994,112.28026649281517L327.99999999999994,112.30850474672786L329,112.33674300064061L329.99999999999994,112.36498125455333L330.99999999999994,112.39321950846607L332.00000000000006,112.4214577623788L333.00000000000006,112.44969601629154L334.00000000000006,112.47793427020423L335.00000000000006,112.50617252411695L336,112.5344107780297L337,112.56264903194239L337.99999999999994,112.59088728585513L338.99999999999994,112.61912553976782L339.99999999999994,112.6473637936806L340.9999999999999,112.67560204759329L341.9999999999999,112.70384030150603L343,112.73207855541872L344,112.76031680933144L344.99999999999994,112.78855506324422L346.00000000000006,112.81679331715691L347.00000000000006,112.84503157106965L348,112.87326982498234L349,112.90150807889509L350,112.92974633280778L351,112.95798458672056L352,112.98622284063325L352.99999999999994,113.01446109454594L353.9999999999999,113.04269934845868L355,113.07093760237137L356,113.09917585628418L357,113.12741411019687L358,113.15565236410961L359.0000000000001,113.1838906180223L360.00000000000006,113.21212887193505L361,113.24036712584777L362.00000000000006,113.26860537976052L363.00000000000006,113.2968436336732L363.99999999999994,113.32508188758595L364.99999999999994,113.35332014149864L365.99999999999994,113.38155839541136L366.9999999999999,113.40979664932411L367.9999999999999,113.43803490323683L368.9999999999999,113.46627315714957L370.0000000000001,113.49451141106226L371.0000000000001,113.52274966497504L372.0000000000001,113.55098791888773L373.00000000000006,113.57922617280047L374.00000000000006,113.60746442671316L375.00000000000006,113.63570268062585L376.00000000000006,113.6639409345386L377,113.69217918845132L378,113.72041744236407L378.99999999999994,113.74865569627676L379.9999999999999,113.77689395018953L380.9999999999999,113.80513220410222L381.9999999999999,113.833370458015L383.00000000000006,113.86160871192769L384.0000000000001,113.88984696584043L385.0000000000001,113.91808521975312L386.00000000000006,113.94632347366581L387.00000000000006,113.97456172757859L388.00000000000006,114.00279998149128L389.00000000000006,114.03103823540403L390,114.05927648931672L391,114.08751474322946L392,114.11575299714218L393,114.1439912510549L393.9999999999999,114.17222950496765L394.9999999999999,114.20046775888034L396.00000000000006,114.22870601279308L397,114.25694426670577L398,114.28518252061855L399.00000000000006,114.31342077453124L400.00000000000006,114.34165902844398L401.00000000000006,114.36989728235667L402.00000000000006,114.39813553626942L403,114.42637379018214L404,114.45461204409489L405,114.4828502980076L406,114.5110885519203L407,114.53932680583304L408.00000000000006,114.56756505974576L409,114.59580331365851L410,114.6240415675712L411,114.65227982148394L412,114.68051807539663L413,114.70875632930941L414.00000000000006,114.7369945832221L415.00000000000006,114.76523283713479L416,114.79347109104754L417,114.82170934496025L418,114.84994759887303L419,114.87818585278572L419.99999999999994,114.90642410669847L421.00000000000006,114.93466236061116L422,114.9629006145239L423,114.9911388684366L424,115.01937712234931L425,115.04761537626206L426,115.07585363017475L426.99999999999994,115.1040918840875L428.00000000000006,115.13233013800019L429,115.16056839191299L430,115.18880664582568L431,115.21704489973843L432,115.24528315365112L432.99999999999994,115.2735214075638L434.00000000000006,115.30175966147658L435,115.32999791538927L436,115.35823616930202L437,115.38647442321471L438,115.41471267712745L439,115.44295093104017L439.99999999999994,115.47118918495292L441.00000000000006,115.49942743886561L442,115.52766569277838L443,115.55590394669107L444,115.58414220060376L445,115.61238045451654L445.99999999999994,115.64061870842923L447.00000000000006,115.66885696234198L448,115.69709521625467L449,115.72533347016741L450,115.75357172408013L451,115.78180997799288L451.99999999999994,115.81004823190557L453.00000000000006,115.83828648581832L454,115.86652473973103L455,115.89476299364375L456,115.9230012475565L457,115.95123950146919L458,115.97947775538194L458.99999999999994,116.00771600929463L459.99999999999994,116.0359542632074L460.99999999999994,116.06419251712009L462.00000000000017,116.09243077103284L462.9999999999999,116.12066902494553L464.00000000000017,116.14890727885822L464.9999999999999,116.17714553277096L466.0000000000001,116.20538378668371L467,116.23362204059646L468,116.26186029450915L469,116.2900985484219L470,116.31833680233458L471,116.34657505624736L471.99999999999994,116.37481331016005L472.99999999999994,116.40305156407274L473.99999999999994,116.43128981798549L474.99999999999994,116.45952807189818L475.9999999999999,116.48776632581095L477.0000000000001,116.51600457972364L477.9999999999999,116.54424283363642L479.0000000000001,116.57248108754911L480.0000000000001,116.60071934146185L481.0000000000001,116.62895759537457L482,116.65719584928732L483,116.68543410320001L484,116.7136723571127L484.99999999999994,116.74191061102545L485.99999999999994,116.77014886493814L486.99999999999994,116.79838711885091L487.99999999999994,116.8266253727636L488.9999999999999,116.85486362667635L489.9999999999999,116.88310188058904L490.9999999999999,116.91134013450181L492.0000000000001,116.93957838841453L493.0000000000001,116.96781664232728L494.0000000000001,116.99605489623997L495.00000000000006,117.02429315015266L496.00000000000006,117.0525314040654L496.99999999999994,117.08076965797812L497.99999999999994,117.10900791189087L498.99999999999994,117.13724616580356L499.99999999999994,117.16548441971631L500.99999999999994,117.193722673629L501.9999999999999,117.22196092754177L502.9999999999999,117.25019918145449L503.9999999999999,117.27843743536718L505.0000000000001,117.30667568927993L506.0000000000001,117.33491394319262L507.0000000000001,117.36315219710539L508.00000000000006,117.39139045101808L509.00000000000006,117.41962870493083L510.00000000000006,117.44786695884352L511.00000000000006,117.47610521275627L511.99999999999994,117.50434346666896L512.9999999999999,117.53258172058167L513.9999999999999,117.56081997449442L514.9999999999999,117.58905822840714L515.9999999999999,117.61729648231989L516.9999999999999,117.64553473623258L518.0000000000001,117.67377299014535L519.0000000000001,117.70201124405804L520.0000000000001,117.73024949797079L521.0000000000001,117.75848775188348L522.0000000000001,117.78672600579623L523,117.81496425970894L524,117.84320251362163L525,117.87144076753438L526,117.89967902144707L526.9999999999999,117.92791727535985L527.9999999999999,117.95615552927256L528.9999999999999,117.98439378318531L529.9999999999999,118.012632037098L531.0000000000001,118.04087029101075L532.0000000000001,118.06910854492344L533.0000000000001,118.09734679883618L533.9999999999999,118.1255850527489L535.0000000000001,118.1538233066616L535.9999999999998,118.18206156057434L537,118.21029981448703L538,118.23853806839978L539,118.2667763223125L540,118.29501457622527L541,118.32325283013796L541.9999999999999,118.3514910840507L542.9999999999999,118.3797293379634L544.0000000000001,118.40796759187612L544.9999999999999,118.43620584578886L546.0000000000001,118.46444409970155L546.9999999999998,118.4926823536143L548,118.52092060752699L548.9999999999998,118.54915886143976L550,118.57739711535245L551,118.6056353692652L552,118.63387362317792L553,118.66211187709061L554,118.69035013100336L555,118.71858838491607L556,118.74682663882882L557.0000000000001,118.77506489274151L557.9999999999999,118.80330314665426L559.0000000000001,118.83154140056695L559.9999999999998,118.85977965447972L561,118.88801790839241L561.9999999999998,118.9162561623051L563,118.94449441621785L564,118.97273267013063L565,119.00097092404334L566,119.02920917795603L567,119.05744743186878L568,119.08568568578147L569,119.11392393969422L570.0000000000002,119.14216219360694L570.9999999999999,119.17040044751963L572.0000000000001,119.19863870143237L572.9999999999998,119.22687695534506L574,119.25511520925781L575,119.2833534631705L576,119.3115917170833L577,119.33982997099599L578,119.36806822490874L579,119.39630647882143L580,119.42454473273418L581,119.4527829866469L582,119.48102124055964L583.0000000000002,119.50925949447233L583.9999999999999,119.53749774838502L585.0000000000001,119.56573600229777L585.9999999999999,119.59397425621049L587,119.62221251012323L588,119.65045076403592L589,119.6786890179487L590,119.70692727186139L591,119.73516552577416L592,119.76340377968685L593,119.79164203359954L594,119.81988028751229L595,119.84811854142498L596.0000000000002,119.87635679533776L596.9999999999999,119.90459504925045L598.0000000000001,119.93283330316319L598.9999999999999,119.96107155707588L600.0000000000001,119.98930981098863L601,120.01754806490135L602,120.04578631881407L603,120.07402457272681L604,120.10226282663956L605,120.13050108055225L606,120.15873933446494L607,120.18697758837772L608,120.2152158422904L609.0000000000002,120.24345409620315L609.9999999999999,120.27169235011584L611.0000000000001,120.29993060402859L611.9999999999999,120.32816885794131L613.0000000000001,120.35640711185408L614.0000000000001,120.38464536576677L615.0000000000001,120.41288361967946L616,120.44112187359221L617,120.46936012750493L618,120.49759838141767L619,120.52583663533036L620.0000000000002,120.55407488924311L621,120.5823131431558L622.0000000000002,120.61055139706855L622.9999999999999,120.63878965098127L624.0000000000001,120.66702790489396L624.9999999999999,120.69526615880673L626.0000000000001,120.72350441271942L627.0000000000001,120.75174266663217L628.0000000000001,120.77998092054489L629.0000000000001,120.80821917445763L630,120.83645742837032L631,120.86469568228307L632,120.89293393619576L633,120.92117219010848L634,120.94941044402123L635.0000000000002,120.97764869793397L635.9999999999999,121.00588695184666L637.0000000000001,121.03412520575938L637.9999999999999,121.06236345967216L639.0000000000001,121.09060171358485L639.9999999999999,121.11883996749759L641.0000000000001,121.14707822141028L642.0000000000001,121.17531647532297L643.0000000000001,121.20355472923575L644.0000000000001,121.23179298314844L645,121.26003123706118L646,121.28826949097387L646.9999999999999,121.31650774488662L647.9999999999999,121.34474599879931L648.9999999999999,121.37298425271209L650.0000000000001,121.4012225066248L650.9999999999999,121.4294607605375L652.0000000000001,121.45769901445024L652.9999999999999,121.48593726836293L654.0000000000001,121.5141755222757L654.9999999999999,121.5424137761884L656.0000000000001,121.57065203010114L657.0000000000001,121.59889028401383L658,121.62712853792658L659,121.6553667918393L659.9999999999999,121.68360504575205L660.9999999999999,121.71184329966474L661.9999999999999,121.74008155357751L662.9999999999999,121.7683198074902L663.9999999999999,121.79655806140292L665.0000000000001,121.82479631531567L665.9999999999999,121.85303456922836L667.0000000000001,121.8812728231411L667.9999999999999,121.90951107705379L669.0000000000001,121.93774933096654L669.9999999999998,121.96598758487926L671,121.994225838792L672,122.0224640927047L673,122.05070234661738L674,122.07894060053016L674.9999999999999,122.10717885444288L675.9999999999999,122.13541710835563L676.9999999999999,122.16365536226832L678.0000000000001,122.19189361618106L678.9999999999999,122.22013187009375L680.0000000000001,122.24837012400653L680.9999999999999,122.27660837791922L682.0000000000001,122.30484663183191L682.9999999999998,122.33308488574465L684,122.36132313965734L685,122.38956139357012L686,122.41779964748281L687,122.44603790139558L688,122.47427615530827L689,122.50251440922102L689.9999999999999,122.53075266313371L691.0000000000001,122.55899091704649L691.9999999999999,122.58722917095918L693.0000000000001,122.61546742487192L693.9999999999999,122.64370567878461L695.0000000000001,122.6719439326973L695.9999999999998,122.70018218661008L697,122.72842044052277L698,122.75665869443552L699,122.78489694834823L700,122.81313520226098L701,122.8413734561737L702,122.86961171008645L703,122.89784996399914L704.0000000000001,122.92608821791183L704.9999999999999,122.95432647182457L706.0000000000001,122.98256472573729L706.9999999999999,123.01080297965004L708.0000000000001,123.03904123356273L708.9999999999998,123.06727948747547L710,123.09551774138816L711,123.12375599530097L712,123.15199424921366L713,123.18023250312635L714,123.2084707570391L715,123.23670901095178L716,123.26494726486453L717.0000000000002,123.29318551877725L717.9999999999999,123.32142377269L719.0000000000001,123.34966202660269L719.9999999999999,123.37790028051543L721.0000000000001,123.40613853442812L721.9999999999998,123.43437678834084" stroke="rgb(51,51,51)" style="mix-blend-mode: normal; fill: none; stroke-width: 1; stroke-linejoin: miter; stroke-linecap: butt; stroke: rgb(51, 51, 51);"/><g id="labels-svg"><g id="label-svg" transform="translate(305, 76.68107666426513)"><g id="AG-svg"><text transform="translate(-10.67969, 0.00000) translate(10.6796875, 0)" style="text-anchor: middle;"><tspan x="0" y="-2.8000000000000007" style="font-family: Arial; font-weight: 400; font-size: 14px; stroke: rgb(255, 255, 255); stroke-width: 5; stroke-linejoin: round; stroke-linecap: round;">AG</tspan></text><text transform="translate(-10.67969, 0.00000) translate(10.6796875, 0)" style="text-anchor: middle;"><tspan fill="rgb(123, 123, 123)" style="font-family: Arial; font-weight: 400; font-size: 14px;" x="0" y="-2.8000000000000007">AG</tspan></text></g></g><g id="label-svg" transform="translate(295, 175.68107666426513)"><g id="AR-svg"><text transform="translate(-10.23438, 0.00000) translate(10.234375, 0)" style="text-anchor: middle;"><tspan x="0" y="-2.8000000000000007" style="font-family: Arial; font-weight: 400; font-size: 14px; stroke: rgb(255, 255, 255); stroke-width: 5; stroke-linejoin: round; stroke-linecap: round;">AR</tspan></text><text transform="translate(-10.23438, 0.00000) translate(10.234375, 0)" style="text-anchor: middle;"><tspan fill="rgb(123, 123, 123)" style="font-family: Arial; font-weight: 400; font-size: 14px;" x="0" y="-2.8000000000000007">AR</tspan></text></g></g><g id="label-svg" transform="translate(357.3189233357349, 234)"><g id="AI-svg"><text transform="translate(0, 0)"><tspan x="0" y="5.6" style="font-family: Arial; font-weight: 400; font-size: 14px; stroke: rgb(255, 255, 255); stroke-width: 5; stroke-linejoin: round; stroke-linecap: round;">AI</tspan></text><text transform="translate(0, 0)"><tspan fill="rgb(123, 123, 123)" style="font-family: Arial; font-weight: 400; font-size: 14px;" x="0" y="5.6">AI</tspan></text></g></g><g id="label-svg" transform="translate(156, 75.31892333573487)"><g id="BL-svg"><text transform="translate(-8.67188, 0.00000) translate(8.671875, 0)" style="text-anchor: middle;"><tspan x="0" y="14" style="font-family: Arial; font-weight: 400; font-size: 14px; stroke: rgb(255, 255, 255); stroke-width: 5; stroke-linejoin: round; stroke-linecap: round;">BL</tspan></text><text transform="translate(-8.67188, 0.00000) translate(8.671875, 0)" style="text-anchor: middle;"><tspan fill="rgb(123, 123, 123)" style="font-family: Arial; font-weight: 400; font-size: 14px;" x="0" y="14">BL</tspan></text></g></g><g id="label-svg" transform="translate(176.31892333573487, 21)"><g id="BS-svg"><text transform="translate(0, 0)"><tspan x="0" y="5.6" style="font-family: Arial; font-weight: 400; font-size: 14px; stroke: rgb(255, 255, 255); stroke-width: 5; stroke-linejoin: round; stroke-linecap: round;">BS</tspan></text><text transform="translate(0, 0)"><tspan fill="rgb(123, 123, 123)" style="font-family: Arial; font-weight: 400; font-size: 14px;" x="0" y="5.6">BS</tspan></text></g></g><g id="label-svg" transform="translate(455, 95.31892333573487)"><g id="BE-svg"><text transform="translate(-9.34375, 0.00000) translate(9.34375, 0)" style="text-anchor: middle;"><tspan x="0" y="14" style="font-family: Arial; font-weight: 400; font-size: 14px; stroke: rgb(255, 255, 255); stroke-width: 5; stroke-linejoin: round; stroke-linecap: round;">BE</tspan></text><text transform="translate(-9.34375, 0.00000) translate(9.34375, 0)" style="text-anchor: middle;"><tspan fill="rgb(123, 123, 123)" style="font-family: Arial; font-weight: 400; font-size: 14px;" x="0" y="14">BE</tspan></text></g></g><g id="label-svg" transform="translate(586.3189233357349, 94)"><g id="FR-svg"><text transform="translate(0, 0)"><tspan x="0" y="5.6" style="font-family: Arial; font-weight: 400; font-size: 14px; stroke: rgb(255, 255, 255); stroke-width: 5; stroke-linejoin: round; stroke-linecap: round;">FR</tspan></text><text transform="translate(0, 0)"><tspan fill="rgb(123, 123, 123)" style="font-family: Arial; font-weight: 400; font-size: 14px;" x="0" y="5.6">FR</tspan></text></g></g><g id="label-svg" transform="translate(60, 92.31892333573487)"><g id="GE-svg"><text transform="translate(-10.12500, 0.00000) translate(10.125, 0)" style="text-anchor: middle;"><tspan x="0" y="14" style="font-family: Arial; font-weight: 400; font-size: 14px; stroke: rgb(255, 255, 255); stroke-width: 5; stroke-linejoin: round; stroke-linecap: round;">GE</tspan></text><text transform="translate(-10.12500, 0.00000) translate(10.125, 0)" style="text-anchor: middle;"><tspan fill="rgb(123, 123, 123)" style="font-family: Arial; font-weight: 400; font-size: 14px;" x="0" y="14">GE</tspan></text></g></g><g id="label-svg" transform="translate(193, 162.31892333573487)"><g id="GL-svg"><text transform="translate(-9.45313, 0.00000) translate(9.453125, 0)" style="text-anchor: middle;"><tspan x="0" y="14" style="font-family: Arial; font-weight: 400; font-size: 14px; stroke: rgb(255, 255, 255); stroke-width: 5; stroke-linejoin: round; stroke-linecap: round;">GL</tspan></text><text transform="translate(-9.45313, 0.00000) translate(9.453125, 0)" style="text-anchor: middle;"><tspan fill="rgb(123, 123, 123)" style="font-family: Arial; font-weight: 400; font-size: 14px;" x="0" y="14">GL</tspan></text></g></g><g id="label-svg" transform="translate(368.3189233357349, 99)"><g id="GR-svg"><text transform="translate(0, 0)"><tspan x="0" y="5.6" style="font-family: Arial; font-weight: 400; font-size: 14px; stroke: rgb(255, 255, 255); stroke-width: 5; stroke-linejoin: round; stroke-linecap: round;">GR</tspan></text><text transform="translate(0, 0)"><tspan fill="rgb(123, 123, 123)" style="font-family: Arial; font-weight: 400; font-size: 14px;" x="0" y="5.6">GR</tspan></text></g></g><g id="label-svg" transform="translate(663, 158.31892333573487)"><g id="JU-svg"><text transform="translate(-8.56250, 0.00000) translate(8.5625, 0)" style="text-anchor: middle;"><tspan x="0" y="14" style="font-family: Arial; font-weight: 400; font-size: 14px; stroke: rgb(255, 255, 255); stroke-width: 5; stroke-linejoin: round; stroke-linecap: round;">JU</tspan></text><text transform="translate(-8.56250, 0.00000) translate(8.5625, 0)" style="text-anchor: middle;"><tspan fill="rgb(123, 123, 123)" style="font-family: Arial; font-weight: 400; font-size: 14px;" x="0" y="14">JU</tspan></text></g></g><g id="label-svg" transform="translate(429.6810766642651, 88)"><g id="LU-svg"><text transform="translate(-17.90625, 0.00000) translate(17.90625, 0)" style="text-anchor: end;"><tspan x="0" y="5.6" style="font-family: Arial; font-weight: 400; font-size: 14px; stroke: rgb(255, 255, 255); stroke-width: 5; stroke-linejoin: round; stroke-linecap: round;">LU</tspan></text><text transform="translate(-17.90625, 0.00000) translate(17.90625, 0)" style="text-anchor: end;"><tspan fill="rgb(123, 123, 123)" style="font-family: Arial; font-weight: 400; font-size: 14px;" x="0" y="5.6">LU</tspan></text></g></g><g id="label-svg" transform="translate(535, 62.681076664265134)"><g id="NE-svg"><text transform="translate(-9.73438, 0.00000) translate(9.734375, 0)" style="text-anchor: middle;"><tspan x="0" y="-2.8000000000000007" style="font-family: Arial; font-weight: 400; font-size: 14px; stroke: rgb(255, 255, 255); stroke-width: 5; stroke-linejoin: round; stroke-linecap: round;">NE</tspan></text><text transform="translate(-9.73438, 0.00000) translate(9.734375, 0)" style="text-anchor: middle;"><tspan fill="rgb(123, 123, 123)" style="font-family: Arial; font-weight: 400; font-size: 14px;" x="0" y="-2.8000000000000007">NE</tspan></text></g></g><g id="label-svg" transform="translate(353, 123.31892333573487)"><g id="NW-svg"><text transform="translate(-12.06250, 0.00000) translate(12.0625, 0)" style="text-anchor: middle;"><tspan x="0" y="14" style="font-family: Arial; font-weight: 400; font-size: 14px; stroke: rgb(255, 255, 255); stroke-width: 5; stroke-linejoin: round; stroke-linecap: round;">NW</tspan></text><text transform="translate(-12.06250, 0.00000) translate(12.0625, 0)" style="text-anchor: middle;"><tspan fill="rgb(123, 123, 123)" style="font-family: Arial; font-weight: 400; font-size: 14px;" x="0" y="14">NW</tspan></text></g></g><g id="label-svg" transform="translate(394.3189233357349, 178)"><g id="OW-svg"><text transform="translate(0, 0)"><tspan x="0" y="5.6" style="font-family: Arial; font-weight: 400; font-size: 14px; stroke: rgb(255, 255, 255); stroke-width: 5; stroke-linejoin: round; stroke-linecap: round;">OW</tspan></text><text transform="translate(0, 0)"><tspan fill="rgb(123, 123, 123)" style="font-family: Arial; font-weight: 400; font-size: 14px;" x="0" y="5.6">OW</tspan></text></g></g><g id="label-svg" transform="translate(285.6810766642651, 107)"><g id="SH-svg"><text transform="translate(-19.45313, 0.00000) translate(19.453125, 0)" style="text-anchor: end;"><tspan x="0" y="5.6" style="font-family: Arial; font-weight: 400; font-size: 14px; stroke: rgb(255, 255, 255); stroke-width: 5; stroke-linejoin: round; stroke-linecap: round;">SH</tspan></text><text transform="translate(-19.45313, 0.00000) translate(19.453125, 0)" style="text-anchor: end;"><tspan fill="rgb(123, 123, 123)" style="font-family: Arial; font-weight: 400; font-size: 14px;" x="0" y="5.6">SH</tspan></text></g></g><g id="label-svg" transform="translate(285.6810766642651, 198)"><g id="SZ-svg"><text transform="translate(-18.34375, 0.00000) translate(18.34375, 0)" style="text-anchor: end;"><tspan x="0" y="5.6" style="font-family: Arial; font-weight: 400; font-size: 14px; stroke: rgb(255, 255, 255); stroke-width: 5; stroke-linejoin: round; stroke-linecap: round;">SZ</tspan></text><text transform="translate(-18.34375, 0.00000) translate(18.34375, 0)" style="text-anchor: end;"><tspan fill="rgb(123, 123, 123)" style="font-family: Arial; font-weight: 400; font-size: 14px;" x="0" y="5.6">SZ</tspan></text></g></g><g id="label-svg" transform="translate(241, 69.68107666426513)"><g id="SO-svg"><text transform="translate(-10.17969, 0.00000) translate(10.1796875, 0)" style="text-anchor: middle;"><tspan x="0" y="-2.8000000000000007" style="font-family: Arial; font-weight: 400; font-size: 14px; stroke: rgb(255, 255, 255); stroke-width: 5; stroke-linejoin: round; stroke-linecap: round;">SO</tspan></text><text transform="translate(-10.17969, 0.00000) translate(10.1796875, 0)" style="text-anchor: middle;"><tspan fill="rgb(123, 123, 123)" style="font-family: Arial; font-weight: 400; font-size: 14px;" x="0" y="-2.8000000000000007">SO</tspan></text></g></g><g id="label-svg" transform="translate(309.3189233357349, 149)"><g id="SG-svg"><text transform="translate(0, 0)"><tspan x="0" y="5.6" style="font-family: Arial; font-weight: 400; font-size: 14px; stroke: rgb(255, 255, 255); stroke-width: 5; stroke-linejoin: round; stroke-linecap: round;">SG</tspan></text><text transform="translate(0, 0)"><tspan fill="rgb(123, 123, 123)" style="font-family: Arial; font-weight: 400; font-size: 14px;" x="0" y="5.6">SG</tspan></text></g></g><g id="label-svg" transform="translate(66, 54.681076664265134)"><g id="TI-svg"><text transform="translate(-6.23438, 0.00000) translate(6.234375, 0)" style="text-anchor: middle;"><tspan x="0" y="-2.8000000000000007" style="font-family: Arial; font-weight: 400; font-size: 14px; stroke: rgb(255, 255, 255); stroke-width: 5; stroke-linejoin: round; stroke-linecap: round;">TI</tspan></text><text transform="translate(-6.23438, 0.00000) translate(6.234375, 0)" style="text-anchor: middle;"><tspan fill="rgb(123, 123, 123)" style="font-family: Arial; font-weight: 400; font-size: 14px;" x="0" y="-2.8000000000000007">TI</tspan></text></g></g><g id="label-svg" transform="translate(183.68107666426513, 149)"><g id="TG-svg"><text transform="translate(-19.57813, 0.00000) translate(19.578125, 0)" style="text-anchor: end;"><tspan x="0" y="5.6" style="font-family: Arial; font-weight: 400; font-size: 14px; stroke: rgb(255, 255, 255); stroke-width: 5; stroke-linejoin: round; stroke-linecap: round;">TG</tspan></text><text transform="translate(-19.57813, 0.00000) translate(19.578125, 0)" style="text-anchor: end;"><tspan fill="rgb(123, 123, 123)" style="font-family: Arial; font-weight: 400; font-size: 14px;" x="0" y="5.6">TG</tspan></text></g></g><g id="label-svg" transform="translate(229.31892333573487, 136)"><g id="UR-svg"><text transform="translate(0, 0)"><tspan x="0" y="5.6" style="font-family: Arial; font-weight: 400; font-size: 14px; stroke: rgb(255, 255, 255); stroke-width: 5; stroke-linejoin: round; stroke-linecap: round;">UR</tspan></text><text transform="translate(0, 0)"><tspan fill="rgb(123, 123, 123)" style="font-family: Arial; font-weight: 400; font-size: 14px;" x="0" y="5.6">UR</tspan></text></g></g><g id="label-svg" transform="translate(469.3189233357349, 78)"><g id="VD-svg"><text transform="translate(0, 0)"><tspan x="0" y="5.6" style="font-family: Arial; font-weight: 400; font-size: 14px; stroke: rgb(255, 255, 255); stroke-width: 5; stroke-linejoin: round; stroke-linecap: round;">VD</tspan></text><text transform="translate(0, 0)"><tspan fill="rgb(123, 123, 123)" style="font-family: Arial; font-weight: 400; font-size: 14px;" x="0" y="5.6">VD</tspan></text></g></g><g id="label-svg" transform="translate(481, 128.31892333573487)"><g id="VS-svg"><text transform="translate(-9.34375, 0.00000) translate(9.34375, 0)" style="text-anchor: middle;"><tspan x="0" y="14" style="font-family: Arial; font-weight: 400; font-size: 14px; stroke: rgb(255, 255, 255); stroke-width: 5; stroke-linejoin: round; stroke-linecap: round;">VS</tspan></text><text transform="translate(-9.34375, 0.00000) translate(9.34375, 0)" style="text-anchor: middle;"><tspan fill="rgb(123, 123, 123)" style="font-family: Arial; font-weight: 400; font-size: 14px;" x="0" y="14">VS</tspan></text></g></g><g id="label-svg" transform="translate(348, 68.68107666426513)"><g id="ZG-svg"><text transform="translate(-9.78906, 0.00000) translate(9.7890625, 0)" style="text-anchor: middle;"><tspan x="0" y="-2.8000000000000007" style="font-family: Arial; font-weight: 400; font-size: 14px; stroke: rgb(255, 255, 255); stroke-width: 5; stroke-linejoin: round; stroke-linecap: round;">ZG</tspan></text><text transform="translate(-9.78906, 0.00000) translate(9.7890625, 0)" style="text-anchor: middle;"><tspan fill="rgb(123, 123, 123)" style="font-family: Arial; font-weight: 400; font-size: 14px;" x="0" y="-2.8000000000000007">ZG</tspan></text></g></g><g id="label-svg" transform="translate(444, 47.681076664265134)"><g id="ZH-svg"><text transform="translate(-9.34375, 0.00000) translate(9.34375, 0)" style="text-anchor: middle;"><tspan x="0" y="-2.8000000000000007" style="font-family: Arial; font-weight: 400; font-size: 14px; stroke: rgb(255, 255, 255); stroke-width: 5; stroke-linejoin: round; stroke-linecap: round;">ZH</tspan></text><text transform="translate(-9.34375, 0.00000) translate(9.34375, 0)" style="text-anchor: middle;"><tspan fill="rgb(123, 123, 123)" style="font-family: Arial; font-weight: 400; font-size: 14px;" x="0" y="-2.8000000000000007">ZH</tspan></text></g></g></g></g></g><g id="Part-svg de-svg la-svg population-svg inscrite-svg au-svg registre-svg des-svg donneurs-svg d'organes-svg"><text transform="translate(758, 299.875)" style="text-anchor: end;"><tspan x="0" y="14" style="font-family: Arial; font-weight: 700; font-size: 14px; stroke: rgb(255, 255, 255); stroke-width: 2; stroke-linejoin: round; stroke-linecap: round;">Part de la</tspan><tspan x="0" y="30" style="font-family: Arial; font-weight: 700; font-size: 14px; stroke: rgb(255, 255, 255); stroke-width: 2; stroke-linejoin: round; stroke-linecap: round;">population</tspan><tspan x="0" y="46" style="font-family: Arial; font-weight: 700; font-size: 14px; stroke: rgb(255, 255, 255); stroke-width: 2; stroke-linejoin: round; stroke-linecap: round;">inscrite au</tspan><tspan x="0" y="62" style="font-family: Arial; font-weight: 700; font-size: 14px; stroke: rgb(255, 255, 255); stroke-width: 2; stroke-linejoin: round; stroke-linecap: round;">registre des</tspan><tspan x="0" y="78" style="font-family: Arial; font-weight: 700; font-size: 14px; stroke: rgb(255, 255, 255); stroke-width: 2; stroke-linejoin: round; stroke-linecap: round;">donneurs</tspan><tspan x="0" y="94" style="font-family: Arial; font-weight: 700; font-size: 14px; stroke: rgb(255, 255, 255); stroke-width: 2; stroke-linejoin: round; stroke-linecap: round;">d'organes</tspan></text><text transform="translate(758, 299.875)" style="text-anchor: end;"><tspan fill="rgb(123,123,123)" x="0" y="14" style="font-family: Arial; font-weight: 700; font-size: 14px;">Part de la</tspan><tspan fill="rgb(123,123,123)" x="0" y="30" style="font-family: Arial; font-weight: 700; font-size: 14px;">population</tspan><tspan fill="rgb(123,123,123)" x="0" y="46" style="font-family: Arial; font-weight: 700; font-size: 14px;">inscrite au</tspan><tspan fill="rgb(123,123,123)" x="0" y="62" style="font-family: Arial; font-weight: 700; font-size: 14px;">registre des</tspan><tspan fill="rgb(123,123,123)" x="0" y="78" style="font-family: Arial; font-weight: 700; font-size: 14px;">donneurs</tspan><tspan fill="rgb(123,123,123)" x="0" y="94" style="font-family: Arial; font-weight: 700; font-size: 14px;">d'organes</tspan></text></g><g id="Pourcentage-svg de-svg oui-svg à-svg la-svg loi-svg sur-svg la-svg transplantation-svg"><text transform="translate(40.25, 145.875)"><tspan x="0" y="14" style="font-family: Arial; font-weight: 700; font-size: 14px; stroke: rgb(255, 255, 255); stroke-width: 2; stroke-linejoin: round; stroke-linecap: round;">Pourcentage de ​</tspan><tspan x="0" y="30" style="font-family: Arial; font-weight: 700; font-size: 14px; stroke: rgb(255, 255, 255); stroke-width: 2; stroke-linejoin: round; stroke-linecap: round;">oui à la loi sur la ​</tspan><tspan x="0" y="46" style="font-family: Arial; font-weight: 700; font-size: 14px; stroke: rgb(255, 255, 255); stroke-width: 2; stroke-linejoin: round; stroke-linecap: round;">transplantation</tspan></text><text transform="translate(40.25, 145.875)"><tspan fill="rgb(123,123,123)" x="0" y="14" style="font-family: Arial; font-weight: 700; font-size: 14px;">Pourcentage de ​</tspan><tspan fill="rgb(123,123,123)" x="0" y="30" style="font-family: Arial; font-weight: 700; font-size: 14px;">oui à la loi sur la ​</tspan><tspan fill="rgb(123,123,123)" x="0" y="46" style="font-family: Arial; font-weight: 700; font-size: 14px;">transplantation</tspan></text></g></g><g id="above-footer-svg"><text transform="translate(0, 446.875)"><tspan fill="rgb(51,51,51)" x="0" y="12" style="font-family: Arial; font-weight: 400; font-size: 12px;">Plus un canton est situé ​</tspan><tspan fill="rgb(51,51,51)" style="font-family: Arial; font-weight: 700; font-size: 12px;">à droite</tspan><tspan fill="rgb(51,51,51)" style="font-family: Arial; font-weight: 400; font-size: 12px;">​ sur l'axe horizontal, plus le nombre de personnes inscrites au registre des donneurs d'organes est élevé.</tspan><tspan fill="rgb(51,51,51)" x="0" y="26" style="font-family: Arial; font-weight: 400; font-size: 12px;">Plus un canton se situe ​</tspan><tspan fill="rgb(51,51,51)" style="font-family: Arial; font-weight: 700; font-size: 12px;">en haut</tspan><tspan fill="rgb(51,51,51)" style="font-family: Arial; font-weight: 400; font-size: 12px;">​ sur l'axe vertical, plus sa part de oui à la loi sur la transplantation est importante.</tspan><tspan fill="rgb(51,51,51)" x="0" y="40" style="font-family: Arial; font-weight: 400; font-size: 12px;">La mesure d'association R² est de ​</tspan><tspan fill="rgb(51,51,51)" style="font-family: Arial; font-weight: 700; font-size: 12px;">0.xx</tspan><tspan fill="rgb(51,51,51)" style="font-family: Arial; font-weight: 400; font-size: 12px;">, ela valeur pouvant atteindre au maximum 1.</tspan></text></g><g id="footer-svg"><text transform="translate(0, 493.875)"><tspan fill="rgb(136,136,136)" x="0" y="11" style="font-family: Arial; font-weight: 400; font-size: 11px;">Graphique:</tspan><tspan fill="rgb(136,136,136)" style="font-family: Arial; font-weight: 400; font-size: 11px;">​ ​</tspan><tspan fill="rgb(136,136,136)" style="font-family: Arial; font-weight: 400; font-size: 11px;">Keystone-ATS</tspan><tspan fill="rgb(136,136,136)" style="font-family: Arial; font-weight: 400; font-size: 11px;">​ ​</tspan><tspan fill="rgb(136,136,136)" style="font-family: Arial; font-weight: 400; font-size: 11px;">•</tspan><tspan fill="rgb(136,136,136)" style="font-family: Arial; font-weight: 400; font-size: 11px;">​ ​</tspan><tspan fill="rgb(136,136,136)" style="font-family: Arial; font-weight: 400; font-size: 11px;">Source</tspan><tspan fill="rgb(136,136,136)" style="font-family: Arial; font-weight: 400; font-size: 11px;">:</tspan><tspan fill="rgb(136,136,136)" style="font-family: Arial; font-weight: 400; font-size: 11px;">​ ​</tspan><tspan fill="rgb(136,136,136)" style="font-family: Arial; font-weight: 400; font-size: 11px;">Office fédéral de la statistique / Office fédéral de la sante publique</tspan></text></g></g></g></svg>