<svg xmlns="http://www.w3.org/2000/svg" xmlns:xlink="http://www.w3.org/1999/xlink" id="exportSvg" width="768" height="525"><defs/><rect width="768" height="525" transform="translate(0, 0)" fill="#FFFFFF" style="fill: rgb(255, 255, 255);"/><g><g id="__svelte-dw-svg" clip-path="url(#rect-mask-__svelte-dw-1b0nInr2dKBEkzE-xnHgH)"><clipPath id="rect-mask-__svelte-dw-1b0nInr2dKBEkzE-xnHgH"><rect x="0" y="0" width="768" height="517.875"/></clipPath><g id="header-svg"><text transform="translate(0, 0)"><tspan fill="rgb(51,51,51)" x="0" y="22" style="font-family: Arial; font-weight: 700; font-size: 22px;">Più ci sono iscrizioni volontarie al registro di donazione organi, più la</tspan><tspan fill="rgb(51,51,51)" x="0" y="48" style="font-family: Arial; font-weight: 700; font-size: 22px;">legge sui trapianti è accettata</tspan></text><text transform="translate(0, 57)"><tspan fill="rgb(51,51,51)" x="0" y="14" style="font-family: Arial; font-weight: 400; font-size: 14px;">La linea nera mostra la connessione fra le iscrizioni al registro nazionale di donazione organi e l’approvazione della legge</tspan><tspan fill="rgb(51,51,51)" x="0" y="31" style="font-family: Arial; font-weight: 400; font-size: 14px;">sui trapianti nella votazione del 15 maggio 2022.</tspan></text></g><g id="chart-svg"><text transform="translate(0, 107)" id="#1f77b4"><tspan fill="rgb(51,51,51)" x="17" y="14.875" style="font-family: Arial; font-weight: 400; font-size: 14px;">Legge</tspan><tspan fill="rgb(51,51,51)" style="font-family: Arial; font-weight: 400; font-size: 14px;">​ approvata</tspan></text><circle r="7" cx="7" cy="116.375" fill="rgb(31,119,180)"/><text transform="translate(132.109375, 107)" id="#c71e1d"><tspan fill="rgb(51,51,51)" x="17" y="14.875" style="font-family: Arial; font-weight: 400; font-size: 14px;">Legge</tspan><tspan fill="rgb(51,51,51)" style="font-family: Arial; font-weight: 400; font-size: 14px;">​ respinta</tspan></text><circle r="7" cx="139.109375" cy="116.375" fill="rgb(199,30,29)"/><g id="group-svg" clip-path="url(#rect-mask-group-McrgCQPbWptH0QoJTQr4s)" transform="translate(0.00000, 135.87500)"><clipPath id="rect-mask-group-McrgCQPbWptH0QoJTQr4s"><rect x="0" y="0" width="768" height="300"/></clipPath><g id="group-svg" transform="translate(35.25, 10)"><g id="grid-svg"><g id="x-grid-lines-svg grid-x-svg datawrapper-lHQVh-1l9st31-svg"><line x1="0" x2="0" y1="267" y2="0" transform="translate(33.57909292035396, 0)" style="fill: none; stroke-width: 1; stroke-linejoin: miter; stroke-linecap: butt; stroke: rgb(232, 232, 232);"/><line x1="0" x2="0" y1="267" y2="0" transform="translate(140.17938790560467, 0)" style="fill: none; stroke-width: 1; stroke-linejoin: miter; stroke-linecap: butt; stroke: rgb(232, 232, 232);"/><line x1="0" x2="0" y1="267" y2="0" transform="translate(246.7796828908555, 0)" style="fill: none; stroke-width: 1; stroke-linejoin: miter; stroke-linecap: butt; stroke: rgb(232, 232, 232);"/><line x1="0" x2="0" y1="267" y2="0" transform="translate(353.37997787610624, 0)" style="fill: none; stroke-width: 1; stroke-linejoin: miter; stroke-linecap: butt; stroke: rgb(232, 232, 232);"/><line x1="0" x2="0" y1="267" y2="0" transform="translate(459.9802728613569, 0)" style="fill: none; stroke-width: 1; stroke-linejoin: miter; stroke-linecap: butt; stroke: rgb(232, 232, 232);"/><line x1="0" x2="0" y1="267" y2="0" transform="translate(566.5805678466078, 0)" style="fill: none; stroke-width: 1; stroke-linejoin: miter; stroke-linecap: butt; stroke: rgb(232, 232, 232);"/><line x1="0" x2="0" y1="267" y2="0" transform="translate(673.1808628318585, 0)" style="fill: none; stroke-width: 1; stroke-linejoin: miter; stroke-linecap: butt; stroke: rgb(232, 232, 232);"/></g><g id="y-grid-lines-svg grid-y-svg datawrapper-lHQVh-1l9st31-svg"><line x1="0" x2="722.75" y1="0" y2="0" transform="translate(0, 195.86742424242425)" style="fill: none; stroke-width: 1; stroke-linejoin: miter; stroke-linecap: butt; stroke: rgb(232, 232, 232);"/><line x1="0" x2="722.75" y1="0" y2="0" transform="translate(0, 111.58712121212119)" style="fill: none; stroke-width: 1; stroke-linejoin: miter; stroke-linecap: butt; stroke: rgb(232, 232, 232);"/><line x1="0" x2="722.75" y1="0" y2="0" transform="translate(0, 27.30681818181816)" style="fill: none; stroke-width: 1; stroke-linejoin: miter; stroke-linecap: butt; stroke: rgb(232, 232, 232);"/></g></g><g id="lines-svg"><path d="M0,195.86742424242425L0.9999999999999823,195.86742424242425,1.9999999999999647,195.86742424242425,2.9999999999999476,195.86742424242425,4.000000000000048,195.86742424242425,5.00000000000003,195.86742424242425,6.000000000000012,195.86742424242425,6.999999999999996,195.86742424242425,7.999999999999978,195.86742424242425,8.999999999999961,195.86742424242425,9.999999999999943,195.86742424242425,11.000000000000043,195.86742424242425,12.000000000000025,195.86742424242425,13.000000000000009,195.86742424242425,13.999999999999991,195.86742424242425,14.999999999999973,195.86742424242425,15.999999999999956,195.86742424242425,17.000000000000057,195.86742424242425,18.00000000000004,195.86742424242425,19.00000000000002,195.86742424242425,20.000000000000004,195.86742424242425,20.999999999999986,195.86742424242425,21.999999999999968,195.86742424242425,22.999999999999947,195.86742424242425,24.00000000000005,195.86742424242425,25.000000000000036,195.86742424242425,26.000000000000018,195.86742424242425,27,195.86742424242425,27.999999999999982,195.86742424242425,28.999999999999964,195.86742424242425,29.999999999999947,195.86742424242425,31.000000000000043,195.86742424242425,32.00000000000003,195.86742424242425,33.00000000000001,195.86742424242425,33.99999999999999,195.86742424242425,34.99999999999997,195.86742424242425,35.99999999999996,195.86742424242425,37.00000000000006,195.86742424242425,38.00000000000004,195.86742424242425,39.00000000000002,195.86742424242425,40.00000000000001,195.86742424242425,40.99999999999999,195.86742424242425,41.99999999999997,195.86742424242425,42.99999999999996,195.86742424242425,44.00000000000005,195.86742424242425,45.000000000000036,195.86742424242425,46.000000000000014,195.86742424242425,47.00000000000001,195.86742424242425,47.99999999999998,195.86742424242425,48.99999999999997,195.86742424242425,49.99999999999995,195.86742424242425,51.00000000000004,195.86742424242425,52.000000000000036,195.86742424242425,53.00000000000001,195.86742424242425,54,195.86742424242425,54.99999999999997,195.86742424242425,55.999999999999964,195.86742424242425,56.99999999999994,195.86742424242425,58.00000000000005,195.86742424242425,59.00000000000003,195.86742424242425,60.000000000000014,195.86742424242425,60.99999999999999,195.86742424242425,61.99999999999998,195.86742424242425,62.99999999999996,195.86742424242425,64.00000000000006,195.86742424242425,65.00000000000004,195.86742424242425,66.00000000000001,195.86742424242425,67,195.86742424242425,67.99999999999999,195.86742424242425,68.99999999999997,195.86742424242425,69.99999999999994,195.86742424242425,70.99999999999993,195.86742424242425,72.00000000000003,195.86742424242425,73.00000000000001,195.86742424242425,74,195.86742424242425,74.99999999999999,195.86742424242425,75.99999999999996,195.86742424242425,77.00000000000006,195.86742424242425,78.00000000000004,195.86742424242425,79.00000000000003,195.86742424242425,80.00000000000001,195.86742424242425,80.99999999999999,195.86742424242425,81.99999999999999,195.86742424242425,82.99999999999996,195.86742424242425,83.99999999999994,195.86742424242425,85.00000000000004,195.86742424242425,86.00000000000003,195.86742424242425,87,195.86742424242425,88,195.86742424242425,88.99999999999997,195.86742424242425,89.99999999999996,195.86742424242425,91.00000000000004,195.86742424242425,92.00000000000003,195.86742424242425,93.00000000000003,195.86742424242425,94.00000000000001,195.86742424242425,94.99999999999997,195.86742424242425,95.99999999999996,195.86742424242425,96.99999999999996,195.86742424242425,98.00000000000006,195.86742424242425,99.00000000000003,195.86742424242425,100.00000000000001,195.86742424242425,101,195.86742424242425,101.99999999999997,195.86742424242425,102.99999999999996,195.86742424242425,104.00000000000007,195.86742424242425,105.00000000000006,195.86742424242425,106.00000000000001,195.86742424242425,107.00000000000001,195.86742424242425,108,195.86742424242425,108.99999999999999,195.86742424242425,109.99999999999994,195.86742424242425,110.99999999999994,195.86742424242425,112.00000000000004,195.86742424242425,113.00000000000001,195.86742424242425,114,195.86742424242425,114.99999999999999,195.86742424242425,115.99999999999997,195.86742424242425,116.99999999999994,195.86742424242425,118.00000000000006,195.86742424242425,119.00000000000004,195.86742424242425,120.00000000000003,195.86742424242425,121,195.86742424242425,121.99999999999999,195.86742424242425,122.99999999999997,195.86742424242425,123.99999999999996,195.86742424242425,125.00000000000004,195.86742424242425,126.00000000000003,195.86742424242425,127.00000000000001,195.86742424242425,127.99999999999999,195.86742424242425,128.99999999999997,195.86742424242425,129.99999999999997,195.86742424242425,131.00000000000006,195.86742424242425,132.00000000000003,195.86742424242425,133.00000000000003,195.86742424242425,134,195.86742424242425,135,195.86742424242425,135.99999999999997,195.86742424242425,136.99999999999994,195.86742424242425,137.99999999999994,195.86742424242425,139.00000000000003,195.86742424242425,140.00000000000003,195.86742424242425,141,195.86742424242425,142,195.86742424242425,142.99999999999997,195.86742424242425,144.00000000000006,195.86742424242425,145.00000000000006,195.86742424242425,146.00000000000003,195.86742424242425,147,195.86742424242425,148,195.86742424242425,148.99999999999997,195.86742424242425,149.99999999999997,195.86742424242425,150.99999999999994,195.86742424242425,152.00000000000006,195.86742424242425,153.00000000000003,195.86742424242425,154,195.86742424242425,155,195.86742424242425,155.99999999999997,195.86742424242425,157.00000000000009,195.86742424242425,158.00000000000006,195.86742424242425,159.00000000000003,195.86742424242425,160.00000000000003,195.86742424242425,161.00000000000003,195.86742424242425,161.99999999999997,195.86742424242425,162.99999999999997,195.86742424242425,163.99999999999997,195.86742424242425,164.99999999999994,195.86742424242425,166.00000000000003,195.86742424242425,167.00000000000003,195.86742424242425,168,195.86742424242425,168.99999999999997,195.86742424242425,169.99999999999997,195.86742424242425,170.99999999999994,195.86742424242425,172.00000000000006,195.86742424242425,173.00000000000003,195.86742424242425,174,195.86742424242425,175,195.86742424242425,176,195.86742424242425,176.99999999999994,195.86742424242425,177.99999999999994,195.86742424242425,178.99999999999994,195.86742424242425,180.00000000000003,195.86742424242425,181.00000000000003,195.86742424242425,181.99999999999997,195.86742424242425,182.99999999999997,195.86742424242425,183.99999999999994,195.86742424242425,185.00000000000006,195.86742424242425,186.00000000000006,195.86742424242425,187.00000000000003,195.86742424242425,188.00000000000003,195.86742424242425,189,195.86742424242425,189.99999999999994,195.86742424242425,190.99999999999994,195.86742424242425,192.00000000000006,195.86742424242425,193.00000000000003,195.86742424242425,194.00000000000003,195.86742424242425,195,195.86742424242425,196,195.86742424242425,196.99999999999994,195.86742424242425,198.00000000000006,195.86742424242425,199.00000000000003,195.86742424242425,200.00000000000003,195.86742424242425,201.00000000000003,195.86742424242425,202,195.86742424242425,203,195.86742424242425,203.99999999999994,195.86742424242425,204.99999999999991,195.86742424242425,205.99999999999991,195.86742424242425,207.00000000000003,195.86742424242425,208,195.86742424242425,209,195.86742424242425,209.99999999999997,195.86742424242425,211.00000000000009,195.86742424242425,212.00000000000003,195.86742424242425,213.00000000000003,195.86742424242425,214.00000000000003,195.86742424242425,215,195.86742424242425,216,195.86742424242425,216.99999999999997,195.86742424242425,217.99999999999997,195.86742424242425,218.99999999999991,195.86742424242425,219.9999999999999,195.86742424242425,221,195.86742424242425,222,195.86742424242425,222.99999999999997,195.86742424242425,224.00000000000009,195.86742424242425,225.00000000000009,195.86742424242425,226.00000000000003,195.86742424242425,227,195.86742424242425,228,195.86742424242425,229,195.86742424242425,229.99999999999997,195.86742424242425,230.99999999999997,195.86742424242425,231.99999999999994,195.86742424242425,233.00000000000006,195.86742424242425,234,195.86742424242425,235,195.86742424242425,235.99999999999997,195.86742424242425,236.99999999999997,195.86742424242425,237.99999999999994,195.86742424242425,239.00000000000006,195.86742424242425,240.00000000000006,195.86742424242425,241,195.86742424242425,242,195.86742424242425,242.99999999999997,195.86742424242425,243.99999999999997,195.86742424242425,244.99999999999994,195.86742424242425,246.00000000000006,195.86742424242425,247.00000000000006,195.86742424242425,248.00000000000003,195.86742424242425,248.99999999999997,195.86742424242425,249.99999999999997,195.86742424242425,250.99999999999994,195.86742424242425,251.99999999999994,195.86742424242425,253.00000000000006,195.86742424242425,254.00000000000003,195.86742424242425,255.00000000000003,195.86742424242425,255.99999999999997,195.86742424242425,256.99999999999994,195.86742424242425,257.99999999999994,195.86742424242425,259.00000000000006,195.86742424242425,260.00000000000006,195.86742424242425,261.00000000000006,195.86742424242425,262,195.86742424242425,263,195.86742424242425,263.99999999999994,195.86742424242425,264.99999999999994,195.86742424242425,266.00000000000006,195.86742424242425,267.00000000000006,195.86742424242425,268,195.86742424242425,269,195.86742424242425,270,195.86742424242425,270.99999999999994,195.86742424242425,271.99999999999994,195.86742424242425,272.99999999999994,195.86742424242425,273.9999999999999,195.86742424242425,275,195.86742424242425,276,195.86742424242425,277,195.86742424242425,278.00000000000006,195.86742424242425,279.00000000000006,195.86742424242425,280.00000000000006,195.86742424242425,281,195.86742424242425,282,195.86742424242425,283,195.86742424242425,284,195.86742424242425,284.99999999999994,195.86742424242425,285.99999999999994,195.86742424242425,286.9999999999999,195.86742424242425,288,195.86742424242425,289,195.86742424242425,290,195.86742424242425,291.0000000000001,195.86742424242425,292.00000000000006,195.86742424242425,293.00000000000006,195.86742424242425,294,195.86742424242425,295,195.86742424242425,296,195.86742424242425,297,195.86742424242425,297.99999999999994,195.86742424242425,298.99999999999994,195.86742424242425,299.99999999999994,195.86742424242425,301,195.86742424242425,302,195.86742424242425,303,195.86742424242425,304.0000000000001,195.86742424242425,305.00000000000006,195.86742424242425,306.00000000000006,195.86742424242425,307.00000000000006,195.86742424242425,308,195.86742424242425,309,195.86742424242425,310,195.86742424242425,310.99999999999994,195.86742424242425,311.99999999999994,195.86742424242425,312.99999999999994,195.86742424242425,314.00000000000006,195.86742424242425,315,195.86742424242425,316,195.86742424242425,317.0000000000001,195.86742424242425,318.00000000000006,195.86742424242425,319.00000000000006,195.86742424242425,320.00000000000006,195.86742424242425,321.00000000000006,195.86742424242425,322.00000000000006,195.86742424242425,323,195.86742424242425,323.99999999999994,195.86742424242425,324.99999999999994,195.86742424242425,325.99999999999994,195.86742424242425,326.99999999999994,195.86742424242425,327.99999999999994,195.86742424242425,329,195.86742424242425,329.99999999999994,195.86742424242425,330.99999999999994,195.86742424242425,332.00000000000006,195.86742424242425,333.00000000000006,195.86742424242425,334.00000000000006,195.86742424242425,335.00000000000006,195.86742424242425,336,195.86742424242425,337,195.86742424242425,337.99999999999994,195.86742424242425,338.99999999999994,195.86742424242425,339.99999999999994,195.86742424242425,340.9999999999999,195.86742424242425,341.9999999999999,195.86742424242425,343,195.86742424242425,344,195.86742424242425,344.99999999999994,195.86742424242425,346.00000000000006,195.86742424242425,347.00000000000006,195.86742424242425,348,195.86742424242425,349,195.86742424242425,350,195.86742424242425,351,195.86742424242425,352,195.86742424242425,352.99999999999994,195.86742424242425,353.9999999999999,195.86742424242425,355,195.86742424242425,356,195.86742424242425,357,195.86742424242425,358,195.86742424242425,359.0000000000001,195.86742424242425,360.00000000000006,195.86742424242425,361,195.86742424242425,362.00000000000006,195.86742424242425,363.00000000000006,195.86742424242425,363.99999999999994,195.86742424242425,364.99999999999994,195.86742424242425,365.99999999999994,195.86742424242425,366.9999999999999,195.86742424242425,367.9999999999999,195.86742424242425,368.9999999999999,195.86742424242425,370.0000000000001,195.86742424242425,371.0000000000001,195.86742424242425,372.0000000000001,195.86742424242425,373.00000000000006,195.86742424242425,374.00000000000006,195.86742424242425,375.00000000000006,195.86742424242425,376.00000000000006,195.86742424242425,377,195.86742424242425,378,195.86742424242425,378.99999999999994,195.86742424242425,379.9999999999999,195.86742424242425,380.9999999999999,195.86742424242425,381.9999999999999,195.86742424242425,383.00000000000006,195.86742424242425,384.0000000000001,195.86742424242425,385.0000000000001,195.86742424242425,386.00000000000006,195.86742424242425,387.00000000000006,195.86742424242425,388.00000000000006,195.86742424242425,389.00000000000006,195.86742424242425,390,195.86742424242425,391,195.86742424242425,392,195.86742424242425,393,195.86742424242425,393.9999999999999,195.86742424242425,394.9999999999999,195.86742424242425,396.00000000000006,195.86742424242425,397,195.86742424242425,398,195.86742424242425,399.00000000000006,195.86742424242425,400.00000000000006,195.86742424242425,401.00000000000006,195.86742424242425,402.00000000000006,195.86742424242425,403,195.86742424242425,404,195.86742424242425,405,195.86742424242425,406,195.86742424242425,407,195.86742424242425,408.00000000000006,195.86742424242425,409,195.86742424242425,410,195.86742424242425,411,195.86742424242425,412,195.86742424242425,413,195.86742424242425,414.00000000000006,195.86742424242425,415.00000000000006,195.86742424242425,416,195.86742424242425,417,195.86742424242425,418,195.86742424242425,419,195.86742424242425,419.99999999999994,195.86742424242425,421.00000000000006,195.86742424242425,422,195.86742424242425,423,195.86742424242425,424,195.86742424242425,425,195.86742424242425,426,195.86742424242425,426.99999999999994,195.86742424242425,428.00000000000006,195.86742424242425,429,195.86742424242425,430,195.86742424242425,431,195.86742424242425,432,195.86742424242425,432.99999999999994,195.86742424242425,434.00000000000006,195.86742424242425,435,195.86742424242425,436,195.86742424242425,437,195.86742424242425,438,195.86742424242425,439,195.86742424242425,439.99999999999994,195.86742424242425,441.00000000000006,195.86742424242425,442,195.86742424242425,443,195.86742424242425,444,195.86742424242425,445,195.86742424242425,445.99999999999994,195.86742424242425,447.00000000000006,195.86742424242425,448,195.86742424242425,449,195.86742424242425,450,195.86742424242425,451,195.86742424242425,451.99999999999994,195.86742424242425,453.00000000000006,195.86742424242425,454,195.86742424242425,455,195.86742424242425,456,195.86742424242425,457,195.86742424242425,458,195.86742424242425,458.99999999999994,195.86742424242425,459.99999999999994,195.86742424242425,460.99999999999994,195.86742424242425,462.00000000000017,195.86742424242425,462.9999999999999,195.86742424242425,464.00000000000017,195.86742424242425,464.9999999999999,195.86742424242425,466.0000000000001,195.86742424242425,467,195.86742424242425,468,195.86742424242425,469,195.86742424242425,470,195.86742424242425,471,195.86742424242425,471.99999999999994,195.86742424242425,472.99999999999994,195.86742424242425,473.99999999999994,195.86742424242425,474.99999999999994,195.86742424242425,475.9999999999999,195.86742424242425,477.0000000000001,195.86742424242425,477.9999999999999,195.86742424242425,479.0000000000001,195.86742424242425,480.0000000000001,195.86742424242425,481.0000000000001,195.86742424242425,482,195.86742424242425,483,195.86742424242425,484,195.86742424242425,484.99999999999994,195.86742424242425,485.99999999999994,195.86742424242425,486.99999999999994,195.86742424242425,487.99999999999994,195.86742424242425,488.9999999999999,195.86742424242425,489.9999999999999,195.86742424242425,490.9999999999999,195.86742424242425,492.0000000000001,195.86742424242425,493.0000000000001,195.86742424242425,494.0000000000001,195.86742424242425,495.00000000000006,195.86742424242425,496.00000000000006,195.86742424242425,496.99999999999994,195.86742424242425,497.99999999999994,195.86742424242425,498.99999999999994,195.86742424242425,499.99999999999994,195.86742424242425,500.99999999999994,195.86742424242425,501.9999999999999,195.86742424242425,502.9999999999999,195.86742424242425,503.9999999999999,195.86742424242425,505.0000000000001,195.86742424242425,506.0000000000001,195.86742424242425,507.0000000000001,195.86742424242425,508.00000000000006,195.86742424242425,509.00000000000006,195.86742424242425,510.00000000000006,195.86742424242425,511.00000000000006,195.86742424242425,511.99999999999994,195.86742424242425,512.9999999999999,195.86742424242425,513.9999999999999,195.86742424242425,514.9999999999999,195.86742424242425,515.9999999999999,195.86742424242425,516.9999999999999,195.86742424242425,518.0000000000001,195.86742424242425,519.0000000000001,195.86742424242425,520.0000000000001,195.86742424242425,521.0000000000001,195.86742424242425,522.0000000000001,195.86742424242425,523,195.86742424242425,524,195.86742424242425,525,195.86742424242425,526,195.86742424242425,526.9999999999999,195.86742424242425,527.9999999999999,195.86742424242425,528.9999999999999,195.86742424242425,529.9999999999999,195.86742424242425,531.0000000000001,195.86742424242425,532.0000000000001,195.86742424242425,533.0000000000001,195.86742424242425,533.9999999999999,195.86742424242425,535.0000000000001,195.86742424242425,535.9999999999998,195.86742424242425,537,195.86742424242425,538,195.86742424242425,539,195.86742424242425,540,195.86742424242425,541,195.86742424242425,541.9999999999999,195.86742424242425,542.9999999999999,195.86742424242425,544.0000000000001,195.86742424242425,544.9999999999999,195.86742424242425,546.0000000000001,195.86742424242425,546.9999999999998,195.86742424242425,548,195.86742424242425,548.9999999999998,195.86742424242425,550,195.86742424242425,551,195.86742424242425,552,195.86742424242425,553,195.86742424242425,554,195.86742424242425,555,195.86742424242425,556,195.86742424242425,557.0000000000001,195.86742424242425,557.9999999999999,195.86742424242425,559.0000000000001,195.86742424242425,559.9999999999998,195.86742424242425,561,195.86742424242425,561.9999999999998,195.86742424242425,563,195.86742424242425,564,195.86742424242425,565,195.86742424242425,566,195.86742424242425,567,195.86742424242425,568,195.86742424242425,569,195.86742424242425,570.0000000000002,195.86742424242425,570.9999999999999,195.86742424242425,572.0000000000001,195.86742424242425,572.9999999999998,195.86742424242425,574,195.86742424242425,575,195.86742424242425,576,195.86742424242425,577,195.86742424242425,578,195.86742424242425,579,195.86742424242425,580,195.86742424242425,581,195.86742424242425,582,195.86742424242425,583.0000000000002,195.86742424242425,583.9999999999999,195.86742424242425,585.0000000000001,195.86742424242425,585.9999999999999,195.86742424242425,587,195.86742424242425,588,195.86742424242425,589,195.86742424242425,590,195.86742424242425,591,195.86742424242425,592,195.86742424242425,593,195.86742424242425,594,195.86742424242425,595,195.86742424242425,596.0000000000002,195.86742424242425,596.9999999999999,195.86742424242425,598.0000000000001,195.86742424242425,598.9999999999999,195.86742424242425,600.0000000000001,195.86742424242425,601,195.86742424242425,602,195.86742424242425,603,195.86742424242425,604,195.86742424242425,605,195.86742424242425,606,195.86742424242425,607,195.86742424242425,608,195.86742424242425,609.0000000000002,195.86742424242425,609.9999999999999,195.86742424242425,611.0000000000001,195.86742424242425,611.9999999999999,195.86742424242425,613.0000000000001,195.86742424242425,614.0000000000001,195.86742424242425,615.0000000000001,195.86742424242425,616,195.86742424242425,617,195.86742424242425,618,195.86742424242425,619,195.86742424242425,620.0000000000002,195.86742424242425,621,195.86742424242425,622.0000000000002,195.86742424242425,622.9999999999999,195.86742424242425,624.0000000000001,195.86742424242425,624.9999999999999,195.86742424242425,626.0000000000001,195.86742424242425,627.0000000000001,195.86742424242425,628.0000000000001,195.86742424242425,629.0000000000001,195.86742424242425,630,195.86742424242425,631,195.86742424242425,632,195.86742424242425,633,195.86742424242425,634,195.86742424242425,635.0000000000002,195.86742424242425,635.9999999999999,195.86742424242425,637.0000000000001,195.86742424242425,637.9999999999999,195.86742424242425,639.0000000000001,195.86742424242425,639.9999999999999,195.86742424242425,641.0000000000001,195.86742424242425,642.0000000000001,195.86742424242425,643.0000000000001,195.86742424242425,644.0000000000001,195.86742424242425,645,195.86742424242425,646,195.86742424242425,646.9999999999999,195.86742424242425,647.9999999999999,195.86742424242425,648.9999999999999,195.86742424242425,650.0000000000001,195.86742424242425,650.9999999999999,195.86742424242425,652.0000000000001,195.86742424242425,652.9999999999999,195.86742424242425,654.0000000000001,195.86742424242425,654.9999999999999,195.86742424242425,656.0000000000001,195.86742424242425,657.0000000000001,195.86742424242425,658,195.86742424242425,659,195.86742424242425,659.9999999999999,195.86742424242425,660.9999999999999,195.86742424242425,661.9999999999999,195.86742424242425,662.9999999999999,195.86742424242425,663.9999999999999,195.86742424242425,665.0000000000001,195.86742424242425,665.9999999999999,195.86742424242425,667.0000000000001,195.86742424242425,667.9999999999999,195.86742424242425,669.0000000000001,195.86742424242425,669.9999999999998,195.86742424242425,671,195.86742424242425,672,195.86742424242425,673,195.86742424242425,674,195.86742424242425,674.9999999999999,195.86742424242425,675.9999999999999,195.86742424242425,676.9999999999999,195.86742424242425,678.0000000000001,195.86742424242425,678.9999999999999,195.86742424242425,680.0000000000001,195.86742424242425,680.9999999999999,195.86742424242425,682.0000000000001,195.86742424242425,682.9999999999998,195.86742424242425,684,195.86742424242425,685,195.86742424242425,686,195.86742424242425,687,195.86742424242425,688,195.86742424242425,689,195.86742424242425,689.9999999999999,195.86742424242425,691.0000000000001,195.86742424242425,691.9999999999999,195.86742424242425,693.0000000000001,195.86742424242425,693.9999999999999,195.86742424242425,695.0000000000001,195.86742424242425,695.9999999999998,195.86742424242425,697,195.86742424242425,698,195.86742424242425,699,195.86742424242425,700,195.86742424242425,701,195.86742424242425,702,195.86742424242425,703,195.86742424242425,704.0000000000001,195.86742424242425,704.9999999999999,195.86742424242425,706.0000000000001,195.86742424242425,706.9999999999999,195.86742424242425,708.0000000000001,195.86742424242425,708.9999999999998,195.86742424242425,710,195.86742424242425,711,195.86742424242425,712,195.86742424242425,713,195.86742424242425,714,195.86742424242425,715,195.86742424242425,716,195.86742424242425,717.0000000000002,195.86742424242425,717.9999999999999,195.86742424242425,719.0000000000001,195.86742424242425,719.9999999999999,195.86742424242425,721.0000000000001,195.86742424242425,721.9999999999998,195.86742424242425" stroke="rgb(128,128,128)" style="mix-blend-mode: normal; fill: none; stroke-width: 1; stroke-linejoin: round; stroke-linecap: round; stroke-dasharray: 4, 4; stroke: rgb(128, 128, 128);"/></g><g id="polygons-svg"/><g id="dots-svg"><g id="dot-svg" transform="translate(305.4098451327433, 89.67424242424241)"><path d="M6.31892333573487,0A6.31892333573487,6.31892333573487,0,1,1,-6.31892333573487,0A6.31892333573487,6.31892333573487,0,1,1,6.31892333573487,0" style="mix-blend-mode: normal; fill: rgb(31, 119, 180);"/></g><g id="dot-svg" transform="translate(294.7498156342183, 193.33901515151518)"><path d="M6.31892333573487,0A6.31892333573487,6.31892333573487,0,1,1,-6.31892333573487,0A6.31892333573487,6.31892333573487,0,1,1,6.31892333573487,0" style="mix-blend-mode: normal; fill: rgb(31, 119, 180);"/></g><g id="dot-svg" transform="translate(156.1694321533923, 69.44696969696969)"><path d="M6.31892333573487,0A6.31892333573487,6.31892333573487,0,1,1,-6.31892333573487,0A6.31892333573487,6.31892333573487,0,1,1,6.31892333573487,0" style="mix-blend-mode: normal; fill: rgb(31, 119, 180);"/></g><g id="dot-svg" transform="translate(166.8294616519174, 22.25)"><path d="M6.31892333573487,0A6.31892333573487,6.31892333573487,0,1,1,-6.31892333573487,0A6.31892333573487,6.31892333573487,0,1,1,6.31892333573487,0" style="mix-blend-mode: normal; fill: rgb(31, 119, 180);"/></g><g id="dot-svg" transform="translate(454.65025811209443, 90.51704545454541)"><path d="M6.31892333573487,0A6.31892333573487,6.31892333573487,0,1,1,-6.31892333573487,0A6.31892333573487,6.31892333573487,0,1,1,6.31892333573487,0" style="mix-blend-mode: normal; fill: rgb(31, 119, 180);"/></g><g id="dot-svg" transform="translate(577.2405973451329, 98.10227272727269)"><path d="M6.31892333573487,0A6.31892333573487,6.31892333573487,0,1,1,-6.31892333573487,0A6.31892333573487,6.31892333573487,0,1,1,6.31892333573487,0" style="mix-blend-mode: normal; fill: rgb(31, 119, 180);"/></g><g id="dot-svg" transform="translate(60.229166666666664, 87.14583333333331)"><path d="M6.31892333573487,0A6.31892333573487,6.31892333573487,0,1,1,-6.31892333573487,0A6.31892333573487,6.31892333573487,0,1,1,6.31892333573487,0" style="mix-blend-mode: normal; fill: rgb(31, 119, 180);"/></g><g id="dot-svg" transform="translate(193.4795353982301, 160.46969696969694)"><path d="M6.31892333573487,0A6.31892333573487,6.31892333573487,0,1,1,-6.31892333573487,0A6.31892333573487,6.31892333573487,0,1,1,6.31892333573487,0" style="mix-blend-mode: normal; fill: rgb(31, 119, 180);"/></g><g id="dot-svg" transform="translate(358.7099926253688, 104.00189393939394)"><path d="M6.31892333573487,0A6.31892333573487,6.31892333573487,0,1,1,-6.31892333573487,0A6.31892333573487,6.31892333573487,0,1,1,6.31892333573487,0" style="mix-blend-mode: normal; fill: rgb(31, 119, 180);"/></g><g id="dot-svg" transform="translate(662.5208333333333, 156.25568181818178)"><path d="M6.31892333573487,0A6.31892333573487,6.31892333573487,0,1,1,-6.31892333573487,0A6.31892333573487,6.31892333573487,0,1,1,6.31892333573487,0" style="mix-blend-mode: normal; fill: rgb(31, 119, 180);"/></g><g id="dot-svg" transform="translate(438.6602138643068, 92.20265151515153)"><path d="M6.31892333573487,0A6.31892333573487,6.31892333573487,0,1,1,-6.31892333573487,0A6.31892333573487,6.31892333573487,0,1,1,6.31892333573487,0" style="mix-blend-mode: normal; fill: rgb(31, 119, 180);"/></g><g id="dot-svg" transform="translate(534.6004793510325, 75.3465909090909)"><path d="M6.31892333573487,0A6.31892333573487,6.31892333573487,0,1,1,-6.31892333573487,0A6.31892333573487,6.31892333573487,0,1,1,6.31892333573487,0" style="mix-blend-mode: normal; fill: rgb(31, 119, 180);"/></g><g id="dot-svg" transform="translate(353.37997787610624, 119.17234848484847)"><path d="M6.31892333573487,0A6.31892333573487,6.31892333573487,0,1,1,-6.31892333573487,0A6.31892333573487,6.31892333573487,0,1,1,6.31892333573487,0" style="mix-blend-mode: normal; fill: rgb(31, 119, 180);"/></g><g id="dot-svg" transform="translate(385.3600663716815, 186.59659090909088)"><path d="M6.31892333573487,0A6.31892333573487,6.31892333573487,0,1,1,-6.31892333573487,0A6.31892333573487,6.31892333573487,0,1,1,6.31892333573487,0" style="mix-blend-mode: normal; fill: rgb(31, 119, 180);"/></g><g id="dot-svg" transform="translate(294.7498156342183, 112.42992424242425)"><path d="M6.31892333573487,0A6.31892333573487,6.31892333573487,0,1,1,-6.31892333573487,0A6.31892333573487,6.31892333573487,0,1,1,6.31892333573487,0" style="mix-blend-mode: normal; fill: rgb(31, 119, 180);"/></g><g id="dot-svg" transform="translate(241.44966814159298, 82.93181818181816)"><path d="M6.31892333573487,0A6.31892333573487,6.31892333573487,0,1,1,-6.31892333573487,0A6.31892333573487,6.31892333573487,0,1,1,6.31892333573487,0" style="mix-blend-mode: normal; fill: rgb(31, 119, 180);"/></g><g id="dot-svg" transform="translate(300.07983038348084, 156.25568181818178)"><path d="M6.31892333573487,0A6.31892333573487,6.31892333573487,0,1,1,-6.31892333573487,0A6.31892333573487,6.31892333573487,0,1,1,6.31892333573487,0" style="mix-blend-mode: normal; fill: rgb(31, 119, 180);"/></g><g id="dot-svg" transform="translate(65.5591814159292, 66.91856060606062)"><path d="M6.31892333573487,0A6.31892333573487,6.31892333573487,0,1,1,-6.31892333573487,0A6.31892333573487,6.31892333573487,0,1,1,6.31892333573487,0" style="mix-blend-mode: normal; fill: rgb(31, 119, 180);"/></g><g id="dot-svg" transform="translate(193.4795353982301, 156.25568181818178)"><path d="M6.31892333573487,0A6.31892333573487,6.31892333573487,0,1,1,-6.31892333573487,0A6.31892333573487,6.31892333573487,0,1,1,6.31892333573487,0" style="mix-blend-mode: normal; fill: rgb(31, 119, 180);"/></g><g id="dot-svg" transform="translate(220.1296091445428, 142.77083333333334)"><path d="M6.31892333573487,0A6.31892333573487,6.31892333573487,0,1,1,-6.31892333573487,0A6.31892333573487,6.31892333573487,0,1,1,6.31892333573487,0" style="mix-blend-mode: normal; fill: rgb(31, 119, 180);"/></g><g id="dot-svg" transform="translate(459.9802728613569, 81.2462121212121)"><path d="M6.31892333573487,0A6.31892333573487,6.31892333573487,0,1,1,-6.31892333573487,0A6.31892333573487,6.31892333573487,0,1,1,6.31892333573487,0" style="mix-blend-mode: normal; fill: rgb(31, 119, 180);"/></g><g id="dot-svg" transform="translate(481.30033185840716, 124.22916666666663)"><path d="M6.31892333573487,0A6.31892333573487,6.31892333573487,0,1,1,-6.31892333573487,0A6.31892333573487,6.31892333573487,0,1,1,6.31892333573487,0" style="mix-blend-mode: normal; fill: rgb(31, 119, 180);"/></g><g id="dot-svg" transform="translate(348.0499631268437, 81.2462121212121)"><path d="M6.31892333573487,0A6.31892333573487,6.31892333573487,0,1,1,-6.31892333573487,0A6.31892333573487,6.31892333573487,0,1,1,6.31892333573487,0" style="mix-blend-mode: normal; fill: rgb(31, 119, 180);"/></g><g id="dot-svg" transform="translate(443.9902286135694, 59.33333333333326)"><path d="M6.31892333573487,0A6.31892333573487,6.31892333573487,0,1,1,-6.31892333573487,0A6.31892333573487,6.31892333573487,0,1,1,6.31892333573487,0" style="mix-blend-mode: normal; fill: rgb(31, 119, 180);"/></g><g id="dot-svg" transform="translate(348.0499631268437, 244.75)"><path d="M6.31892333573487,0A6.31892333573487,6.31892333573487,0,1,1,-6.31892333573487,0A6.31892333573487,6.31892333573487,0,1,1,6.31892333573487,0" style="mix-blend-mode: normal; fill: rgb(199, 30, 29);"/></g><g id="dot-svg" transform="translate(294.7498156342183, 207.66666666666666)"><path d="M6.31892333573487,0A6.31892333573487,6.31892333573487,0,1,1,-6.31892333573487,0A6.31892333573487,6.31892333573487,0,1,1,6.31892333573487,0" style="mix-blend-mode: normal; fill: rgb(199, 30, 29);"/></g></g></g></g><g id="front-svg" clip-path="url(#rect-mask-front-NoVvnS-oDZdK_u8Sbho20)" transform="translate(0.00000, 135.87500)"><clipPath id="rect-mask-front-NoVvnS-oDZdK_u8Sbho20"><rect x="0" y="0" width="768" height="300"/></clipPath><g id="group-svg" transform="translate(35.25, 10)"><g id="grid-svg"><g id="x-tick-labels-svg grid-x-svg number-axis-svg datawrapper-lHQVh-14jwf37-svg" transform="translate(0, 272)"><text transform="translate(33.57909292035396, 14) translate(-3.90625, 0.00000) translate(3.90625, 0)" style="text-anchor: middle;"><tspan fill="rgb(123, 123, 123)" style="font-family: Arial; font-weight: 400; font-size: 14px;" x="0" dominant-baseline="auto" y="0">1</tspan></text><text transform="translate(140.17938790560467, 14) translate(-3.90625, 0.00000) translate(3.90625, 0)" style="text-anchor: middle;"><tspan fill="rgb(123, 123, 123)" style="font-family: Arial; font-weight: 400; font-size: 14px;" x="0" dominant-baseline="auto" y="0">1</tspan></text><text transform="translate(246.7796828908555, 14) translate(-4.00781, 0.00000) translate(4.0078125, 0)" style="text-anchor: middle;"><tspan fill="rgb(123, 123, 123)" style="font-family: Arial; font-weight: 400; font-size: 14px;" x="0" dominant-baseline="auto" y="0">2</tspan></text><text transform="translate(353.37997787610624, 14) translate(-4.00781, 0.00000) translate(4.0078125, 0)" style="text-anchor: middle;"><tspan fill="rgb(123, 123, 123)" style="font-family: Arial; font-weight: 400; font-size: 14px;" x="0" dominant-baseline="auto" y="0">2</tspan></text><text transform="translate(459.9802728613569, 14) translate(-4.00781, 0.00000) translate(4.0078125, 0)" style="text-anchor: middle;"><tspan fill="rgb(123, 123, 123)" style="font-family: Arial; font-weight: 400; font-size: 14px;" x="0" dominant-baseline="auto" y="0">2</tspan></text><text transform="translate(566.5805678466078, 14) translate(-4.00781, 0.00000) translate(4.0078125, 0)" style="text-anchor: middle;"><tspan fill="rgb(123, 123, 123)" style="font-family: Arial; font-weight: 400; font-size: 14px;" x="0" dominant-baseline="auto" y="0">2</tspan></text><text transform="translate(673.1808628318585, 14) translate(-10.12500, 0.00000) translate(10.125, 0)" style="text-anchor: middle;"><tspan fill="rgb(123, 123, 123)" style="font-family: Arial; font-weight: 400; font-size: 14px;" x="0" dominant-baseline="auto" y="0">2%</tspan></text></g><g id="x-base-lines-svg grid-x-svg datawrapper-lHQVh-n2qvu0-svg"><line x1="0" x2="0" y1="267" y2="0" transform="translate(0, 0)" style="fill: none; stroke-width: 1; stroke-linejoin: miter; stroke-linecap: square; stroke: rgb(51, 51, 51);"/></g><g id="y-tick-labels-svg grid-y-svg number-axis-svg datawrapper-lHQVh-1pv0dev-svg" transform="translate(-5, 0)"><text transform="translate(0, 200.86742424242425) translate(-15.79688, 0.00000) translate(15.796875, 0)" style="text-anchor: end;"><tspan fill="rgb(123, 123, 123)" style="font-family: Arial; font-weight: 400; font-size: 14px;" x="0" dominant-baseline="auto" y="0">50</tspan></text><text transform="translate(0, 116.58712121212119) translate(-15.79688, 0.00000) translate(15.796875, 0)" style="text-anchor: end;"><tspan fill="rgb(123, 123, 123)" style="font-family: Arial; font-weight: 400; font-size: 14px;" x="0" dominant-baseline="auto" y="0">60</tspan></text><text transform="translate(0, 32.30681818181816) translate(-28.03125, 0.00000) translate(28.03125, 0)" style="text-anchor: end;"><tspan fill="rgb(123, 123, 123)" style="font-family: Arial; font-weight: 400; font-size: 14px;" x="0" dominant-baseline="auto" y="0">70%</tspan></text></g><g id="y-base-lines-svg grid-y-svg datawrapper-lHQVh-n2qvu0-svg"><line x1="722.75" x2="0" y1="0" y2="0" transform="translate(0, 267)" style="fill: none; stroke-width: 1; stroke-linejoin: miter; stroke-linecap: square; stroke: rgb(51, 51, 51);"/></g></g><path d="M0,107.89559781457137L0.9999999999999823,107.92516492749172L1.9999999999999647,107.95473204041213L2.9999999999999476,107.98429915333247L4.000000000000048,108.01386626625288L5.00000000000003,108.04343337917325L6.000000000000012,108.0730004920936L6.999999999999996,108.10256760501403L7.999999999999978,108.13213471793438L8.999999999999961,108.16170183085478L9.999999999999943,108.19126894377516L11.000000000000043,108.22083605669556L12.000000000000025,108.25040316961591L13.000000000000009,108.27997028253631L13.999999999999991,108.30953739545666L14.999999999999973,108.339104508377L15.999999999999956,108.36867162129744L17.000000000000057,108.39823873421781L18.00000000000004,108.42780584713822L19.00000000000002,108.45737296005856L20.000000000000004,108.48694007297897L20.999999999999986,108.51650718589934L21.999999999999968,108.54607429881975L22.999999999999947,108.5756414117401L24.00000000000005,108.6052085246605L25.000000000000036,108.63477563758084L26.000000000000018,108.6643427505013L27,108.69390986342165L27.999999999999982,108.723476976342L28.999999999999964,108.7530440892624L29.999999999999947,108.78261120218275L31.000000000000043,108.81217831510318L32.00000000000003,108.84174542802353L33.00000000000001,108.87131254094393L33.99999999999999,108.90087965386428L34.99999999999997,108.93044676678468L35.99999999999996,108.96001387970503L37.00000000000006,108.98958099262543L38.00000000000004,109.01914810554584L39.00000000000002,109.04871521846619L40.00000000000001,109.07828233138659L40.99999999999999,109.10784944430694L41.99999999999997,109.13741655722737L42.99999999999996,109.16698367014772L44.00000000000005,109.19655078306812L45.000000000000036,109.22611789598847L46.000000000000014,109.25568500890881L47.00000000000001,109.28525212182927L47.99999999999998,109.31481923474962L48.99999999999997,109.34438634767002L49.99999999999995,109.37395346059037L51.00000000000004,109.40352057351078L52.000000000000036,109.43308768643115L53.00000000000001,109.46265479935155L54,109.4922219122719L54.99999999999997,109.52178902519225L55.999999999999964,109.55135613811268L56.99999999999994,109.58092325103303L58.00000000000005,109.61049036395346L59.00000000000003,109.6400574768738L60.000000000000014,109.66962458979421L60.99999999999999,109.69919170271456L61.99999999999998,109.72875881563496L62.99999999999996,109.75832592855534L64.00000000000006,109.78789304147574L65.00000000000004,109.81746015439609L66.00000000000001,109.84702726731652L67,109.87659438023687L67.99999999999999,109.90616149315724L68.99999999999997,109.93572860607765L69.99999999999994,109.965295718998L70.99999999999993,109.9948628319184L72.00000000000003,110.02442994483874L73.00000000000001,110.05399705775918L74,110.08356417067952L74.99999999999999,110.11313128359996L75.99999999999996,110.1426983965203L77.00000000000006,110.17226550944065L78.00000000000004,110.20183262236108L79.00000000000003,110.23139973528143L80.00000000000001,110.26096684820183L80.99999999999999,110.29053396112218L81.99999999999999,110.32010107404258L82.99999999999996,110.34966818696293L83.99999999999994,110.37923529988336L85.00000000000004,110.40880241280371L86.00000000000003,110.43836952572408L87,110.46793663864449L88,110.49750375156484L88.99999999999997,110.52707086448527L89.99999999999996,110.55663797740561L91.00000000000004,110.58620509032602L92.00000000000003,110.61577220324637L93.00000000000003,110.64533931616677L94.00000000000001,110.67490642908714L94.99999999999997,110.70447354200749L95.99999999999996,110.73404065492792L96.99999999999996,110.76360776784827L98.00000000000006,110.79317488076867L99.00000000000003,110.82274199368905L100.00000000000001,110.85230910660945L101,110.8818762195298L101.99999999999997,110.9114433324502L102.99999999999996,110.94101044537055L104.00000000000007,110.97057755829096L105.00000000000006,111.00014467121136L106.00000000000001,111.0297117841317L107.00000000000001,111.05927889705211L108,111.08884600997246L108.99999999999999,111.11841312289286L109.99999999999994,111.14798023581324L110.99999999999994,111.17754734873364L112.00000000000004,111.20711446165399L113.00000000000001,111.23668157457439L114,111.26624868749474L114.99999999999999,111.2958158004152L115.99999999999997,111.32538291333555L116.99999999999994,111.35495002625589L118.00000000000006,111.3845171391763L119.00000000000004,111.41408425209664L120.00000000000003,111.44365136501708L121,111.47321847793742L121.99999999999999,111.50278559085783L122.99999999999997,111.53235270377817L123.99999999999996,111.56191981669858L125.00000000000004,111.59148692961895L126.00000000000003,111.62105404253933L127.00000000000001,111.65062115545973L127.99999999999999,111.68018826838008L128.99999999999997,111.70975538130048L129.99999999999997,111.73932249422083L131.00000000000006,111.76888960714126L132.00000000000003,111.79845672006161L133.00000000000003,111.82802383298201L134,111.85759094590236L135,111.8871580588227L135.99999999999997,111.91672517174317L136.99999999999994,111.94629228466351L137.99999999999994,111.97585939758392L139.00000000000003,112.00542651050426L140.00000000000003,112.03499362342467L141,112.06456073634504L142,112.09412784926545L142.99999999999997,112.1236949621858L144.00000000000006,112.15326207510623L145.00000000000006,112.18282918802657L146.00000000000003,112.21239630094692L147,112.24196341386735L148,112.2715305267877L148.99999999999997,112.3010976397081L149.99999999999997,112.33066475262845L150.99999999999994,112.36023186554885L152.00000000000006,112.38979897846923L153.00000000000003,112.41936609138963L154,112.44893320430998L155,112.47850031723041L155.99999999999997,112.50806743015076L157.00000000000009,112.53763454307114L158.00000000000006,112.56720165599154L159.00000000000003,112.59676876891189L160.00000000000003,112.62633588183229L161.00000000000003,112.65590299475264L161.99999999999997,112.68547010767307L162.99999999999997,112.71503722059342L163.99999999999997,112.74460433351385L164.99999999999994,112.7741714464342L166.00000000000003,112.80373855935454L167.00000000000003,112.83330567227497L168,112.86287278519532L168.99999999999997,112.89243989811573L169.99999999999997,112.92200701103607L170.99999999999994,112.95157412395648L172.00000000000006,112.98114123687682L173.00000000000003,113.01070834979726L174,113.04027546271763L175,113.06984257563798L176,113.09940968855838L176.99999999999994,113.12897680147873L177.99999999999994,113.15854391439916L178.99999999999994,113.18811102731951L180.00000000000003,113.21767814023991L181.00000000000003,113.24724525316026L181.99999999999997,113.27681236608066L182.99999999999997,113.30637947900104L183.99999999999994,113.33594659192141L185.00000000000006,113.36551370484182L186.00000000000006,113.39508081776216L187.00000000000003,113.42464793068257L188.00000000000003,113.45421504360294L189,113.48378215652335L189.99999999999994,113.5133492694437L190.99999999999994,113.5429163823641L192.00000000000006,113.57248349528444L193.00000000000003,113.60205060820485L194.00000000000003,113.63161772112525L195,113.66118483404566L196,113.690751946966L196.99999999999994,113.72031905988635L198.00000000000006,113.74988617280675L199.00000000000003,113.77945328572713L200.00000000000003,113.80902039864753L201.00000000000003,113.83858751156788L202,113.86815462448828L203,113.89772173740863L203.99999999999994,113.92728885032909L204.99999999999991,113.95685596324944L205.99999999999991,113.98642307616979L207.00000000000003,114.01599018909019L208,114.04555730201054L209,114.07512441493097L209.99999999999997,114.10469152785132L211.00000000000009,114.13425864077172L212.00000000000003,114.16382575369207L213.00000000000003,114.1933928666125L214.00000000000003,114.22295997953287L215,114.25252709245322L216,114.28209420537362L216.99999999999997,114.31166131829397L217.99999999999997,114.34122843121438L218.99999999999991,114.37079554413472L219.9999999999999,114.40036265705515L221,114.4299297699755L222,114.4594968828959L222.99999999999997,114.48906399581625L224.00000000000009,114.51863110873668L225.00000000000009,114.54819822165706L226.00000000000003,114.5777653345774L227,114.60733244749781L228,114.63689956041816L229,114.66646667333856L229.99999999999997,114.69603378625894L230.99999999999997,114.72560089917934L231.99999999999994,114.75516801209969L233.00000000000006,114.78473512502012L234,114.81430223794047L235,114.8438693508609L235.99999999999997,114.87343646378125L236.99999999999997,114.9030035767016L237.99999999999994,114.932570689622L239.00000000000006,114.96213780254234L240.00000000000006,114.99170491546275L241,115.02127202838312L242,115.05083914130353L242.99999999999997,115.0804062542239L243.99999999999997,115.1099733671443L244.99999999999994,115.13954048006465L246.00000000000006,115.16910759298503L247.00000000000006,115.19867470590543L248.00000000000003,115.22824181882578L248.99999999999997,115.25780893174618L249.99999999999997,115.28737604466653L250.99999999999994,115.31694315758696L251.99999999999994,115.34651027050731L253.00000000000006,115.37607738342774L254.00000000000003,115.40564449634809L255.00000000000003,115.43521160926844L255.99999999999997,115.46477872218887L256.99999999999994,115.49434583510921L257.99999999999994,115.52391294802962L259.00000000000006,115.55348006094997L260.00000000000006,115.58304717387037L261.00000000000006,115.61261428679072L262,115.64218139971118L263,115.67174851263152L263.99999999999994,115.70131562555187L264.99999999999994,115.73088273847227L266.00000000000006,115.76044985139262L267.00000000000006,115.79001696431305L268,115.8195840772334L269,115.8491511901538L270,115.87871830307415L270.99999999999994,115.90828541599456L271.99999999999994,115.93785252891493L272.99999999999994,115.9674196418353L273.9999999999999,115.99698675475571L275,116.02655386767606L276,116.05612098059646L277,116.08568809351684L278.00000000000006,116.11525520643724L279.00000000000006,116.14482231935759L280.00000000000006,116.17438943227799L281,116.20395654519834L282,116.2335236581188L283,116.26309077103915L284,116.29265788395955L284.99999999999994,116.3222249968799L285.99999999999994,116.35179210980024L286.9999999999999,116.38135922272065L288,116.41092633564102L289,116.44049344856143L290,116.47006056148177L291.0000000000001,116.49962767440218L292.00000000000006,116.52919478732252L293.00000000000006,116.55876190024298L294,116.58832901316333L295,116.61789612608368L296,116.64746323900408L297,116.67703035192443L297.99999999999994,116.70659746484486L298.99999999999994,116.73616457776521L299.99999999999994,116.76573169068561L301,116.79529880360596L302,116.82486591652639L303,116.85443302944677L304.0000000000001,116.88400014236717L305.00000000000006,116.91356725528752L306.00000000000006,116.94313436820786L307.00000000000006,116.97270148112827L308,117.00226859404862L309,117.03183570696905L310,117.0614028198894L310.99999999999994,117.0909699328098L311.99999999999994,117.12053704573017L312.99999999999994,117.15010415865052L314.00000000000006,117.17967127157095L315,117.2092383844913L316,117.2388054974117L317.0000000000001,117.26837261033205L318.00000000000006,117.29793972325245L319.00000000000006,117.32750683617283L320.00000000000006,117.35707394909323L321.00000000000006,117.38664106201358L322.00000000000006,117.41620817493401L323,117.44577528785436L323.99999999999994,117.47534240077479L324.99999999999994,117.50490951369514L325.99999999999994,117.53447662661549L326.99999999999994,117.56404373953589L327.99999999999994,117.59361085245624L329,117.62317796537664L329.99999999999994,117.65274507829702L330.99999999999994,117.68231219121742L332.00000000000006,117.7118793041378L333.00000000000006,117.7414464170582L334.00000000000006,117.77101352997855L335.00000000000006,117.80058064289892L336,117.83014775581933L337,117.85971486873967L337.99999999999994,117.88928198166008L338.99999999999994,117.91884909458042L339.99999999999994,117.94841620750086L340.9999999999999,117.9779833204212L341.9999999999999,118.00755043334163L343,118.03711754626198L344,118.06668465918233L344.99999999999994,118.09625177210276L346.00000000000006,118.12581888502311L347.00000000000006,118.15538599794351L348,118.18495311086386L349,118.21452022378426L350,118.24408733670461L351,118.27365444962507L352,118.30322156254542L352.99999999999994,118.33278867546576L353.9999999999999,118.36235578838617L355,118.39192290130651L356,118.42149001422695L357,118.4510571271473L358,118.4806242400677L359.0000000000001,118.51019135298804L360.00000000000006,118.53975846590845L361,118.56932557882885L362.00000000000006,118.59889269174926L363.00000000000006,118.6284598046696L363.99999999999994,118.65802691759L364.99999999999994,118.68759403051035L365.99999999999994,118.71716114343073L366.9999999999999,118.74672825635113L367.9999999999999,118.77629536927148L368.9999999999999,118.80586248219188L370.0000000000001,118.83542959511223L371.0000000000001,118.86499670803269L372.0000000000001,118.89456382095304L373.00000000000006,118.92413093387344L374.00000000000006,118.95369804679379L375.00000000000006,118.98326515971414L376.00000000000006,119.01283227263454L377,119.04239938555492L378,119.07196649847532L378.99999999999994,119.10153361139567L379.9999999999999,119.13110072431607L380.9999999999999,119.16066783723645L381.9999999999999,119.19023495015688L383.00000000000006,119.21980206307722L384.0000000000001,119.24936917599763L385.0000000000001,119.27893628891798L386.00000000000006,119.30850340183832L387.00000000000006,119.33807051475875L388.00000000000006,119.3676376276791L389.00000000000006,119.3972047405995L390,119.42677185351985L391,119.45633896644028L392,119.48590607936066L393,119.51547319228101L393.9999999999999,119.54504030520141L394.9999999999999,119.57460741812176L396.00000000000006,119.60417453104216L397,119.63374164396251L398,119.66330875688294L399.00000000000006,119.69287586980329L400.00000000000006,119.72244298272369L401.00000000000006,119.75201009564407L402.00000000000006,119.78157720856447L403,119.81114432148485L404,119.84071143440525L405,119.8702785473256L406,119.89984566024594L407,119.92941277316635L408.00000000000006,119.95897988608672L409,119.98854699900713L410,120.01811411192747L411,120.0476812248479L412,120.07724833776825L413,120.10681545068869L414.00000000000006,120.13638256360903L415.00000000000006,120.16594967652938L416,120.19551678944978L417,120.22508390237013L418,120.25465101529056L419,120.28421812821091L419.99999999999994,120.31378524113134L421.00000000000006,120.34335235405169L422,120.37291946697209L423,120.40248657989244L424,120.43205369281281L425,120.46162080573322L426,120.49118791865357L426.99999999999994,120.52075503157397L428.00000000000006,120.55032214449432L429,120.57988925741475L430,120.60945637033512L431,120.63902348325553L432,120.66859059617587L432.99999999999994,120.69815770909622L434.00000000000006,120.72772482201665L435,120.757291934937L436,120.7868590478574L437,120.81642616077775L438,120.84599327369816L439,120.87556038661853L439.99999999999994,120.90512749953896L441.00000000000006,120.93469461245931L442,120.96426172537971L443,120.99382883830006L444,121.02339595122041L445,121.05296306414084L445.99999999999994,121.08253017706119L447.00000000000006,121.11209728998159L448,121.14166440290194L449,121.17123151582234L450,121.20079862874275L451,121.23036574166315L451.99999999999994,121.2599328545835L453.00000000000006,121.2894999675039L454,121.31906708042425L455,121.34863419334462L456,121.37820130626503L457,121.40776841918537L458,121.43733553210578L458.99999999999994,121.46690264502612L459.99999999999994,121.49646975794658L460.99999999999994,121.52603687086693L462.00000000000017,121.55560398378734L462.9999999999999,121.58517109670768L464.00000000000017,121.61473820962803L464.9999999999999,121.64430532254843L466.0000000000001,121.67387243546881L467,121.70343954838921L468,121.73300666130956L469,121.76257377422996L470,121.79214088715034L471,121.82170800007077L471.99999999999994,121.85127511299112L472.99999999999994,121.88084222591146L473.99999999999994,121.91040933883187L474.99999999999994,121.93997645175222L475.9999999999999,121.96954356467265L477.0000000000001,121.999110677593L477.9999999999999,122.0286777905134L479.0000000000001,122.05824490343375L480.0000000000001,122.08781201635418L481.0000000000001,122.11737912927455L482,122.14694624219496L483,122.1765133551153L484,122.20608046803565L484.99999999999994,122.23564758095605L485.99999999999994,122.2652146938764L486.99999999999994,122.29478180679683L487.99999999999994,122.32434891971718L488.9999999999999,122.35391603263761L489.9999999999999,122.38348314555796L490.9999999999999,122.41305025847836L492.0000000000001,122.44261737139874L493.0000000000001,122.47218448431914L494.0000000000001,122.50175159723949L495.00000000000006,122.53131871015984L496.00000000000006,122.56088582308024L496.99999999999994,122.59045293600062L497.99999999999994,122.62002004892102L498.99999999999994,122.6495871618414L499.99999999999994,122.6791542747618L500.99999999999994,122.70872138768215L501.9999999999999,122.73828850060258L502.9999999999999,122.76785561352293L503.9999999999999,122.79742272644327L505.0000000000001,122.82698983936368L506.0000000000001,122.85655695228402L507.0000000000001,122.88612406520446L508.00000000000006,122.9156911781248L509.00000000000006,122.94525829104523L510.00000000000006,122.97482540396558L511.00000000000006,123.00439251688599L511.99999999999994,123.03395962980633L512.9999999999999,123.06352674272671L513.9999999999999,123.09309385564711L514.9999999999999,123.12266096856746L515.9999999999999,123.15222808148786L516.9999999999999,123.18179519440821L518.0000000000001,123.21136230732864L519.0000000000001,123.24092942024902L520.0000000000001,123.27049653316942L521.0000000000001,123.30006364608977L522.0000000000001,123.32963075901017L523,123.35919787193055L524,123.3887649848509L525,123.4183320977713L526,123.44789921069165L526.9999999999999,123.47746632361205L527.9999999999999,123.50703343653242L528.9999999999999,123.53660054945286L529.9999999999999,123.5661676623732L531.0000000000001,123.59573477529361L532.0000000000001,123.62530188821395L533.0000000000001,123.65486900113436L533.9999999999999,123.68443611405473L535.0000000000001,123.71400322697508L535.9999999999998,123.74357033989548L537,123.77313745281583L538,123.80270456573624L539,123.83227167865664L540,123.86183879157704L541,123.89140590449739L541.9999999999999,123.9209730174178L542.9999999999999,123.95054013033814L544.0000000000001,123.98010724325852L544.9999999999999,124.00967435617892L546.0000000000001,124.03924146909927L546.9999999999998,124.06880858201967L548,124.09837569494002L548.9999999999998,124.12794280786048L550,124.15750992078083L551,124.18707703370123L552,124.21664414662158L553,124.24621125954192L554,124.27577837246233L555,124.3053454853827L556,124.3349125983031L557.0000000000001,124.36447971122345L557.9999999999999,124.39404682414389L559.0000000000001,124.42361393706423L559.9999999999998,124.45318104998466L561,124.48274816290501L561.9999999999998,124.51231527582536L563,124.54188238874576L564,124.57144950166617L565,124.60101661458654L566,124.63058372750689L567,124.66015084042729L568,124.68971795334767L569,124.71928506626807L570.0000000000002,124.74885217918845L570.9999999999999,124.7784192921088L572.0000000000001,124.8079864050292L572.9999999999998,124.83755351794954L574,124.86712063086995L575,124.8966877437903L576,124.92625485671073L577,124.95582196963107L578,124.9853890825515L579,125.01495619547185L580,125.04452330839226L581,125.07409042131263L582,125.10365753423304L583.0000000000002,125.13322464715338L583.9999999999999,125.16279176007373L585.0000000000001,125.19235887299413L585.9999999999999,125.22192598591451L587,125.25149309883491L588,125.28106021175529L589,125.31062732467569L590,125.34019443759604L591,125.36976155051647L592,125.39932866343682L593,125.42889577635717L594,125.45846288927757L595,125.48803000219792L596.0000000000002,125.51759711511835L596.9999999999999,125.5471642280387L598.0000000000001,125.57673134095913L598.9999999999999,125.60629845387948L600.0000000000001,125.63586556679988L601,125.66543267972023L602,125.6949997926406L603,125.724566905561L604,125.75413401848141L605,125.78370113140176L606,125.8132682443221L607,125.84283535724256L608,125.87240247016291L609.0000000000002,125.90196958308331L609.9999999999999,125.93153669600366L611.0000000000001,125.96110380892407L611.9999999999999,125.99067092184444L613.0000000000001,126.02023803476484L614.0000000000001,126.04980514768519L615.0000000000001,126.07937226060554L616,126.10893937352594L617,126.13850648644635L618,126.16807359936675L619,126.1976407122871L620.0000000000002,126.2272078252075L621,126.25677493812785L622.0000000000002,126.28634205104825L622.9999999999999,126.31590916396863L624.0000000000001,126.34547627688897L624.9999999999999,126.37504338980938L626.0000000000001,126.40461050272972L627.0000000000001,126.43417761565016L628.0000000000001,126.46374472857053L629.0000000000001,126.49331184149094L630,126.52287895441128L631,126.55244606733169L632,126.58201318025203L633,126.61158029317241L634,126.64114740609281L635.0000000000002,126.67071451901322L635.9999999999999,126.70028163193356L637.0000000000001,126.72984874485394L637.9999999999999,126.75941585777437L639.0000000000001,126.78898297069472L639.9999999999999,126.81855008361512L641.0000000000001,126.84811719653547L642.0000000000001,126.87768430945582L643.0000000000001,126.90725142237625L644.0000000000001,126.9368185352966L645,126.966385648217L646,126.99595276113735L646.9999999999999,127.02551987405778L647.9999999999999,127.05508698697813L648.9999999999999,127.08465409989856L650.0000000000001,127.1142212128189L650.9999999999999,127.14378832573925L652.0000000000001,127.17335543865966L652.9999999999999,127.20292255158L654.0000000000001,127.23248966450043L654.9999999999999,127.26205677742078L656.0000000000001,127.29162389034119L657.0000000000001,127.32119100326156L658,127.35075811618196L659,127.38032522910234L659.9999999999999,127.40989234202274L660.9999999999999,127.43945945494309L661.9999999999999,127.4690265678635L662.9999999999999,127.49859368078384L663.9999999999999,127.52816079370422L665.0000000000001,127.55772790662462L665.9999999999999,127.58729501954497L667.0000000000001,127.6168621324654L667.9999999999999,127.64642924538575L669.0000000000001,127.67599635830615L669.9999999999998,127.70556347122653L671,127.73513058414693L672,127.76469769706728L673,127.79426480998762L674,127.82383192290803L674.9999999999999,127.8533990358284L675.9999999999999,127.88296614874884L676.9999999999999,127.91253326166918L678.0000000000001,127.94210037458959L678.9999999999999,127.97166748750993L680.0000000000001,128.00123460043037L680.9999999999999,128.0308017133507L682.0000000000001,128.06036882627106L682.9999999999998,128.08993593919146L684,128.1195030521118L685,128.14907016503224L686,128.1786372779526L687,128.20820439087302L688,128.23777150379337L689,128.26733861671377L689.9999999999999,128.29690572963412L691.0000000000001,128.32647284255455L691.9999999999999,128.3560399554749L693.0000000000001,128.3856070683953L693.9999999999999,128.41517418131565L695.0000000000001,128.444741294236L695.9999999999998,128.47430840715646L697,128.5038755200768L698,128.5334426329972L699,128.56300974591755L700,128.59257685883796L701,128.62214397175833L702,128.65171108467874L703,128.68127819759908L704.0000000000001,128.71084531051943L704.9999999999999,128.74041242343984L706.0000000000001,128.76997953636024L706.9999999999999,128.79954664928064L708.0000000000001,128.829113762201L708.9999999999998,128.8586808751214L710,128.88824798804174L711,128.91781510096217L712,128.94738221388252L713,128.97694932680287L714,129.00651643972327L715,129.03608355264362L716,129.06565066556405L717.0000000000002,129.09521777848443L717.9999999999999,129.12478489140483L719.0000000000001,129.15435200432518L719.9999999999999,129.18391911724558L721.0000000000001,129.21348623016593L721.9999999999998,129.2430533430863" stroke="rgb(51,51,51)" style="mix-blend-mode: normal; fill: none; stroke-width: 1; stroke-linejoin: miter; stroke-linecap: butt; stroke: rgb(51, 51, 51);"/><g id="labels-svg"><g id="label-svg" transform="translate(305, 80.68107666426513)"><g id="AG-svg"><text transform="translate(-10.67969, 0.00000) translate(10.6796875, 0)" style="text-anchor: middle;"><tspan x="0" y="-2.8000000000000007" style="font-family: Arial; font-weight: 400; font-size: 14px; stroke: rgb(255, 255, 255); stroke-width: 5; stroke-linejoin: round; stroke-linecap: round;">AG</tspan></text><text transform="translate(-10.67969, 0.00000) translate(10.6796875, 0)" style="text-anchor: middle;"><tspan fill="rgb(123, 123, 123)" style="font-family: Arial; font-weight: 400; font-size: 14px;" x="0" y="-2.8000000000000007">AG</tspan></text></g></g><g id="label-svg" transform="translate(285.6810766642651, 193)"><g id="AR-svg"><text transform="translate(-20.45313, 0.00000) translate(20.453125, 0)" style="text-anchor: end;"><tspan x="0" y="5.6" style="font-family: Arial; font-weight: 400; font-size: 14px; stroke: rgb(255, 255, 255); stroke-width: 5; stroke-linejoin: round; stroke-linecap: round;">AR</tspan></text><text transform="translate(-20.45313, 0.00000) translate(20.453125, 0)" style="text-anchor: end;"><tspan fill="rgb(123, 123, 123)" style="font-family: Arial; font-weight: 400; font-size: 14px;" x="0" y="5.6">AR</tspan></text></g></g><g id="label-svg" transform="translate(357.3189233357349, 245)"><g id="AI-svg"><text transform="translate(0, 0)"><tspan x="0" y="5.6" style="font-family: Arial; font-weight: 400; font-size: 14px; stroke: rgb(255, 255, 255); stroke-width: 5; stroke-linejoin: round; stroke-linecap: round;">AI</tspan></text><text transform="translate(0, 0)"><tspan fill="rgb(123, 123, 123)" style="font-family: Arial; font-weight: 400; font-size: 14px;" x="0" y="5.6">AI</tspan></text></g></g><g id="label-svg" transform="translate(156, 78.31892333573487)"><g id="BL-svg"><text transform="translate(-8.67188, 0.00000) translate(8.671875, 0)" style="text-anchor: middle;"><tspan x="0" y="14" style="font-family: Arial; font-weight: 400; font-size: 14px; stroke: rgb(255, 255, 255); stroke-width: 5; stroke-linejoin: round; stroke-linecap: round;">BL</tspan></text><text transform="translate(-8.67188, 0.00000) translate(8.671875, 0)" style="text-anchor: middle;"><tspan fill="rgb(123, 123, 123)" style="font-family: Arial; font-weight: 400; font-size: 14px;" x="0" y="14">BL</tspan></text></g></g><g id="label-svg" transform="translate(176.31892333573487, 22)"><g id="BS-svg"><text transform="translate(0, 0)"><tspan x="0" y="5.6" style="font-family: Arial; font-weight: 400; font-size: 14px; stroke: rgb(255, 255, 255); stroke-width: 5; stroke-linejoin: round; stroke-linecap: round;">BS</tspan></text><text transform="translate(0, 0)"><tspan fill="rgb(123, 123, 123)" style="font-family: Arial; font-weight: 400; font-size: 14px;" x="0" y="5.6">BS</tspan></text></g></g><g id="label-svg" transform="translate(455, 100.31892333573487)"><g id="BE-svg"><text transform="translate(-9.34375, 0.00000) translate(9.34375, 0)" style="text-anchor: middle;"><tspan x="0" y="14" style="font-family: Arial; font-weight: 400; font-size: 14px; stroke: rgb(255, 255, 255); stroke-width: 5; stroke-linejoin: round; stroke-linecap: round;">BE</tspan></text><text transform="translate(-9.34375, 0.00000) translate(9.34375, 0)" style="text-anchor: middle;"><tspan fill="rgb(123, 123, 123)" style="font-family: Arial; font-weight: 400; font-size: 14px;" x="0" y="14">BE</tspan></text></g></g><g id="label-svg" transform="translate(586.3189233357349, 98)"><g id="FR-svg"><text transform="translate(0, 0)"><tspan x="0" y="5.6" style="font-family: Arial; font-weight: 400; font-size: 14px; stroke: rgb(255, 255, 255); stroke-width: 5; stroke-linejoin: round; stroke-linecap: round;">FR</tspan></text><text transform="translate(0, 0)"><tspan fill="rgb(123, 123, 123)" style="font-family: Arial; font-weight: 400; font-size: 14px;" x="0" y="5.6">FR</tspan></text></g></g><g id="label-svg" transform="translate(60, 96.31892333573487)"><g id="GE-svg"><text transform="translate(-10.12500, 0.00000) translate(10.125, 0)" style="text-anchor: middle;"><tspan x="0" y="14" style="font-family: Arial; font-weight: 400; font-size: 14px; stroke: rgb(255, 255, 255); stroke-width: 5; stroke-linejoin: round; stroke-linecap: round;">GE</tspan></text><text transform="translate(-10.12500, 0.00000) translate(10.125, 0)" style="text-anchor: middle;"><tspan fill="rgb(123, 123, 123)" style="font-family: Arial; font-weight: 400; font-size: 14px;" x="0" y="14">GE</tspan></text></g></g><g id="label-svg" transform="translate(193, 169.31892333573487)"><g id="GL-svg"><text transform="translate(-9.45313, 0.00000) translate(9.453125, 0)" style="text-anchor: middle;"><tspan x="0" y="14" style="font-family: Arial; font-weight: 400; font-size: 14px; stroke: rgb(255, 255, 255); stroke-width: 5; stroke-linejoin: round; stroke-linecap: round;">GL</tspan></text><text transform="translate(-9.45313, 0.00000) translate(9.453125, 0)" style="text-anchor: middle;"><tspan fill="rgb(123, 123, 123)" style="font-family: Arial; font-weight: 400; font-size: 14px;" x="0" y="14">GL</tspan></text></g></g><g id="label-svg" transform="translate(368.3189233357349, 104)"><g id="GR-svg"><text transform="translate(0, 0)"><tspan x="0" y="5.6" style="font-family: Arial; font-weight: 400; font-size: 14px; stroke: rgb(255, 255, 255); stroke-width: 5; stroke-linejoin: round; stroke-linecap: round;">GR</tspan></text><text transform="translate(0, 0)"><tspan fill="rgb(123, 123, 123)" style="font-family: Arial; font-weight: 400; font-size: 14px;" x="0" y="5.6">GR</tspan></text></g></g><g id="label-svg" transform="translate(663, 165.31892333573487)"><g id="JU-svg"><text transform="translate(-8.56250, 0.00000) translate(8.5625, 0)" style="text-anchor: middle;"><tspan x="0" y="14" style="font-family: Arial; font-weight: 400; font-size: 14px; stroke: rgb(255, 255, 255); stroke-width: 5; stroke-linejoin: round; stroke-linecap: round;">JU</tspan></text><text transform="translate(-8.56250, 0.00000) translate(8.5625, 0)" style="text-anchor: middle;"><tspan fill="rgb(123, 123, 123)" style="font-family: Arial; font-weight: 400; font-size: 14px;" x="0" y="14">JU</tspan></text></g></g><g id="label-svg" transform="translate(429.6810766642651, 92)"><g id="LU-svg"><text transform="translate(-17.90625, 0.00000) translate(17.90625, 0)" style="text-anchor: end;"><tspan x="0" y="5.6" style="font-family: Arial; font-weight: 400; font-size: 14px; stroke: rgb(255, 255, 255); stroke-width: 5; stroke-linejoin: round; stroke-linecap: round;">LU</tspan></text><text transform="translate(-17.90625, 0.00000) translate(17.90625, 0)" style="text-anchor: end;"><tspan fill="rgb(123, 123, 123)" style="font-family: Arial; font-weight: 400; font-size: 14px;" x="0" y="5.6">LU</tspan></text></g></g><g id="label-svg" transform="translate(535, 65.68107666426513)"><g id="NE-svg"><text transform="translate(-9.73438, 0.00000) translate(9.734375, 0)" style="text-anchor: middle;"><tspan x="0" y="-2.8000000000000007" style="font-family: Arial; font-weight: 400; font-size: 14px; stroke: rgb(255, 255, 255); stroke-width: 5; stroke-linejoin: round; stroke-linecap: round;">NE</tspan></text><text transform="translate(-9.73438, 0.00000) translate(9.734375, 0)" style="text-anchor: middle;"><tspan fill="rgb(123, 123, 123)" style="font-family: Arial; font-weight: 400; font-size: 14px;" x="0" y="-2.8000000000000007">NE</tspan></text></g></g><g id="label-svg" transform="translate(353, 128.31892333573487)"><g id="NW-svg"><text transform="translate(-12.06250, 0.00000) translate(12.0625, 0)" style="text-anchor: middle;"><tspan x="0" y="14" style="font-family: Arial; font-weight: 400; font-size: 14px; stroke: rgb(255, 255, 255); stroke-width: 5; stroke-linejoin: round; stroke-linecap: round;">NW</tspan></text><text transform="translate(-12.06250, 0.00000) translate(12.0625, 0)" style="text-anchor: middle;"><tspan fill="rgb(123, 123, 123)" style="font-family: Arial; font-weight: 400; font-size: 14px;" x="0" y="14">NW</tspan></text></g></g><g id="label-svg" transform="translate(394.3189233357349, 187)"><g id="OW-svg"><text transform="translate(0, 0)"><tspan x="0" y="5.6" style="font-family: Arial; font-weight: 400; font-size: 14px; stroke: rgb(255, 255, 255); stroke-width: 5; stroke-linejoin: round; stroke-linecap: round;">OW</tspan></text><text transform="translate(0, 0)"><tspan fill="rgb(123, 123, 123)" style="font-family: Arial; font-weight: 400; font-size: 14px;" x="0" y="5.6">OW</tspan></text></g></g><g id="label-svg" transform="translate(285.6810766642651, 112)"><g id="SH-svg"><text transform="translate(-19.45313, 0.00000) translate(19.453125, 0)" style="text-anchor: end;"><tspan x="0" y="5.6" style="font-family: Arial; font-weight: 400; font-size: 14px; stroke: rgb(255, 255, 255); stroke-width: 5; stroke-linejoin: round; stroke-linecap: round;">SH</tspan></text><text transform="translate(-19.45313, 0.00000) translate(19.453125, 0)" style="text-anchor: end;"><tspan fill="rgb(123, 123, 123)" style="font-family: Arial; font-weight: 400; font-size: 14px;" x="0" y="5.6">SH</tspan></text></g></g><g id="label-svg" transform="translate(285.6810766642651, 208)"><g id="SZ-svg"><text transform="translate(-18.34375, 0.00000) translate(18.34375, 0)" style="text-anchor: end;"><tspan x="0" y="5.6" style="font-family: Arial; font-weight: 400; font-size: 14px; stroke: rgb(255, 255, 255); stroke-width: 5; stroke-linejoin: round; stroke-linecap: round;">SZ</tspan></text><text transform="translate(-18.34375, 0.00000) translate(18.34375, 0)" style="text-anchor: end;"><tspan fill="rgb(123, 123, 123)" style="font-family: Arial; font-weight: 400; font-size: 14px;" x="0" y="5.6">SZ</tspan></text></g></g><g id="label-svg" transform="translate(241, 73.68107666426513)"><g id="SO-svg"><text transform="translate(-10.17969, 0.00000) translate(10.1796875, 0)" style="text-anchor: middle;"><tspan x="0" y="-2.8000000000000007" style="font-family: Arial; font-weight: 400; font-size: 14px; stroke: rgb(255, 255, 255); stroke-width: 5; stroke-linejoin: round; stroke-linecap: round;">SO</tspan></text><text transform="translate(-10.17969, 0.00000) translate(10.1796875, 0)" style="text-anchor: middle;"><tspan fill="rgb(123, 123, 123)" style="font-family: Arial; font-weight: 400; font-size: 14px;" x="0" y="-2.8000000000000007">SO</tspan></text></g></g><g id="label-svg" transform="translate(309.3189233357349, 156)"><g id="SG-svg"><text transform="translate(0, 0)"><tspan x="0" y="5.6" style="font-family: Arial; font-weight: 400; font-size: 14px; stroke: rgb(255, 255, 255); stroke-width: 5; stroke-linejoin: round; stroke-linecap: round;">SG</tspan></text><text transform="translate(0, 0)"><tspan fill="rgb(123, 123, 123)" style="font-family: Arial; font-weight: 400; font-size: 14px;" x="0" y="5.6">SG</tspan></text></g></g><g id="label-svg" transform="translate(66, 57.681076664265134)"><g id="TI-svg"><text transform="translate(-6.23438, 0.00000) translate(6.234375, 0)" style="text-anchor: middle;"><tspan x="0" y="-2.8000000000000007" style="font-family: Arial; font-weight: 400; font-size: 14px; stroke: rgb(255, 255, 255); stroke-width: 5; stroke-linejoin: round; stroke-linecap: round;">TI</tspan></text><text transform="translate(-6.23438, 0.00000) translate(6.234375, 0)" style="text-anchor: middle;"><tspan fill="rgb(123, 123, 123)" style="font-family: Arial; font-weight: 400; font-size: 14px;" x="0" y="-2.8000000000000007">TI</tspan></text></g></g><g id="label-svg" transform="translate(183.68107666426513, 156)"><g id="TG-svg"><text transform="translate(-19.57813, 0.00000) translate(19.578125, 0)" style="text-anchor: end;"><tspan x="0" y="5.6" style="font-family: Arial; font-weight: 400; font-size: 14px; stroke: rgb(255, 255, 255); stroke-width: 5; stroke-linejoin: round; stroke-linecap: round;">TG</tspan></text><text transform="translate(-19.57813, 0.00000) translate(19.578125, 0)" style="text-anchor: end;"><tspan fill="rgb(123, 123, 123)" style="font-family: Arial; font-weight: 400; font-size: 14px;" x="0" y="5.6">TG</tspan></text></g></g><g id="label-svg" transform="translate(229.31892333573487, 143)"><g id="UR-svg"><text transform="translate(0, 0)"><tspan x="0" y="5.6" style="font-family: Arial; font-weight: 400; font-size: 14px; stroke: rgb(255, 255, 255); stroke-width: 5; stroke-linejoin: round; stroke-linecap: round;">UR</tspan></text><text transform="translate(0, 0)"><tspan fill="rgb(123, 123, 123)" style="font-family: Arial; font-weight: 400; font-size: 14px;" x="0" y="5.6">UR</tspan></text></g></g><g id="label-svg" transform="translate(469.3189233357349, 81)"><g id="VD-svg"><text transform="translate(0, 0)"><tspan x="0" y="5.6" style="font-family: Arial; font-weight: 400; font-size: 14px; stroke: rgb(255, 255, 255); stroke-width: 5; stroke-linejoin: round; stroke-linecap: round;">VD</tspan></text><text transform="translate(0, 0)"><tspan fill="rgb(123, 123, 123)" style="font-family: Arial; font-weight: 400; font-size: 14px;" x="0" y="5.6">VD</tspan></text></g></g><g id="label-svg" transform="translate(481, 133.31892333573487)"><g id="VS-svg"><text transform="translate(-9.34375, 0.00000) translate(9.34375, 0)" style="text-anchor: middle;"><tspan x="0" y="14" style="font-family: Arial; font-weight: 400; font-size: 14px; stroke: rgb(255, 255, 255); stroke-width: 5; stroke-linejoin: round; stroke-linecap: round;">VS</tspan></text><text transform="translate(-9.34375, 0.00000) translate(9.34375, 0)" style="text-anchor: middle;"><tspan fill="rgb(123, 123, 123)" style="font-family: Arial; font-weight: 400; font-size: 14px;" x="0" y="14">VS</tspan></text></g></g><g id="label-svg" transform="translate(348, 71.68107666426513)"><g id="ZG-svg"><text transform="translate(-9.78906, 0.00000) translate(9.7890625, 0)" style="text-anchor: middle;"><tspan x="0" y="-2.8000000000000007" style="font-family: Arial; font-weight: 400; font-size: 14px; stroke: rgb(255, 255, 255); stroke-width: 5; stroke-linejoin: round; stroke-linecap: round;">ZG</tspan></text><text transform="translate(-9.78906, 0.00000) translate(9.7890625, 0)" style="text-anchor: middle;"><tspan fill="rgb(123, 123, 123)" style="font-family: Arial; font-weight: 400; font-size: 14px;" x="0" y="-2.8000000000000007">ZG</tspan></text></g></g><g id="label-svg" transform="translate(444, 49.681076664265134)"><g id="ZH-svg"><text transform="translate(-9.34375, 0.00000) translate(9.34375, 0)" style="text-anchor: middle;"><tspan x="0" y="-2.8000000000000007" style="font-family: Arial; font-weight: 400; font-size: 14px; stroke: rgb(255, 255, 255); stroke-width: 5; stroke-linejoin: round; stroke-linecap: round;">ZH</tspan></text><text transform="translate(-9.34375, 0.00000) translate(9.34375, 0)" style="text-anchor: middle;"><tspan fill="rgb(123, 123, 123)" style="font-family: Arial; font-weight: 400; font-size: 14px;" x="0" y="-2.8000000000000007">ZH</tspan></text></g></g></g></g></g><g id="Quota-svg di-svg iscrizioni-svg al-svg registro-svg di-svg donazione-svg organi-svg"><text transform="translate(758, 327.875)" style="text-anchor: end;"><tspan x="0" y="14" style="font-family: Arial; font-weight: 700; font-size: 14px; stroke: rgb(255, 255, 255); stroke-width: 2; stroke-linejoin: round; stroke-linecap: round;">Quota di</tspan><tspan x="0" y="30" style="font-family: Arial; font-weight: 700; font-size: 14px; stroke: rgb(255, 255, 255); stroke-width: 2; stroke-linejoin: round; stroke-linecap: round;">iscrizioni al</tspan><tspan x="0" y="46" style="font-family: Arial; font-weight: 700; font-size: 14px; stroke: rgb(255, 255, 255); stroke-width: 2; stroke-linejoin: round; stroke-linecap: round;">registro di</tspan><tspan x="0" y="62" style="font-family: Arial; font-weight: 700; font-size: 14px; stroke: rgb(255, 255, 255); stroke-width: 2; stroke-linejoin: round; stroke-linecap: round;">donazione</tspan><tspan x="0" y="78" style="font-family: Arial; font-weight: 700; font-size: 14px; stroke: rgb(255, 255, 255); stroke-width: 2; stroke-linejoin: round; stroke-linecap: round;">organi</tspan></text><text transform="translate(758, 327.875)" style="text-anchor: end;"><tspan fill="rgb(123,123,123)" x="0" y="14" style="font-family: Arial; font-weight: 700; font-size: 14px;">Quota di</tspan><tspan fill="rgb(123,123,123)" x="0" y="30" style="font-family: Arial; font-weight: 700; font-size: 14px;">iscrizioni al</tspan><tspan fill="rgb(123,123,123)" x="0" y="46" style="font-family: Arial; font-weight: 700; font-size: 14px;">registro di</tspan><tspan fill="rgb(123,123,123)" x="0" y="62" style="font-family: Arial; font-weight: 700; font-size: 14px;">donazione</tspan><tspan fill="rgb(123,123,123)" x="0" y="78" style="font-family: Arial; font-weight: 700; font-size: 14px;">organi</tspan></text></g><g id="Quota-svg di-svg “sì”-svg alla-svg legge-svg"><text transform="translate(40.25, 145.875)"><tspan x="0" y="14" style="font-family: Arial; font-weight: 700; font-size: 14px; stroke: rgb(255, 255, 255); stroke-width: 2; stroke-linejoin: round; stroke-linecap: round;">Quota di “sì” alla ​</tspan><tspan x="0" y="30" style="font-family: Arial; font-weight: 700; font-size: 14px; stroke: rgb(255, 255, 255); stroke-width: 2; stroke-linejoin: round; stroke-linecap: round;">legge</tspan></text><text transform="translate(40.25, 145.875)"><tspan fill="rgb(123,123,123)" x="0" y="14" style="font-family: Arial; font-weight: 700; font-size: 14px;">Quota di “sì” alla ​</tspan><tspan fill="rgb(123,123,123)" x="0" y="30" style="font-family: Arial; font-weight: 700; font-size: 14px;">legge</tspan></text></g></g><g id="above-footer-svg"><text transform="translate(0, 458.875)"><tspan fill="rgb(51,51,51)" x="0" y="12" style="font-family: Arial; font-weight: 400; font-size: 12px;">Più un Cantone si trova ​</tspan><tspan fill="rgb(51,51,51)" style="font-family: Arial; font-weight: 700; font-size: 12px;">a destra</tspan><tspan fill="rgb(51,51,51)" style="font-family: Arial; font-weight: 400; font-size: 12px;">​ sull’asse orizzontale, maggiori sono le persone iscritte al registro di donazione organi.</tspan><tspan fill="rgb(51,51,51)" x="0" y="26" style="font-family: Arial; font-weight: 400; font-size: 12px;">Più un Cantone si trova ​</tspan><tspan fill="rgb(51,51,51)" style="font-family: Arial; font-weight: 700; font-size: 12px;">in alto</tspan><tspan fill="rgb(51,51,51)" style="font-family: Arial; font-weight: 400; font-size: 12px;">​ sull’asse verticale, maggiore è l’approvazione della legge sui trapianti.</tspan><tspan fill="rgb(51,51,51)" x="0" y="40" style="font-family: Arial; font-weight: 400; font-size: 12px;">La misura di correlazione R² è ​</tspan><tspan fill="rgb(51,51,51)" style="font-family: Arial; font-weight: 700; font-size: 12px;">0,xx</tspan><tspan fill="rgb(51,51,51)" style="font-family: Arial; font-weight: 400; font-size: 12px;">, col valore massimo che può raggiungere 1.</tspan></text></g><g id="footer-svg"><text transform="translate(0, 505.875)"><tspan fill="rgb(136,136,136)" x="0" y="11" style="font-family: Arial; font-weight: 400; font-size: 11px;">Grafico:</tspan><tspan fill="rgb(136,136,136)" style="font-family: Arial; font-weight: 400; font-size: 11px;">​ ​</tspan><tspan fill="rgb(136,136,136)" style="font-family: Arial; font-weight: 400; font-size: 11px;">Keystone-ATS</tspan><tspan fill="rgb(136,136,136)" style="font-family: Arial; font-weight: 400; font-size: 11px;">​ ​</tspan><tspan fill="rgb(136,136,136)" style="font-family: Arial; font-weight: 400; font-size: 11px;">•</tspan><tspan fill="rgb(136,136,136)" style="font-family: Arial; font-weight: 400; font-size: 11px;">​ ​</tspan><tspan fill="rgb(136,136,136)" style="font-family: Arial; font-weight: 400; font-size: 11px;">Fonte</tspan><tspan fill="rgb(136,136,136)" style="font-family: Arial; font-weight: 400; font-size: 11px;">:</tspan><tspan fill="rgb(136,136,136)" style="font-family: Arial; font-weight: 400; font-size: 11px;">​ ​</tspan><tspan fill="rgb(136,136,136)" style="font-family: Arial; font-weight: 400; font-size: 11px;">Ufficio federale di statistical / Ufficio federale della sanità pubblica</tspan></text></g></g></g></svg>